<svg width="169" height="130" viewBox="0 0 169 130" fill="none" xmlns="http://www.w3.org/2000/svg">
<rect width="169" height="130" fill="white"/>
<path d="M147.216 23H20.7836C15.9326 23 12 26.6223 12 31.0907V99.257C12 103.725 15.9326 107.348 20.7836 107.348H147.216C152.067 107.348 156 103.725 156 99.257V31.0907C156 26.6223 152.067 23 147.216 23Z" fill="#4B5FFA"/>
<path opacity="0.3" d="M47.3158 38H29.2234C27.9954 38 27 38.9832 27 40.196V43.3574C27 44.5702 27.9954 45.5534 29.2234 45.5534H47.3158C48.5437 45.5534 49.5392 44.5702 49.5392 43.3574V40.196C49.5392 38.9832 48.5437 38 47.3158 38Z" fill="#4B5FFA"/>
<path opacity="0.3" d="M47.3441 70.8438H29.2517C28.0238 70.8438 27.0283 71.8269 27.0283 73.0398V76.2012C27.0283 77.414 28.0238 78.3972 29.2517 78.3972H47.3441C48.5721 78.3972 49.5675 77.414 49.5675 76.2012V73.0398C49.5675 71.8269 48.5721 70.8438 47.3441 70.8438Z" fill="#4B5FFA"/>
<path opacity="0.3" d="M78.5227 70.8438H59.425C58.1288 70.8438 57.0781 71.8269 57.0781 73.0398V76.2012C57.0781 77.414 58.1288 78.3972 59.425 78.3972H78.5227C79.8188 78.3972 80.8695 77.414 80.8695 76.2012V73.0398C80.8695 71.8269 79.8188 70.8438 78.5227 70.8438Z" fill="#4B5FFA"/>
<path opacity="0.3" d="M108.694 70.8438H90.6013C89.3734 70.8438 88.3779 71.8269 88.3779 73.0398V76.2012C88.3779 77.414 89.3734 78.3972 90.6013 78.3972H108.694C109.922 78.3972 110.917 77.414 110.917 76.2012V73.0398C110.917 71.8269 109.922 70.8438 108.694 70.8438Z" fill="#4B5FFA"/>
<path opacity="0.3" d="M138.744 70.8438H120.651C119.423 70.8438 118.428 71.8269 118.428 73.0398V76.2012C118.428 77.414 119.423 78.3972 120.651 78.3972H138.744C139.971 78.3972 140.967 77.414 140.967 76.2012V73.0398C140.967 71.8269 139.971 70.8438 138.744 70.8438Z" fill="#4B5FFA"/>
<path d="M43.2179 53.2061H30.8766C30.1352 53.2061 29.5342 53.8103 29.5342 54.5557V66.9634C29.5342 67.7088 30.1352 68.313 30.8766 68.313H43.2179C43.9593 68.313 44.5604 67.7088 44.5604 66.9634V54.5557C44.5604 53.8103 43.9593 53.2061 43.2179 53.2061Z" fill="#EEDD44"/>
<path d="M39.6641 58.2526L39.5371 58.1474L41.2752 56.9937H44.5457V57.1383H41.3496L39.6641 58.2526Z" fill="black"/>
<path d="M44.5457 64.5465H41.2737L39.5371 63.3767L39.6727 63.2876L41.3568 64.4201H44.5457V64.5465Z" fill="black"/>
<path d="M32.685 75.575V76H30.605V75.575H31.385V73.055L30.66 73.505V73.03L31.605 72.44H31.905V75.575H32.685ZM37.0561 75.575V76H34.7211V75.615L35.9461 74.27C36.1027 74.0967 36.2161 73.94 36.2861 73.8C36.3594 73.6567 36.3961 73.515 36.3961 73.375C36.3961 73.195 36.3444 73.0583 36.2411 72.965C36.1377 72.8683 35.9877 72.82 35.7911 72.82C35.4611 72.82 35.1311 72.95 34.8011 73.21L34.6161 72.83C34.7561 72.7 34.9344 72.5967 35.1511 72.52C35.3677 72.44 35.5861 72.4 35.8061 72.4C36.1461 72.4 36.4144 72.485 36.6111 72.655C36.8111 72.825 36.9111 73.055 36.9111 73.345C36.9111 73.5517 36.8661 73.7483 36.7761 73.935C36.6861 74.1183 36.5361 74.3233 36.3261 74.55L35.3761 75.575H37.0561ZM40.6871 74.17C40.8938 74.23 41.0521 74.3333 41.1621 74.48C41.2721 74.6267 41.3271 74.8117 41.3271 75.035C41.3271 75.345 41.2171 75.59 40.9971 75.77C40.7804 75.9467 40.4854 76.035 40.1121 76.035C39.8754 76.035 39.6488 75.9983 39.4321 75.925C39.2188 75.8483 39.0404 75.7417 38.8971 75.605L39.0821 75.225C39.4021 75.485 39.7404 75.615 40.0971 75.615C40.5838 75.615 40.8271 75.41 40.8271 75C40.8271 74.8 40.7638 74.6517 40.6371 74.555C40.5104 74.455 40.3188 74.405 40.0621 74.405H39.6271V73.985H39.9821C40.2288 73.985 40.4171 73.9333 40.5471 73.83C40.6771 73.7267 40.7421 73.5767 40.7421 73.38C40.7421 73.2 40.6871 73.0617 40.5771 72.965C40.4704 72.8683 40.3188 72.82 40.1221 72.82C39.7888 72.82 39.4588 72.95 39.1321 73.21L38.9471 72.83C39.0871 72.6967 39.2638 72.5917 39.4771 72.515C39.6938 72.4383 39.9171 72.4 40.1471 72.4C40.4804 72.4 40.7454 72.4833 40.9421 72.65C41.1421 72.8133 41.2421 73.035 41.2421 73.315C41.2421 73.5183 41.1938 73.695 41.0971 73.845C41.0004 73.995 40.8638 74.1033 40.6871 74.17ZM45.8482 75.26H45.3232V76H44.8132V75.26H43.2182V74.875L44.9082 72.44H45.3232V74.845H45.8482V75.26ZM44.8132 74.845V73.275L43.7232 74.845H44.8132Z" fill="white"/>
<path d="M94.07 74.17C94.3 74.2333 94.4783 74.3417 94.605 74.495C94.735 74.6483 94.8 74.8333 94.8 75.05C94.8 75.3567 94.6817 75.5983 94.445 75.775C94.2117 75.9483 93.8967 76.035 93.5 76.035C93.1033 76.035 92.7867 75.9483 92.55 75.775C92.3167 75.5983 92.2 75.3567 92.2 75.05C92.2 74.83 92.265 74.6433 92.395 74.49C92.525 74.3367 92.7067 74.23 92.94 74.17C92.7333 74.1033 92.5717 73.9983 92.455 73.855C92.3417 73.7117 92.285 73.5433 92.285 73.35C92.285 73.16 92.3367 72.9933 92.44 72.85C92.5433 72.7067 92.6867 72.5967 92.87 72.52C93.0533 72.44 93.2633 72.4 93.5 72.4C93.7367 72.4 93.9467 72.44 94.13 72.52C94.3133 72.5967 94.4567 72.7067 94.56 72.85C94.6633 72.9933 94.715 73.16 94.715 73.35C94.715 73.5433 94.6583 73.7133 94.545 73.86C94.4317 74.0033 94.2733 74.1067 94.07 74.17ZM92.78 73.395C92.78 73.5683 92.845 73.71 92.975 73.82C93.105 73.9267 93.28 73.995 93.5 74.025C93.72 73.995 93.895 73.9267 94.025 73.82C94.155 73.71 94.22 73.5683 94.22 73.395C94.22 73.2117 94.155 73.07 94.025 72.97C93.8983 72.8667 93.7233 72.815 93.5 72.815C93.2767 72.815 93.1 72.8667 92.97 72.97C92.8433 73.07 92.78 73.2117 92.78 73.395ZM93.5 75.62C93.7567 75.62 93.955 75.5683 94.095 75.465C94.235 75.3617 94.305 75.2117 94.305 75.015C94.305 74.8317 94.2317 74.6867 94.085 74.58C93.9417 74.47 93.7467 74.4 93.5 74.37C93.2533 74.4 93.0567 74.47 92.91 74.58C92.7667 74.6867 92.695 74.8317 92.695 75.015C92.695 75.2117 92.765 75.3617 92.905 75.465C93.045 75.5683 93.2433 75.62 93.5 75.62ZM97.7211 72.4C98.1611 72.4 98.4994 72.55 98.7361 72.85C98.9727 73.15 99.0911 73.58 99.0911 74.14C99.0911 74.5367 99.0344 74.8783 98.9211 75.165C98.8111 75.4483 98.6494 75.665 98.4361 75.815C98.2261 75.965 97.9744 76.04 97.6811 76.04C97.4711 76.04 97.2677 76.0033 97.0711 75.93C96.8744 75.8533 96.7027 75.7467 96.5561 75.61L96.7361 75.23C96.9027 75.3667 97.0611 75.4667 97.2111 75.53C97.3644 75.59 97.5161 75.62 97.6661 75.62C97.9561 75.62 98.1794 75.4933 98.3361 75.24C98.4961 74.9833 98.5761 74.62 98.5761 74.15V74.135C98.5027 74.3083 98.3827 74.445 98.2161 74.545C98.0527 74.645 97.8644 74.695 97.6511 74.695C97.4377 74.695 97.2477 74.6483 97.0811 74.555C96.9144 74.4583 96.7844 74.325 96.6911 74.155C96.5977 73.9817 96.5511 73.7833 96.5511 73.56C96.5511 73.3367 96.6011 73.1383 96.7011 72.965C96.8011 72.7883 96.9394 72.65 97.1161 72.55C97.2961 72.45 97.4977 72.4 97.7211 72.4ZM97.7461 74.275C97.9594 74.275 98.1327 74.2083 98.2661 74.075C98.3994 73.9383 98.4661 73.7633 98.4661 73.55C98.4661 73.3333 98.3994 73.1583 98.2661 73.025C98.1327 72.8883 97.9594 72.82 97.7461 72.82C97.5361 72.82 97.3677 72.8867 97.2411 73.02C97.1144 73.1533 97.0511 73.33 97.0511 73.55C97.0511 73.7667 97.1144 73.9417 97.2411 74.075C97.3711 74.2083 97.5394 74.275 97.7461 74.275ZM103.347 75.575V76H101.267V75.575H102.047V73.055L101.322 73.505V73.03L102.267 72.44H102.567V75.575H103.347ZM106.493 76.04C106.08 76.04 105.765 75.885 105.548 75.575C105.331 75.265 105.223 74.8133 105.223 74.22C105.223 73.6267 105.331 73.175 105.548 72.865C105.765 72.555 106.08 72.4 106.493 72.4C106.906 72.4 107.221 72.555 107.438 72.865C107.655 73.1717 107.763 73.6217 107.763 74.215C107.763 74.8117 107.655 75.265 107.438 75.575C107.221 75.885 106.906 76.04 106.493 76.04ZM106.493 75.625C106.75 75.625 106.938 75.5117 107.058 75.285C107.181 75.055 107.243 74.6983 107.243 74.215C107.243 73.7317 107.183 73.3783 107.063 73.155C106.943 72.9317 106.753 72.82 106.493 72.82C106.236 72.82 106.046 72.9333 105.923 73.16C105.803 73.3833 105.743 73.735 105.743 74.215C105.743 74.6983 105.803 75.055 105.923 75.285C106.046 75.5117 106.236 75.625 106.493 75.625Z" fill="white"/>
<path d="M124.67 73.745C124.893 73.745 125.088 73.7933 125.255 73.89C125.425 73.9833 125.555 74.1167 125.645 74.29C125.738 74.46 125.785 74.6567 125.785 74.88C125.785 75.11 125.733 75.3117 125.63 75.485C125.53 75.6583 125.385 75.7933 125.195 75.89C125.005 75.9867 124.783 76.035 124.53 76.035C124.31 76.035 124.093 75.9967 123.88 75.92C123.667 75.8433 123.49 75.7383 123.35 75.605L123.53 75.225C123.86 75.485 124.195 75.615 124.535 75.615C124.772 75.615 124.955 75.5517 125.085 75.425C125.218 75.295 125.285 75.1167 125.285 74.89C125.285 74.6733 125.218 74.4983 125.085 74.365C124.955 74.2317 124.78 74.165 124.56 74.165C124.24 74.165 123.983 74.2867 123.79 74.53H123.455V72.44H125.635V72.855H123.965V73.985C124.155 73.825 124.39 73.745 124.67 73.745ZM128.721 72.4C129.161 72.4 129.499 72.55 129.736 72.85C129.973 73.15 130.091 73.58 130.091 74.14C130.091 74.5367 130.034 74.8783 129.921 75.165C129.811 75.4483 129.649 75.665 129.436 75.815C129.226 75.965 128.974 76.04 128.681 76.04C128.471 76.04 128.268 76.0033 128.071 75.93C127.874 75.8533 127.703 75.7467 127.556 75.61L127.736 75.23C127.903 75.3667 128.061 75.4667 128.211 75.53C128.364 75.59 128.516 75.62 128.666 75.62C128.956 75.62 129.179 75.4933 129.336 75.24C129.496 74.9833 129.576 74.62 129.576 74.15V74.135C129.503 74.3083 129.383 74.445 129.216 74.545C129.053 74.645 128.864 74.695 128.651 74.695C128.438 74.695 128.248 74.6483 128.081 74.555C127.914 74.4583 127.784 74.325 127.691 74.155C127.598 73.9817 127.551 73.7833 127.551 73.56C127.551 73.3367 127.601 73.1383 127.701 72.965C127.801 72.7883 127.939 72.65 128.116 72.55C128.296 72.45 128.498 72.4 128.721 72.4ZM128.746 74.275C128.959 74.275 129.133 74.2083 129.266 74.075C129.399 73.9383 129.466 73.7633 129.466 73.55C129.466 73.3333 129.399 73.1583 129.266 73.025C129.133 72.8883 128.959 72.82 128.746 72.82C128.536 72.82 128.368 72.8867 128.241 73.02C128.114 73.1533 128.051 73.33 128.051 73.55C128.051 73.7667 128.114 73.9417 128.241 74.075C128.371 74.2083 128.539 74.275 128.746 74.275ZM134.347 75.575V76H132.267V75.575H133.047V73.055L132.322 73.505V73.03L133.267 72.44H133.567V75.575H134.347ZM138.698 72.44V72.825L137.053 76H136.498L138.138 72.865H136.288V72.44H138.698Z" fill="white"/>
<path d="M63.855 75.26H63.33V76H62.82V75.26H61.225V74.875L62.915 72.44H63.33V74.845H63.855V75.26ZM62.82 74.845V73.275L61.73 74.845H62.82ZM67.0011 73.745C67.2244 73.745 67.4194 73.7933 67.5861 73.89C67.7561 73.9833 67.8861 74.1167 67.9761 74.29C68.0694 74.46 68.1161 74.6567 68.1161 74.88C68.1161 75.11 68.0644 75.3117 67.9611 75.485C67.8611 75.6583 67.7161 75.7933 67.5261 75.89C67.3361 75.9867 67.1144 76.035 66.8611 76.035C66.6411 76.035 66.4244 75.9967 66.2111 75.92C65.9977 75.8433 65.8211 75.7383 65.6811 75.605L65.8611 75.225C66.1911 75.485 66.5261 75.615 66.8661 75.615C67.1027 75.615 67.2861 75.5517 67.4161 75.425C67.5494 75.295 67.6161 75.1167 67.6161 74.89C67.6161 74.6733 67.5494 74.4983 67.4161 74.365C67.2861 74.2317 67.1111 74.165 66.8911 74.165C66.5711 74.165 66.3144 74.2867 66.1211 74.53H65.7861V72.44H67.9661V72.855H66.2961V73.985C66.4861 73.825 66.7211 73.745 67.0011 73.745ZM71.3471 73.745C71.5604 73.745 71.7488 73.7933 71.9121 73.89C72.0788 73.9833 72.2088 74.1167 72.3021 74.29C72.3954 74.46 72.4421 74.6567 72.4421 74.88C72.4421 75.1033 72.3921 75.3033 72.2921 75.48C72.1921 75.6533 72.0538 75.79 71.8771 75.89C71.7004 75.99 71.5004 76.04 71.2771 76.04C70.8371 76.04 70.4971 75.89 70.2571 75.59C70.0204 75.29 69.9021 74.86 69.9021 74.3C69.9021 73.9033 69.9571 73.5633 70.0671 73.28C70.1804 72.9933 70.3421 72.775 70.5521 72.625C70.7654 72.475 71.0188 72.4 71.3121 72.4C71.5221 72.4 71.7254 72.4367 71.9221 72.51C72.1221 72.5833 72.2954 72.69 72.4421 72.83L72.2571 73.21C71.9438 72.95 71.6338 72.82 71.3271 72.82C71.0371 72.82 70.8138 72.9483 70.6571 73.205C70.5004 73.4583 70.4221 73.82 70.4221 74.29V74.295C70.4988 74.1217 70.6188 73.9867 70.7821 73.89C70.9488 73.7933 71.1371 73.745 71.3471 73.745ZM71.2521 75.62C71.4588 75.62 71.6254 75.5533 71.7521 75.42C71.8788 75.2867 71.9421 75.11 71.9421 74.89C71.9421 74.6733 71.8788 74.4983 71.7521 74.365C71.6254 74.2317 71.4571 74.165 71.2471 74.165C71.0371 74.165 70.8638 74.2333 70.7271 74.37C70.5938 74.5033 70.5271 74.6767 70.5271 74.89C70.5271 75.1067 70.5938 75.2833 70.7271 75.42C70.8604 75.5533 71.0354 75.62 71.2521 75.62ZM76.6982 72.44V72.825L75.0532 76H74.4982L76.1382 72.865H74.2882V72.44H76.6982Z" fill="white"/>
</svg>
