<svg width="169" height="130" viewBox="0 0 169 130" fill="none" xmlns="http://www.w3.org/2000/svg">
<rect width="169" height="130" fill="white"/>
<path d="M79 125C112.137 125 139 98.1371 139 65C139 31.8629 112.137 5 79 5C45.8629 5 19 31.8629 19 65C19 98.1371 45.8629 125 79 125Z" fill="url(#paint0_linear_20_271)"/>
<path d="M78.9997 124.006C111.588 124.006 138.005 97.588 138.005 65.0002C138.005 32.4123 111.588 5.99463 78.9997 5.99463C46.4118 5.99463 19.9941 32.4123 19.9941 65.0002C19.9941 97.588 46.4118 124.006 78.9997 124.006Z" fill="#4B5FFA"/>
<path d="M78.9998 111.906C104.905 111.906 125.906 90.9053 125.906 64.9998C125.906 39.0943 104.905 18.0938 78.9998 18.0938C53.0943 18.0938 32.0938 39.0943 32.0938 64.9998C32.0938 90.9053 53.0943 111.906 78.9998 111.906Z" fill="white"/>
<path opacity="0.3" d="M80.3258 26.3809H77.6738V67.8173H80.3258V26.3809Z" fill="#535461"/>
<path d="M119.276 63.3428H81.8174V66.6577H119.276V63.3428Z" fill="#17294D"/>
<path d="M78.9521 63.2861L55.3828 50.9434L53.845 53.88L77.4143 66.2227L78.9521 63.2861Z" fill="#17294D"/>
<path d="M79.0007 69.9726C81.7469 69.9726 83.9731 67.7464 83.9731 65.0002C83.9731 62.254 81.7469 60.0278 79.0007 60.0278C76.2545 60.0278 74.0283 62.254 74.0283 65.0002C74.0283 67.7464 76.2545 69.9726 79.0007 69.9726Z" fill="#17294D"/>
<g opacity="0.1">
<path opacity="0.1" d="M35.7373 70.6352C35.7373 44.7291 56.7373 23.7291 82.6434 23.7291C89.9145 23.7227 97.0873 25.4094 103.594 28.6556C110.1 31.9019 115.761 36.6185 120.128 42.4319C112.146 27.9258 96.7318 18.0938 78.9969 18.0938C53.0909 18.0938 32.0909 39.0937 32.0909 64.9998C32.0756 75.1769 35.3855 85.0803 41.5168 93.2031C37.7145 86.2896 35.7261 78.5253 35.7373 70.6352V70.6352Z" fill="#17294D"/>
</g>
<defs>
<linearGradient id="paint0_linear_20_271" x1="79" y1="125" x2="79" y2="5" gradientUnits="userSpaceOnUse">
<stop stop-color="#808080" stop-opacity="0.25"/>
<stop offset="0.54" stop-color="#808080" stop-opacity="0.12"/>
<stop offset="1" stop-color="#808080" stop-opacity="0.1"/>
</linearGradient>
</defs>
</svg>
