<svg width="659" height="321" viewBox="0 0 659 321" fill="none" xmlns="http://www.w3.org/2000/svg">
<path d="M658.5 180V289.5L520.5 278V199L658.5 180Z" fill="#4B5FFA"/>
<path d="M473.502 206L494.502 204.5L494.5 267.5H478.5C464.167 266.5 434.1 264.5 428.5 264.5C422.9 264.5 413.5 270.833 409.5 274C386.167 288.333 339.1 317 337.5 317C335.9 317 327.167 315.667 323 315L309.5 311L291.5 317L274.5 320.5C274.167 321 273.5 320.6 273.5 315C273.5 309.4 279.167 304 282 302L251.5 291C242.333 287.5 223.7 279.4 222.5 275C221 269.5 230 269.5 232 270C233.6 270.4 239.333 272.167 242 273C238.833 271 232 266.5 230 264.5C227.5 262 226.5 260.5 227 257.5C227.4 255.1 234.166 256.167 237.5 257L264 267C258.166 263.333 246.5 255.5 246.5 253.5C246.5 251.5 252.166 251 255 251C260.5 253 271.8 257.1 273 257.5C274.2 257.9 279.5 259.333 282 260C279.5 258.167 274.502 254.4 274.502 254C274.502 253.5 274.002 252 276.502 250.5C278.502 249.3 281.668 250.333 283.002 251L307.002 260C311.835 261 322.402 263.3 326.002 264.5C329.602 265.7 332.835 265 334.002 264.5C337.668 261 348.902 249.5 364.502 231.5C380.102 213.5 404.335 206.667 414.502 205.5H432.502L473.502 206Z" fill="#B28B67"/>
<g style="mix-blend-mode:multiply">
<path d="M332.5 303.5C330.9 303.9 316.5 308.334 309.5 310.5H323.5C326 310.5 329.5 309 330.5 308C331.5 307 335.5 305.5 337 306C338.5 306.5 343 304.5 344 304.5C345 304.5 348 300.5 349.5 299C351 297.5 353 297 354.5 297C356 297 359.5 294.5 360.5 294C361.3 293.6 363.167 289.5 364 287.5C363.833 287 363.2 286.3 362 287.5C360.5 289 346.5 297.5 344 299C341.5 300.5 334.5 303 332.5 303.5Z" fill="#B28B67"/>
</g>
<path d="M520.5 199L494.5 204L495 271L520.5 273.5V199Z" fill="#C2DCFF"/>
<g style="mix-blend-mode:multiply">
<path d="M392 282.5L378.5 292.5L396 282.5L410 273.5L418 268L427.5 264.5H434.5L454.5 266L475 267H495V270.5L520.5 273.5V278.5L579.5 282.5L658.5 290V265.5C656 265.5 649.9 264.9 645.5 262.5C641.1 260.1 632.333 260.5 628.5 261C621.833 266 605.7 274.4 594.5 268C580.5 260 566 260 562 261C558 262 536.5 265.5 534 264.5C531.5 263.5 515.5 261.5 504 261C492.5 260.5 478 263 475 263C472.6 263 460.333 261 454.5 260C446.833 259.5 430.9 258.4 428.5 258C425.5 257.5 415.5 262 413 264.5C411 266.5 398.167 277.334 392 282.5Z" fill="#B28B67"/>
</g>
<g style="mix-blend-mode:multiply">
<path d="M277 317C279.333 314.167 284.7 308.8 287.5 310C291 311.5 292 314.5 291.5 316.5" stroke="#B28B67"/>
</g>
<g style="mix-blend-mode:multiply">
<path d="M244 274C253 277.167 271.8 283.6 275 284C278.2 284.4 292 287.167 298.5 288.5M298.5 288.5C301.774 286.045 306.894 282.101 311 278.699M298.5 288.5L289 299M327.5 266C324.263 266 320.371 268.275 318.474 270.849M318.474 270.849C318.027 271.456 317.691 272.023 317.5 272.5C317.137 273.409 314.42 275.866 311 278.699M318.474 270.849C307.149 267.733 284.3 261.3 283.5 260.5M311 278.699C301 276.632 280.7 272.4 279.5 272C278.3 271.6 270 268.833 266 267.5" stroke="#B28B67" stroke-width="2" stroke-linecap="round"/>
</g>
<g style="mix-blend-mode:multiply">
<path d="M300 297.5C297.2 299.5 287.833 303 283.5 304.5H281.5L289.5 299.5L300 292.5L321 278L334.5 264C345 252.667 368.1 228.1 376.5 220.5C384.9 212.9 405 207.333 414 205.5H441.5L452 206.5C440.833 208.333 416.9 212.2 410.5 213C402.5 214 385 228.5 382 230C379 231.5 352.5 266 351 268C349.5 270 350 267 339 278C328 289 303.5 295 300 297.5Z" fill="#B28B67"/>
</g>
<circle cx="329" cy="173" r="9.5" stroke="#C2DCFF" stroke-width="3"/>
<path fill-rule="evenodd" clip-rule="evenodd" d="M316 183V194.5L325.5 200.5V240L332.5 234.5V200.5L342 195.5V184.5L336.5 180.5L329.5 180L321.5 180.5L316 183ZM326.5 183.5H324.073L325.158 185.671L326.658 188.671L327.073 189.5H328H330H330.927L331.342 188.671L332.842 185.671L333.927 183.5H331.5H326.5Z" fill="#4B5FFA"/>
<g style="mix-blend-mode:multiply">
<path d="M325 189.5C322.6 187.5 322.333 185.667 324 184C324 183.167 324.501 179.5 318.502 182C315.099 183.419 316.333 192.333 316.999 195L325.502 200.5V216.5V225V240C325.502 240 327.5 238.5 328 238C328.5 237.5 329.3 199.8 328.5 197C327.5 193.5 328 192 325 189.5Z" fill="#4B5FFA"/>
</g>
<path d="M247.5 17L173 12.5V65C187.5 64 220.2 62 235 62C253.5 62 258.5 71 259.5 72C260 72.5 266 83 267.5 87.5C269 92 279 110.5 281 114C283 117.5 297.5 131 300 133C302 134.6 312.5 149.333 317.5 156.5C318.333 160.167 320.3 168.1 321.5 170.5C323 173.5 324.5 171.5 326.5 170.5C328.1 169.7 327.833 157.833 327.5 152C326.167 148.5 323.5 140.9 323.5 138.5C331.1 139.3 339.667 133.167 343 130V138.5C339.667 144.667 332.7 157.8 331.5 161C330.3 164.2 333 167.667 334.5 169L356 135.5C355.167 126.667 353.3 107.7 352.5 102.5C351.7 97.3 344.167 87.3333 340.5 83C333 76.6667 314.6 59.4 301 41C287.4 22.6 259.667 17.3333 247.5 17Z" fill="#B28B67"/>
<path d="M172.5 10.5L150.5 8.5V69L172.5 67.5V10.5Z" fill="#C2DCFF"/>
<g style="mix-blend-mode:multiply">
<path d="M314 100.5C306.8 107.7 318.5 130.5 323.5 138.5C332.5 140.5 342.225 130.775 343.5 129.5C344.5 128.5 344.5 127 344 125C343.612 123.448 336.333 111.333 332.5 105.5C329.333 100.833 321.2 93.2999 314 100.5Z" fill="#B28B67"/>
</g>
<g style="mix-blend-mode:multiply">
<path d="M323.002 110C319.802 104 314.335 104.167 312.002 105C310.402 109.8 314.335 120 316.502 124.5C318.502 125.167 323.402 126.7 327.002 127.5C331.502 128.5 330.45 123.894 330.002 123C329.5 122 327.002 117.5 323.002 110Z" fill="#B28B67"/>
</g>
<path d="M0 78V0L150.5 8.5V69L0 78Z" fill="#4B5FFA"/>
<g style="mix-blend-mode:multiply">
<path d="M0 60.9998V78.4998L12 77.4998L69.5 73.9998L102.5 71.4998L121.5 70.4998L142 69.9998L160.5 68.4998L172.5 67.4998L173 64.9998L182.5 64.4998L189 63.9998H192L197 63.4998L202.5 62.9998H209.5L214.5 62.4998H218.5L223 61.9998H227H229.5H233H238L242 62.4998L245 62.9998L248.5 63.9998L252 65.4998L254.5 66.9998L257 68.9998L259.5 71.9998L261.5 75.4998L263.5 78.9998L265.5 82.4998L267 85.9998L269.5 91.9998L273.5 99.9998L280.5 113L276 98.4998C274.5 92.1664 270.7 78.5998 269.5 74.9998C268 70.4998 264.5 63.4998 259 57.9998C253.5 52.4998 240 54.4998 238 55.4998C236.4 56.2998 219 59.4998 210.5 60.9998C188.667 61.3331 144.3 61.7998 141.5 60.9998C138 59.9998 128.5 59.4998 125 60.9998C121.5 62.4998 114 61.9998 110 60.9998C106 59.9998 92 58.4998 87.5 61.9998C83 65.4998 68 63.9998 65.5 63.4998C63 62.9998 51.5 56.9998 42.5 55.4998C33.5 53.9998 23.5 58.9998 17.5 60.9998C12.7 62.5998 3.83333 61.6665 0 60.9998Z" fill="#B28B67"/>
</g>
</svg>
