<svg width="169" height="130" viewBox="0 0 169 130" fill="none" xmlns="http://www.w3.org/2000/svg">
<rect width="169" height="130" fill="white"/>
<path d="M54.7257 70.5344C47.9966 70.5344 42.6933 67.871 38.816 62.5443C34.9387 57.2176 33 50.7647 33 43.1856C33 35.5554 34.8749 29.1156 38.6247 23.8662C42.3745 18.6168 47.6639 15.9948 54.493 16C61.7349 16 67.1913 18.7656 70.8622 24.2969C74.5331 29.8281 76.3692 36.2299 76.3706 43.5022C76.3706 50.7221 74.4707 57.0334 70.6709 62.4362C66.8711 67.8389 61.5561 70.5383 54.7257 70.5344ZM54.9229 64.5423C59.3498 64.5423 62.6585 62.6184 64.849 58.7705C67.0394 54.9226 68.1347 50.0718 68.1347 44.218C68.1347 37.7022 67.0138 32.3669 64.7721 28.2123C62.5303 24.0576 59.0921 21.9796 54.4575 21.9783C45.6483 21.9783 41.2438 28.9556 41.2438 42.9103C41.2438 57.333 45.8022 64.5436 54.919 64.5423H54.9229ZM57.1397 121.924H47.4069L111.125 17.0678H120.674L57.1397 121.924ZM113.509 123C106.679 123 101.354 120.312 97.5342 114.937C93.7147 109.562 91.7971 103.108 91.7813 95.5764C91.7813 87.9974 93.643 81.5831 97.3666 76.3338C101.09 71.0844 106.393 68.4623 113.274 68.4676C120.465 68.4676 125.883 71.2332 129.529 76.7644C133.175 82.2957 134.999 88.6968 135 95.9678C135 103.14 133.113 109.44 129.338 114.866C125.563 120.293 120.285 123.004 113.505 123H113.509ZM113.623 116.855C118.029 116.855 121.32 114.963 123.496 111.181C125.672 107.399 126.76 102.568 126.76 96.6876C126.76 90.3946 125.659 85.117 123.457 80.8549C121.254 76.5927 117.822 74.4583 113.16 74.4518C104.299 74.4518 99.8693 81.4291 99.8693 95.3837C99.8693 109.699 104.453 116.856 113.619 116.855H113.623Z" fill="#4B5FFA"/>
</svg>
