<svg width="170" height="139" viewBox="0 0 170 139" fill="none" xmlns="http://www.w3.org/2000/svg">
<circle cx="32.5" cy="7.5" r="1.5" fill="#FFB800"/>
<circle cx="62.5" cy="7.5" r="1.5" fill="#FFB800"/>
<circle cx="32.5" cy="43.5" r="1.5" fill="#FFB800"/>
<circle cx="62.5" cy="43.5" r="1.5" fill="#FFB800"/>
<circle cx="26.5" cy="7.5" r="1.5" fill="#FFB800"/>
<circle cx="56.5" cy="7.5" r="1.5" fill="#FFB800"/>
<circle cx="26.5" cy="43.5" r="1.5" fill="#FFB800"/>
<circle cx="56.5" cy="43.5" r="1.5" fill="#FFB800"/>
<circle cx="20.5" cy="7.5" r="1.5" fill="#FFB800"/>
<circle cx="50.5" cy="7.5" r="1.5" fill="#FFB800"/>
<circle cx="20.5" cy="43.5" r="1.5" fill="#FFB800"/>
<circle cx="50.5" cy="43.5" r="1.5" fill="#FFB800"/>
<circle cx="14.5" cy="7.5" r="1.5" fill="#FFB800"/>
<circle cx="44.5" cy="7.5" r="1.5" fill="#FFB800"/>
<circle cx="14.5" cy="43.5" r="1.5" fill="#FFB800"/>
<circle cx="44.5" cy="43.5" r="1.5" fill="#FFB800"/>
<circle cx="8.5" cy="7.5" r="1.5" fill="#FFB800"/>
<circle cx="38.5" cy="7.5" r="1.5" fill="#FFB800"/>
<circle cx="8.5" cy="43.5" r="1.5" fill="#FFB800"/>
<circle cx="38.5" cy="43.5" r="1.5" fill="#FFB800"/>
<circle cx="26.5" cy="13.5" r="1.5" fill="#FFB800"/>
<circle cx="56.5" cy="13.5" r="1.5" fill="#FFB800"/>
<circle cx="26.5" cy="49.5" r="1.5" fill="#FFB800"/>
<circle cx="56.5" cy="49.5" r="1.5" fill="#FFB800"/>
<circle cx="26.5" cy="25.5" r="1.5" fill="#FFB800"/>
<circle cx="56.5" cy="25.5" r="1.5" fill="#FFB800"/>
<circle cx="26.5" cy="61.5" r="1.5" fill="#FFB800"/>
<circle cx="56.5" cy="61.5" r="1.5" fill="#FFB800"/>
<circle cx="26.5" cy="19.5" r="1.5" fill="#FFB800"/>
<circle cx="56.5" cy="19.5" r="1.5" fill="#FFB800"/>
<circle cx="26.5" cy="55.5" r="1.5" fill="#FFB800"/>
<circle cx="56.5" cy="55.5" r="1.5" fill="#FFB800"/>
<circle cx="26.5" cy="31.5" r="1.5" fill="#FFB800"/>
<circle cx="56.5" cy="31.5" r="1.5" fill="#FFB800"/>
<circle cx="26.5" cy="67.5" r="1.5" fill="#FFB800"/>
<circle cx="56.5" cy="67.5" r="1.5" fill="#FFB800"/>
<circle cx="20.5" cy="13.5" r="1.5" fill="#FFB800"/>
<circle cx="50.5" cy="13.5" r="1.5" fill="#FFB800"/>
<circle cx="20.5" cy="49.5" r="1.5" fill="#FFB800"/>
<circle cx="50.5" cy="49.5" r="1.5" fill="#FFB800"/>
<circle cx="20.5" cy="25.5" r="1.5" fill="#FFB800"/>
<circle cx="50.5" cy="25.5" r="1.5" fill="#FFB800"/>
<circle cx="20.5" cy="61.5" r="1.5" fill="#FFB800"/>
<circle cx="50.5" cy="61.5" r="1.5" fill="#FFB800"/>
<circle cx="20.5" cy="19.5" r="1.5" fill="#FFB800"/>
<circle cx="50.5" cy="19.5" r="1.5" fill="#FFB800"/>
<circle cx="20.5" cy="55.5" r="1.5" fill="#FFB800"/>
<circle cx="50.5" cy="55.5" r="1.5" fill="#FFB800"/>
<circle cx="20.5" cy="31.5" r="1.5" fill="#FFB800"/>
<circle cx="50.5" cy="31.5" r="1.5" fill="#FFB800"/>
<circle cx="20.5" cy="67.5" r="1.5" fill="#FFB800"/>
<circle cx="50.5" cy="67.5" r="1.5" fill="#FFB800"/>
<circle cx="14.5" cy="13.5" r="1.5" fill="#FFB800"/>
<circle cx="44.5" cy="13.5" r="1.5" fill="#FFB800"/>
<circle cx="14.5" cy="49.5" r="1.5" fill="#FFB800"/>
<circle cx="44.5" cy="49.5" r="1.5" fill="#FFB800"/>
<circle cx="14.5" cy="25.5" r="1.5" fill="#FFB800"/>
<circle cx="44.5" cy="25.5" r="1.5" fill="#FFB800"/>
<circle cx="14.5" cy="61.5" r="1.5" fill="#FFB800"/>
<circle cx="44.5" cy="61.5" r="1.5" fill="#FFB800"/>
<circle cx="14.5" cy="19.5" r="1.5" fill="#FFB800"/>
<circle cx="44.5" cy="19.5" r="1.5" fill="#FFB800"/>
<circle cx="14.5" cy="55.5" r="1.5" fill="#FFB800"/>
<circle cx="44.5" cy="55.5" r="1.5" fill="#FFB800"/>
<circle cx="14.5" cy="31.5" r="1.5" fill="#FFB800"/>
<circle cx="44.5" cy="31.5" r="1.5" fill="#FFB800"/>
<circle cx="14.5" cy="67.5" r="1.5" fill="#FFB800"/>
<circle cx="44.5" cy="67.5" r="1.5" fill="#FFB800"/>
<circle cx="8.5" cy="13.5" r="1.5" fill="#FFB800"/>
<circle cx="38.5" cy="13.5" r="1.5" fill="#FFB800"/>
<circle cx="8.5" cy="49.5" r="1.5" fill="#FFB800"/>
<circle cx="38.5" cy="49.5" r="1.5" fill="#FFB800"/>
<circle cx="8.5" cy="25.5" r="1.5" fill="#FFB800"/>
<circle cx="38.5" cy="25.5" r="1.5" fill="#FFB800"/>
<circle cx="8.5" cy="61.5" r="1.5" fill="#FFB800"/>
<circle cx="38.5" cy="61.5" r="1.5" fill="#FFB800"/>
<circle cx="8.5" cy="19.5" r="1.5" fill="#FFB800"/>
<circle cx="38.5" cy="19.5" r="1.5" fill="#FFB800"/>
<circle cx="8.5" cy="55.5" r="1.5" fill="#FFB800"/>
<circle cx="38.5" cy="55.5" r="1.5" fill="#FFB800"/>
<circle cx="8.5" cy="31.5" r="1.5" fill="#FFB800"/>
<circle cx="38.5" cy="31.5" r="1.5" fill="#FFB800"/>
<circle cx="8.5" cy="67.5" r="1.5" fill="#FFB800"/>
<circle cx="38.5" cy="67.5" r="1.5" fill="#FFB800"/>
<circle cx="26.5" cy="37.5" r="1.5" fill="#FFB800"/>
<circle cx="56.5" cy="37.5" r="1.5" fill="#FFB800"/>
<circle cx="26.5" cy="73.5" r="1.5" fill="#FFB800"/>
<circle cx="56.5" cy="73.5" r="1.5" fill="#FFB800"/>
<circle cx="20.5" cy="37.5" r="1.5" fill="#FFB800"/>
<circle cx="50.5" cy="37.5" r="1.5" fill="#FFB800"/>
<circle cx="20.5" cy="73.5" r="1.5" fill="#FFB800"/>
<circle cx="50.5" cy="73.5" r="1.5" fill="#FFB800"/>
<circle cx="14.5" cy="37.5" r="1.5" fill="#FFB800"/>
<circle cx="44.5" cy="37.5" r="1.5" fill="#FFB800"/>
<circle cx="14.5" cy="73.5" r="1.5" fill="#FFB800"/>
<circle cx="44.5" cy="73.5" r="1.5" fill="#FFB800"/>
<circle cx="8.5" cy="37.5" r="1.5" fill="#FFB800"/>
<circle cx="38.5" cy="37.5" r="1.5" fill="#FFB800"/>
<circle cx="8.5" cy="73.5" r="1.5" fill="#FFB800"/>
<circle cx="38.5" cy="73.5" r="1.5" fill="#FFB800"/>
<circle cx="32.5" cy="37.5" r="1.5" fill="#FFB800"/>
<circle cx="62.5" cy="37.5" r="1.5" fill="#FFB800"/>
<circle cx="32.5" cy="73.5" r="1.5" fill="#FFB800"/>
<circle cx="62.5" cy="73.5" r="1.5" fill="#FFB800"/>
<circle cx="32.5" cy="13.5" r="1.5" fill="#FFB800"/>
<circle cx="62.5" cy="13.5" r="1.5" fill="#FFB800"/>
<circle cx="32.5" cy="49.5" r="1.5" fill="#FFB800"/>
<circle cx="62.5" cy="49.5" r="1.5" fill="#FFB800"/>
<circle cx="32.5" cy="25.5" r="1.5" fill="#FFB800"/>
<circle cx="62.5" cy="25.5" r="1.5" fill="#FFB800"/>
<circle cx="32.5" cy="61.5" r="1.5" fill="#FFB800"/>
<circle cx="62.5" cy="61.5" r="1.5" fill="#FFB800"/>
<circle cx="32.5" cy="19.5" r="1.5" fill="#FFB800"/>
<circle cx="62.5" cy="19.5" r="1.5" fill="#FFB800"/>
<circle cx="32.5" cy="55.5" r="1.5" fill="#FFB800"/>
<circle cx="62.5" cy="55.5" r="1.5" fill="#FFB800"/>
<circle cx="32.5" cy="31.5" r="1.5" fill="#FFB800"/>
<circle cx="62.5" cy="31.5" r="1.5" fill="#FFB800"/>
<circle cx="32.5" cy="67.5" r="1.5" fill="#FFB800"/>
<circle cx="62.5" cy="67.5" r="1.5" fill="#FFB800"/>
<g filter="url(#filter0_d_725_9340)">
<rect x="10" y="5" width="107" height="36" rx="5" fill="#4B5FFA"/>
<rect x="10.5" y="5.5" width="106" height="35" rx="4.5" stroke="#EBF0FF"/>
</g>
<g filter="url(#filter1_d_725_9340)">
<rect x="49" y="54" width="111" height="36" rx="5" fill="#F5FBFF"/>
</g>
<rect x="10.5" y="103.5" width="147" height="35" rx="4.5" fill="#4B5FFA" stroke="#EBF0FF"/>
<path d="M19.83 26V18.95H20.87V26H19.83ZM22.8053 21.36L22.3653 21.02C22.5586 20.82 22.6886 20.6333 22.7553 20.46C22.8286 20.28 22.8653 20.1 22.8653 19.92L23.1353 20.13H22.2953V18.95H23.4853V19.76C23.4853 20.06 23.4353 20.34 23.3353 20.6C23.2353 20.8533 23.0586 21.1067 22.8053 21.36ZM24.8084 26V22.17C24.8084 21.9767 24.7984 21.78 24.7784 21.58C24.765 21.3733 24.7484 21.1667 24.7284 20.96H25.7084L25.7984 22.02H25.6784C25.8184 21.6533 26.0317 21.37 26.3184 21.17C26.6117 20.97 26.9617 20.87 27.3684 20.87C27.7817 20.87 28.1184 20.97 28.3784 21.17C28.645 21.3633 28.8284 21.6633 28.9284 22.07H28.7684C28.9017 21.7033 29.1284 21.4133 29.4484 21.2C29.7684 20.98 30.1384 20.87 30.5584 20.87C31.1184 20.87 31.5384 21.0333 31.8184 21.36C32.0984 21.6867 32.2384 22.1933 32.2384 22.88V26H31.2284V22.93C31.2284 22.49 31.1517 22.1733 30.9984 21.98C30.8517 21.78 30.6117 21.68 30.2784 21.68C29.8917 21.68 29.585 21.8133 29.3584 22.08C29.1317 22.3467 29.0184 22.7067 29.0184 23.16V26H28.0084V22.93C28.0084 22.49 27.9317 22.1733 27.7784 21.98C27.6317 21.78 27.3917 21.68 27.0584 21.68C26.6717 21.68 26.3684 21.8133 26.1484 22.08C25.9284 22.3467 25.8184 22.7067 25.8184 23.16V26H24.8084ZM38.2813 26.09C37.8347 26.09 37.4447 25.9867 37.1113 25.78C36.778 25.5733 36.518 25.2733 36.3313 24.88C36.1513 24.4867 36.0613 24.02 36.0613 23.48C36.0613 22.9333 36.1513 22.4667 36.3313 22.08C36.518 21.6933 36.778 21.3967 37.1113 21.19C37.4447 20.9767 37.8347 20.87 38.2813 20.87C38.7213 20.87 39.1047 20.98 39.4313 21.2C39.758 21.42 39.9747 21.72 40.0813 22.1H39.9713L40.0713 20.96H41.0513C41.0313 21.1667 41.0113 21.3733 40.9913 21.58C40.978 21.78 40.9713 21.9767 40.9713 22.17V26H39.9613V24.88H40.0713C39.9647 25.2533 39.7447 25.55 39.4113 25.77C39.0847 25.9833 38.708 26.09 38.2813 26.09ZM38.5313 25.3C38.9647 25.3 39.3113 25.1467 39.5713 24.84C39.838 24.5333 39.9713 24.08 39.9713 23.48C39.9713 22.88 39.838 22.43 39.5713 22.13C39.3113 21.8233 38.9647 21.67 38.5313 21.67C38.0913 21.67 37.738 21.8233 37.4713 22.13C37.2113 22.43 37.0813 22.88 37.0813 23.48C37.0813 24.08 37.2113 24.5333 37.4713 24.84C37.7313 25.1467 38.0847 25.3 38.5313 25.3ZM45.2011 26V18.95H46.2411V25.11H49.7011V26H45.2011ZM52.5587 26.09C52.112 26.09 51.722 25.9867 51.3887 25.78C51.0553 25.5733 50.7953 25.2733 50.6087 24.88C50.4287 24.4867 50.3387 24.02 50.3387 23.48C50.3387 22.9333 50.4287 22.4667 50.6087 22.08C50.7953 21.6933 51.0553 21.3967 51.3887 21.19C51.722 20.9767 52.112 20.87 52.5587 20.87C52.9987 20.87 53.382 20.98 53.7087 21.2C54.0353 21.42 54.252 21.72 54.3587 22.1H54.2487L54.3487 20.96H55.3287C55.3087 21.1667 55.2887 21.3733 55.2687 21.58C55.2553 21.78 55.2487 21.9767 55.2487 22.17V26H54.2387V24.88H54.3487C54.242 25.2533 54.022 25.55 53.6887 25.77C53.362 25.9833 52.9853 26.09 52.5587 26.09ZM52.8087 25.3C53.242 25.3 53.5887 25.1467 53.8487 24.84C54.1153 24.5333 54.2487 24.08 54.2487 23.48C54.2487 22.88 54.1153 22.43 53.8487 22.13C53.5887 21.8233 53.242 21.67 52.8087 21.67C52.3687 21.67 52.0153 21.8233 51.7487 22.13C51.4887 22.43 51.3587 22.88 51.3587 23.48C51.3587 24.08 51.4887 24.5333 51.7487 24.84C52.0087 25.1467 52.362 25.3 52.8087 25.3ZM56.7224 26V22.17C56.7224 21.9767 56.7124 21.78 56.6924 21.58C56.6791 21.3733 56.6624 21.1667 56.6424 20.96H57.6224L57.7124 22.02H57.5924C57.7458 21.6467 57.9824 21.3633 58.3024 21.17C58.6224 20.97 58.9924 20.87 59.4124 20.87C60.0058 20.87 60.4524 21.0333 60.7524 21.36C61.0591 21.6867 61.2124 22.1933 61.2124 22.88V26H60.2024V22.94C60.2024 22.4933 60.1124 22.1733 59.9324 21.98C59.7591 21.78 59.4924 21.68 59.1324 21.68C58.7058 21.68 58.3658 21.8133 58.1124 22.08C57.8591 22.34 57.7324 22.6933 57.7324 23.14V26H56.7224ZM64.5802 26.09C64.1402 26.09 63.7502 25.9867 63.4102 25.78C63.0768 25.5733 62.8168 25.2733 62.6302 24.88C62.4502 24.4867 62.3602 24.02 62.3602 23.48C62.3602 22.9333 62.4502 22.4667 62.6302 22.08C62.8168 21.6933 63.0768 21.3967 63.4102 21.19C63.7502 20.9767 64.1402 20.87 64.5802 20.87C65.0135 20.87 65.3935 20.98 65.7202 21.2C66.0535 21.4133 66.2735 21.7067 66.3802 22.08H66.2602V18.64H67.2702V26H66.2702V24.86H66.3902C66.2768 25.24 66.0568 25.54 65.7302 25.76C65.4035 25.98 65.0202 26.09 64.5802 26.09ZM64.8302 25.3C65.2635 25.3 65.6135 25.1467 65.8802 24.84C66.1468 24.5333 66.2802 24.08 66.2802 23.48C66.2802 22.88 66.1468 22.43 65.8802 22.13C65.6135 21.8233 65.2635 21.67 64.8302 21.67C64.3902 21.67 64.0368 21.8233 63.7702 22.13C63.5102 22.43 63.3802 22.88 63.3802 23.48C63.3802 24.08 63.5102 24.5333 63.7702 24.84C64.0368 25.1467 64.3902 25.3 64.8302 25.3ZM68.7439 26V18.64H69.7539V26H68.7439ZM73.3941 26.09C72.8941 26.09 72.4608 25.9867 72.0941 25.78C71.7275 25.5667 71.4441 25.2667 71.2441 24.88C71.0441 24.4867 70.9441 24.02 70.9441 23.48C70.9441 22.94 71.0441 22.4767 71.2441 22.09C71.4441 21.6967 71.7275 21.3967 72.0941 21.19C72.4608 20.9767 72.8941 20.87 73.3941 20.87C73.8941 20.87 74.3275 20.9767 74.6941 21.19C75.0675 21.3967 75.3541 21.6967 75.5541 22.09C75.7608 22.4767 75.8641 22.94 75.8641 23.48C75.8641 24.02 75.7608 24.4867 75.5541 24.88C75.3541 25.2667 75.0675 25.5667 74.6941 25.78C74.3275 25.9867 73.8941 26.09 73.3941 26.09ZM73.3941 25.3C73.8341 25.3 74.1841 25.1467 74.4441 24.84C74.7041 24.5333 74.8341 24.08 74.8341 23.48C74.8341 22.88 74.7041 22.43 74.4441 22.13C74.1841 21.8233 73.8341 21.67 73.3941 21.67C72.9608 21.67 72.6141 21.8233 72.3541 22.13C72.0941 22.43 71.9641 22.88 71.9641 23.48C71.9641 24.08 72.0908 24.5333 72.3441 24.84C72.6041 25.1467 72.9541 25.3 73.3941 25.3ZM77.0247 26V22.21C77.0247 22.0033 77.018 21.7967 77.0047 21.59C76.998 21.3767 76.9847 21.1667 76.9647 20.96H77.9447L78.0547 22.26H77.8947C77.9614 21.9467 78.0747 21.6867 78.2347 21.48C78.3947 21.2733 78.588 21.12 78.8147 21.02C79.048 20.92 79.2914 20.87 79.5447 20.87C79.6514 20.87 79.7414 20.8767 79.8147 20.89C79.888 20.8967 79.9614 20.91 80.0347 20.93L80.0247 21.83C79.9114 21.7833 79.8114 21.7567 79.7247 21.75C79.6447 21.7367 79.5447 21.73 79.4247 21.73C79.1314 21.73 78.8814 21.7967 78.6747 21.93C78.468 22.0567 78.3114 22.23 78.2047 22.45C78.098 22.67 78.0447 22.9067 78.0447 23.16V26H77.0247ZM82.6759 26.09C82.2359 26.09 81.8459 25.9867 81.5059 25.78C81.1725 25.5733 80.9125 25.2733 80.7259 24.88C80.5459 24.4867 80.4559 24.02 80.4559 23.48C80.4559 22.9333 80.5459 22.4667 80.7259 22.08C80.9125 21.6933 81.1725 21.3967 81.5059 21.19C81.8459 20.9767 82.2359 20.87 82.6759 20.87C83.1092 20.87 83.4892 20.98 83.8159 21.2C84.1492 21.4133 84.3692 21.7067 84.4759 22.08H84.3559V18.64H85.3659V26H84.3659V24.86H84.4859C84.3725 25.24 84.1525 25.54 83.8259 25.76C83.4992 25.98 83.1159 26.09 82.6759 26.09ZM82.9259 25.3C83.3592 25.3 83.7092 25.1467 83.9759 24.84C84.2425 24.5333 84.3759 24.08 84.3759 23.48C84.3759 22.88 84.2425 22.43 83.9759 22.13C83.7092 21.8233 83.3592 21.67 82.9259 21.67C82.4859 21.67 82.1325 21.8233 81.8659 22.13C81.6059 22.43 81.4759 22.88 81.4759 23.48C81.4759 24.08 81.6059 24.5333 81.8659 24.84C82.1325 25.1467 82.4859 25.3 82.9259 25.3Z" fill="white"/>
<path d="M57.83 66.88H58.86V74H57.83V66.88ZM61.4855 66.88V67.7C61.4855 68.0133 61.4322 68.2967 61.3255 68.55C61.2189 68.8033 61.0389 69.0567 60.7855 69.31L60.3555 68.97C60.6355 68.6633 60.7955 68.3667 60.8355 68.08H60.2855V66.88H61.4855ZM68.5779 68.84C69.6979 68.84 70.2579 69.5133 70.2579 70.86V74H69.2479V70.91C69.2479 70.4767 69.1712 70.16 69.0179 69.96C68.8712 69.76 68.6312 69.66 68.2979 69.66C67.9112 69.66 67.6046 69.7933 67.3779 70.06C67.1579 70.3267 67.0479 70.69 67.0479 71.15V74H66.0379V70.91C66.0379 70.4767 65.9612 70.16 65.8079 69.96C65.6612 69.76 65.4212 69.66 65.0879 69.66C64.7012 69.66 64.3946 69.7933 64.1679 70.06C63.9412 70.3267 63.8279 70.69 63.8279 71.15V74H62.8279V70.38C62.8279 69.8533 62.8012 69.38 62.7479 68.96H63.6879L63.7779 69.8C63.9246 69.4933 64.1346 69.2567 64.4079 69.09C64.6812 68.9233 65.0012 68.84 65.3679 68.84C66.1479 68.84 66.6579 69.1633 66.8979 69.81C67.0512 69.51 67.2746 69.2733 67.5679 69.1C67.8679 68.9267 68.2046 68.84 68.5779 68.84ZM78.9809 68.96V74H77.9809V73.14C77.8342 73.44 77.6142 73.67 77.3209 73.83C77.0342 73.99 76.6975 74.07 76.3109 74.07C75.8642 74.07 75.4709 73.9633 75.1309 73.75C74.7975 73.5367 74.5375 73.2367 74.3509 72.85C74.1642 72.4567 74.0709 72 74.0709 71.48C74.0709 70.96 74.1642 70.5 74.3509 70.1C74.5442 69.7 74.8109 69.39 75.1509 69.17C75.4909 68.95 75.8775 68.84 76.3109 68.84C76.6975 68.84 77.0342 68.9233 77.3209 69.09C77.6075 69.25 77.8275 69.48 77.9809 69.78V68.96H78.9809ZM76.5509 73.27C77.0042 73.27 77.3542 73.1133 77.6009 72.8C77.8542 72.48 77.9809 72.0333 77.9809 71.46C77.9809 70.88 77.8542 70.4333 77.6009 70.12C77.3542 69.8067 77.0009 69.65 76.5409 69.65C76.0875 69.65 75.7309 69.8133 75.4709 70.14C75.2175 70.46 75.0909 70.9067 75.0909 71.48C75.0909 72.0467 75.2175 72.4867 75.4709 72.8C75.7309 73.1133 76.0909 73.27 76.5509 73.27ZM83.1446 68.84C84.3513 68.84 84.9546 69.5133 84.9546 70.86V74H83.9446V70.92C83.9446 70.48 83.8579 70.16 83.6846 69.96C83.5179 69.76 83.2479 69.66 82.8746 69.66C82.4479 69.66 82.1046 69.7933 81.8446 70.06C81.5913 70.3267 81.4646 70.6833 81.4646 71.13V74H80.4646V70.38C80.4646 69.8533 80.4379 69.38 80.3846 68.96H81.3246L81.4146 69.83C81.5746 69.51 81.8046 69.2667 82.1046 69.1C82.4113 68.9267 82.7579 68.84 83.1446 68.84ZM93.8284 72.24H90.2284L89.4684 74H88.4184L91.5884 66.88H92.4584L95.6384 74H94.5884L93.8284 72.24ZM93.4784 71.42L92.0284 68.03L90.5784 71.42H93.4784ZM101.12 68.96V73.91C101.12 74.6767 100.917 75.2533 100.51 75.64C100.11 76.0333 99.5138 76.23 98.7205 76.23C97.9538 76.23 97.2838 76.0633 96.7105 75.73L96.8805 74.94C97.1938 75.1067 97.4938 75.23 97.7805 75.31C98.0738 75.39 98.3838 75.43 98.7105 75.43C99.6505 75.43 100.12 74.95 100.12 73.99V72.9C99.9671 73.1933 99.7438 73.4267 99.4505 73.6C99.1571 73.7667 98.8171 73.85 98.4305 73.85C97.9905 73.85 97.5971 73.7467 97.2505 73.54C96.9105 73.3333 96.6438 73.04 96.4505 72.66C96.2638 72.28 96.1705 71.8433 96.1705 71.35C96.1705 70.8567 96.2638 70.42 96.4505 70.04C96.6438 69.66 96.9105 69.3667 97.2505 69.16C97.5971 68.9467 97.9905 68.84 98.4305 68.84C98.8171 68.84 99.1571 68.9233 99.4505 69.09C99.7438 69.25 99.9671 69.48 100.12 69.78V68.96H101.12ZM98.6605 73.04C99.1138 73.04 99.4705 72.89 99.7305 72.59C99.9905 72.29 100.12 71.8767 100.12 71.35C100.12 70.8233 99.9905 70.41 99.7305 70.11C99.4771 69.8033 99.1205 69.65 98.6605 69.65C98.2071 69.65 97.8471 69.8033 97.5805 70.11C97.3205 70.41 97.1905 70.8233 97.1905 71.35C97.1905 71.87 97.3205 72.2833 97.5805 72.59C97.8471 72.89 98.2071 73.04 98.6605 73.04ZM106.903 71.5H103.303C103.337 72.68 103.873 73.27 104.913 73.27C105.493 73.27 106.023 73.08 106.503 72.7L106.813 73.42C106.587 73.62 106.297 73.78 105.943 73.9C105.597 74.0133 105.247 74.07 104.893 74.07C104.087 74.07 103.453 73.84 102.993 73.38C102.533 72.9133 102.303 72.2767 102.303 71.47C102.303 70.9567 102.403 70.5 102.603 70.1C102.81 69.7 103.097 69.39 103.463 69.17C103.83 68.95 104.247 68.84 104.713 68.84C105.393 68.84 105.927 69.06 106.313 69.5C106.707 69.94 106.903 70.55 106.903 71.33V71.5ZM104.733 69.59C104.353 69.59 104.043 69.7033 103.803 69.93C103.563 70.1567 103.41 70.48 103.343 70.9H106.013C105.973 70.4733 105.843 70.15 105.623 69.93C105.403 69.7033 105.107 69.59 104.733 69.59ZM110.742 68.84C111.949 68.84 112.552 69.5133 112.552 70.86V74H111.542V70.92C111.542 70.48 111.456 70.16 111.282 69.96C111.116 69.76 110.846 69.66 110.472 69.66C110.046 69.66 109.702 69.7933 109.442 70.06C109.189 70.3267 109.062 70.6833 109.062 71.13V74H108.062V70.38C108.062 69.8533 108.036 69.38 107.982 68.96H108.922L109.012 69.83C109.172 69.51 109.402 69.2667 109.702 69.1C110.009 68.9267 110.356 68.84 110.742 68.84ZM115.3 69.74V72.27C115.3 72.6167 115.373 72.8633 115.52 73.01C115.673 73.15 115.883 73.22 116.15 73.22C116.323 73.22 116.5 73.1933 116.68 73.14V73.96C116.46 74.0333 116.21 74.07 115.93 74.07C115.41 74.07 115.007 73.9233 114.72 73.63C114.433 73.3367 114.29 72.91 114.29 72.35V69.74H113.31V68.96H114.29V67.7L115.3 67.35V68.96H116.69V69.74H115.3Z" fill="#4B5FFA"/>
<path d="M17.83 123V115.95H18.87V123H17.83ZM20.8053 118.36L20.3653 118.02C20.5586 117.82 20.6886 117.633 20.7553 117.46C20.8286 117.28 20.8653 117.1 20.8653 116.92L21.1353 117.13H20.2953V115.95H21.4853V116.76C21.4853 117.06 21.4353 117.34 21.3353 117.6C21.2353 117.853 21.0586 118.107 20.8053 118.36ZM22.8084 123V119.17C22.8084 118.977 22.7984 118.78 22.7784 118.58C22.765 118.373 22.7484 118.167 22.7284 117.96H23.7084L23.7984 119.02H23.6784C23.8184 118.653 24.0317 118.37 24.3184 118.17C24.6117 117.97 24.9617 117.87 25.3684 117.87C25.7817 117.87 26.1184 117.97 26.3784 118.17C26.645 118.363 26.8284 118.663 26.9284 119.07H26.7684C26.9017 118.703 27.1284 118.413 27.4484 118.2C27.7684 117.98 28.1384 117.87 28.5584 117.87C29.1184 117.87 29.5384 118.033 29.8184 118.36C30.0984 118.687 30.2384 119.193 30.2384 119.88V123H29.2284V119.93C29.2284 119.49 29.1517 119.173 28.9984 118.98C28.8517 118.78 28.6117 118.68 28.2784 118.68C27.8917 118.68 27.585 118.813 27.3584 119.08C27.1317 119.347 27.0184 119.707 27.0184 120.16V123H26.0084V119.93C26.0084 119.49 25.9317 119.173 25.7784 118.98C25.6317 118.78 25.3917 118.68 25.0584 118.68C24.6717 118.68 24.3684 118.813 24.1484 119.08C23.9284 119.347 23.8184 119.707 23.8184 120.16V123H22.8084ZM36.2813 123.09C35.8347 123.09 35.4447 122.987 35.1113 122.78C34.778 122.573 34.518 122.273 34.3313 121.88C34.1513 121.487 34.0613 121.02 34.0613 120.48C34.0613 119.933 34.1513 119.467 34.3313 119.08C34.518 118.693 34.778 118.397 35.1113 118.19C35.4447 117.977 35.8347 117.87 36.2813 117.87C36.7213 117.87 37.1047 117.98 37.4313 118.2C37.758 118.42 37.9747 118.72 38.0813 119.1H37.9713L38.0713 117.96H39.0513C39.0313 118.167 39.0113 118.373 38.9913 118.58C38.978 118.78 38.9713 118.977 38.9713 119.17V123H37.9613V121.88H38.0713C37.9647 122.253 37.7447 122.55 37.4113 122.77C37.0847 122.983 36.708 123.09 36.2813 123.09ZM36.5313 122.3C36.9647 122.3 37.3113 122.147 37.5713 121.84C37.838 121.533 37.9713 121.08 37.9713 120.48C37.9713 119.88 37.838 119.43 37.5713 119.13C37.3113 118.823 36.9647 118.67 36.5313 118.67C36.0913 118.67 35.738 118.823 35.4713 119.13C35.2113 119.43 35.0813 119.88 35.0813 120.48C35.0813 121.08 35.2113 121.533 35.4713 121.84C35.7313 122.147 36.0847 122.3 36.5313 122.3ZM43.2011 123V115.95H46.1811C46.9344 115.95 47.5178 116.13 47.9311 116.49C48.3444 116.843 48.5511 117.34 48.5511 117.98C48.5511 118.4 48.4578 118.76 48.2711 119.06C48.0844 119.36 47.8211 119.59 47.4811 119.75C47.1411 119.903 46.7411 119.98 46.2811 119.98L46.4411 119.82H46.7111C46.9844 119.82 47.2278 119.89 47.4411 120.03C47.6611 120.17 47.8411 120.393 47.9811 120.7L48.9911 123H47.8511L46.8511 120.69C46.7511 120.417 46.5944 120.24 46.3811 120.16C46.1744 120.08 45.9178 120.04 45.6111 120.04H44.2411V123H43.2011ZM44.2411 119.25H46.0111C46.5111 119.25 46.8878 119.143 47.1411 118.93C47.4011 118.717 47.5311 118.41 47.5311 118.01C47.5311 117.603 47.4011 117.297 47.1411 117.09C46.8878 116.883 46.5111 116.78 46.0111 116.78H44.2411V119.25ZM52.2966 123.09C51.4832 123.09 50.8432 122.86 50.3766 122.4C49.9099 121.94 49.6766 121.303 49.6766 120.49C49.6766 119.963 49.7766 119.503 49.9766 119.11C50.1832 118.717 50.4666 118.413 50.8266 118.2C51.1932 117.98 51.6166 117.87 52.0966 117.87C52.5699 117.87 52.9666 117.97 53.2866 118.17C53.6066 118.37 53.8499 118.653 54.0166 119.02C54.1832 119.38 54.2666 119.807 54.2666 120.3V120.62H50.4666V120.04H53.5766L53.4066 120.17C53.4066 119.67 53.2932 119.283 53.0666 119.01C52.8466 118.73 52.5266 118.59 52.1066 118.59C51.6399 118.59 51.2799 118.753 51.0266 119.08C50.7732 119.4 50.6466 119.843 50.6466 120.41V120.51C50.6466 121.103 50.7899 121.55 51.0766 121.85C51.3699 122.15 51.7832 122.3 52.3166 122.3C52.6099 122.3 52.8832 122.26 53.1366 122.18C53.3966 122.093 53.6432 121.953 53.8766 121.76L54.2066 122.45C53.9732 122.657 53.6899 122.817 53.3566 122.93C53.0232 123.037 52.6699 123.09 52.2966 123.09ZM57.3555 123.09C56.9089 123.09 56.5189 122.987 56.1855 122.78C55.8522 122.573 55.5922 122.273 55.4055 121.88C55.2255 121.487 55.1355 121.02 55.1355 120.48C55.1355 119.933 55.2255 119.467 55.4055 119.08C55.5922 118.693 55.8522 118.397 56.1855 118.19C56.5189 117.977 56.9089 117.87 57.3555 117.87C57.7955 117.87 58.1789 117.98 58.5055 118.2C58.8322 118.42 59.0489 118.72 59.1555 119.1H59.0455L59.1455 117.96H60.1255C60.1055 118.167 60.0855 118.373 60.0655 118.58C60.0522 118.78 60.0455 118.977 60.0455 119.17V123H59.0355V121.88H59.1455C59.0389 122.253 58.8189 122.55 58.4855 122.77C58.1589 122.983 57.7822 123.09 57.3555 123.09ZM57.6055 122.3C58.0389 122.3 58.3855 122.147 58.6455 121.84C58.9122 121.533 59.0455 121.08 59.0455 120.48C59.0455 119.88 58.9122 119.43 58.6455 119.13C58.3855 118.823 58.0389 118.67 57.6055 118.67C57.1655 118.67 56.8122 118.823 56.5455 119.13C56.2855 119.43 56.1555 119.88 56.1555 120.48C56.1555 121.08 56.2855 121.533 56.5455 121.84C56.8055 122.147 57.1589 122.3 57.6055 122.3ZM61.5193 123V115.64H62.5293V123H61.5193ZM66.7655 123V115.95H71.3855V116.78H67.7755V119H71.1555V119.84H67.7755V122.16H71.3855V123H66.7655ZM74.2552 123.09C73.8352 123.09 73.4485 123.037 73.0952 122.93C72.7418 122.823 72.4485 122.673 72.2152 122.48L72.5252 121.79C72.7718 121.977 73.0452 122.117 73.3452 122.21C73.6452 122.303 73.9518 122.35 74.2652 122.35C74.6318 122.35 74.9085 122.287 75.0952 122.16C75.2818 122.027 75.3752 121.847 75.3752 121.62C75.3752 121.447 75.3152 121.307 75.1952 121.2C75.0818 121.093 74.8918 121.013 74.6252 120.96L73.6652 120.77C73.2385 120.677 72.9152 120.517 72.6952 120.29C72.4752 120.063 72.3652 119.773 72.3652 119.42C72.3652 119.12 72.4452 118.853 72.6052 118.62C72.7718 118.387 73.0052 118.203 73.3052 118.07C73.6118 117.937 73.9685 117.87 74.3752 117.87C74.7485 117.87 75.0952 117.923 75.4152 118.03C75.7352 118.137 76.0018 118.29 76.2152 118.49L75.8952 119.16C75.6885 118.987 75.4552 118.853 75.1952 118.76C74.9352 118.66 74.6718 118.61 74.4052 118.61C74.0318 118.61 73.7552 118.68 73.5752 118.82C73.3952 118.96 73.3052 119.143 73.3052 119.37C73.3052 119.543 73.3585 119.687 73.4652 119.8C73.5785 119.907 73.7552 119.99 73.9952 120.05L74.9552 120.24C75.4085 120.333 75.7485 120.487 75.9752 120.7C76.2018 120.913 76.3152 121.2 76.3152 121.56C76.3152 121.873 76.2285 122.147 76.0552 122.38C75.8818 122.613 75.6418 122.79 75.3352 122.91C75.0285 123.03 74.6685 123.09 74.2552 123.09ZM79.4168 123.09C78.8701 123.09 78.4568 122.943 78.1768 122.65C77.8968 122.35 77.7568 121.903 77.7568 121.31V118.74H76.7768V117.96H77.7568V116.63L78.7668 116.36V117.96H80.1668V118.74H78.7668V121.22C78.7668 121.593 78.8335 121.86 78.9668 122.02C79.1001 122.18 79.2935 122.26 79.5468 122.26C79.6735 122.26 79.7835 122.25 79.8768 122.23C79.9768 122.203 80.0668 122.173 80.1468 122.14V122.96C80.0468 123 79.9301 123.03 79.7968 123.05C79.6635 123.077 79.5368 123.09 79.4168 123.09ZM83.0196 123.09C82.5729 123.09 82.1829 122.987 81.8496 122.78C81.5163 122.573 81.2563 122.273 81.0696 121.88C80.8896 121.487 80.7996 121.02 80.7996 120.48C80.7996 119.933 80.8896 119.467 81.0696 119.08C81.2563 118.693 81.5163 118.397 81.8496 118.19C82.1829 117.977 82.5729 117.87 83.0196 117.87C83.4596 117.87 83.8429 117.98 84.1696 118.2C84.4963 118.42 84.7129 118.72 84.8196 119.1H84.7096L84.8096 117.96H85.7896C85.7696 118.167 85.7496 118.373 85.7296 118.58C85.7163 118.78 85.7096 118.977 85.7096 119.17V123H84.6996V121.88H84.8096C84.7029 122.253 84.4829 122.55 84.1496 122.77C83.8229 122.983 83.4463 123.09 83.0196 123.09ZM83.2696 122.3C83.7029 122.3 84.0496 122.147 84.3096 121.84C84.5763 121.533 84.7096 121.08 84.7096 120.48C84.7096 119.88 84.5763 119.43 84.3096 119.13C84.0496 118.823 83.7029 118.67 83.2696 118.67C82.8296 118.67 82.4763 118.823 82.2096 119.13C81.9496 119.43 81.8196 119.88 81.8196 120.48C81.8196 121.08 81.9496 121.533 82.2096 121.84C82.4696 122.147 82.8229 122.3 83.2696 122.3ZM89.1434 123.09C88.5967 123.09 88.1834 122.943 87.9034 122.65C87.6234 122.35 87.4834 121.903 87.4834 121.31V118.74H86.5034V117.96H87.4834V116.63L88.4934 116.36V117.96H89.8934V118.74H88.4934V121.22C88.4934 121.593 88.56 121.86 88.6934 122.02C88.8267 122.18 89.02 122.26 89.2734 122.26C89.4 122.26 89.51 122.25 89.6034 122.23C89.7034 122.203 89.7934 122.173 89.8734 122.14V122.96C89.7734 123 89.6567 123.03 89.5234 123.05C89.39 123.077 89.2634 123.09 89.1434 123.09ZM93.0973 123.09C92.284 123.09 91.644 122.86 91.1773 122.4C90.7107 121.94 90.4773 121.303 90.4773 120.49C90.4773 119.963 90.5773 119.503 90.7773 119.11C90.984 118.717 91.2673 118.413 91.6273 118.2C91.994 117.98 92.4173 117.87 92.8973 117.87C93.3707 117.87 93.7673 117.97 94.0873 118.17C94.4073 118.37 94.6507 118.653 94.8173 119.02C94.984 119.38 95.0673 119.807 95.0673 120.3V120.62H91.2673V120.04H94.3773L94.2073 120.17C94.2073 119.67 94.094 119.283 93.8673 119.01C93.6473 118.73 93.3273 118.59 92.9073 118.59C92.4407 118.59 92.0807 118.753 91.8273 119.08C91.574 119.4 91.4473 119.843 91.4473 120.41V120.51C91.4473 121.103 91.5907 121.55 91.8773 121.85C92.1707 122.15 92.584 122.3 93.1173 122.3C93.4107 122.3 93.684 122.26 93.9373 122.18C94.1973 122.093 94.444 121.953 94.6773 121.76L95.0073 122.45C94.774 122.657 94.4907 122.817 94.1573 122.93C93.824 123.037 93.4707 123.09 93.0973 123.09ZM98.9823 123V115.95H101.422C102.216 115.95 102.886 116.087 103.432 116.36C103.986 116.633 104.402 117.033 104.682 117.56C104.969 118.08 105.112 118.717 105.112 119.47C105.112 120.217 104.969 120.853 104.682 121.38C104.402 121.907 103.986 122.31 103.432 122.59C102.886 122.863 102.216 123 101.422 123H98.9823ZM100.022 122.13H101.362C102.269 122.13 102.942 121.91 103.382 121.47C103.829 121.03 104.052 120.363 104.052 119.47C104.052 118.577 103.829 117.913 103.382 117.48C102.942 117.04 102.269 116.82 101.362 116.82H100.022V122.13ZM108.761 123.09C107.948 123.09 107.308 122.86 106.841 122.4C106.375 121.94 106.141 121.303 106.141 120.49C106.141 119.963 106.241 119.503 106.441 119.11C106.648 118.717 106.931 118.413 107.291 118.2C107.658 117.98 108.081 117.87 108.561 117.87C109.035 117.87 109.431 117.97 109.751 118.17C110.071 118.37 110.315 118.653 110.481 119.02C110.648 119.38 110.731 119.807 110.731 120.3V120.62H106.931V120.04H110.041L109.871 120.17C109.871 119.67 109.758 119.283 109.531 119.01C109.311 118.73 108.991 118.59 108.571 118.59C108.105 118.59 107.745 118.753 107.491 119.08C107.238 119.4 107.111 119.843 107.111 120.41V120.51C107.111 121.103 107.255 121.55 107.541 121.85C107.835 122.15 108.248 122.3 108.781 122.3C109.075 122.3 109.348 122.26 109.601 122.18C109.861 122.093 110.108 121.953 110.341 121.76L110.671 122.45C110.438 122.657 110.155 122.817 109.821 122.93C109.488 123.037 109.135 123.09 108.761 123.09ZM113.302 123L111.142 117.96H112.222L113.922 122.17H113.632L115.362 117.96H116.392L114.222 123H113.302ZM119.435 123.09C118.622 123.09 117.982 122.86 117.515 122.4C117.049 121.94 116.815 121.303 116.815 120.49C116.815 119.963 116.915 119.503 117.115 119.11C117.322 118.717 117.605 118.413 117.965 118.2C118.332 117.98 118.755 117.87 119.235 117.87C119.709 117.87 120.105 117.97 120.425 118.17C120.745 118.37 120.989 118.653 121.155 119.02C121.322 119.38 121.405 119.807 121.405 120.3V120.62H117.605V120.04H120.715L120.545 120.17C120.545 119.67 120.432 119.283 120.205 119.01C119.985 118.73 119.665 118.59 119.245 118.59C118.779 118.59 118.419 118.753 118.165 119.08C117.912 119.4 117.785 119.843 117.785 120.41V120.51C117.785 121.103 117.929 121.55 118.215 121.85C118.509 122.15 118.922 122.3 119.455 122.3C119.749 122.3 120.022 122.26 120.275 122.18C120.535 122.093 120.782 121.953 121.015 121.76L121.345 122.45C121.112 122.657 120.829 122.817 120.495 122.93C120.162 123.037 119.809 123.09 119.435 123.09ZM122.564 123V115.64H123.574V123H122.564ZM127.214 123.09C126.714 123.09 126.281 122.987 125.914 122.78C125.548 122.567 125.264 122.267 125.064 121.88C124.864 121.487 124.764 121.02 124.764 120.48C124.764 119.94 124.864 119.477 125.064 119.09C125.264 118.697 125.548 118.397 125.914 118.19C126.281 117.977 126.714 117.87 127.214 117.87C127.714 117.87 128.148 117.977 128.514 118.19C128.888 118.397 129.174 118.697 129.374 119.09C129.581 119.477 129.684 119.94 129.684 120.48C129.684 121.02 129.581 121.487 129.374 121.88C129.174 122.267 128.888 122.567 128.514 122.78C128.148 122.987 127.714 123.09 127.214 123.09ZM127.214 122.3C127.654 122.3 128.004 122.147 128.264 121.84C128.524 121.533 128.654 121.08 128.654 120.48C128.654 119.88 128.524 119.43 128.264 119.13C128.004 118.823 127.654 118.67 127.214 118.67C126.781 118.67 126.434 118.823 126.174 119.13C125.914 119.43 125.784 119.88 125.784 120.48C125.784 121.08 125.911 121.533 126.164 121.84C126.424 122.147 126.774 122.3 127.214 122.3ZM130.865 125.16V119.17C130.865 118.977 130.855 118.78 130.835 118.58C130.822 118.373 130.805 118.167 130.785 117.96H131.765L131.865 119.1H131.755C131.862 118.72 132.075 118.42 132.395 118.2C132.722 117.98 133.108 117.87 133.555 117.87C134.002 117.87 134.392 117.977 134.725 118.19C135.058 118.397 135.315 118.693 135.495 119.08C135.682 119.467 135.775 119.933 135.775 120.48C135.775 121.02 135.682 121.487 135.495 121.88C135.315 122.273 135.058 122.573 134.725 122.78C134.392 122.987 134.002 123.09 133.555 123.09C133.115 123.09 132.732 122.983 132.405 122.77C132.085 122.55 131.872 122.253 131.765 121.88H131.875V125.16H130.865ZM133.305 122.3C133.745 122.3 134.095 122.147 134.355 121.84C134.622 121.533 134.755 121.08 134.755 120.48C134.755 119.88 134.622 119.43 134.355 119.13C134.095 118.823 133.745 118.67 133.305 118.67C132.865 118.67 132.512 118.823 132.245 119.13C131.985 119.43 131.855 119.88 131.855 120.48C131.855 121.08 131.985 121.533 132.245 121.84C132.512 122.147 132.865 122.3 133.305 122.3ZM139.289 123.09C138.475 123.09 137.835 122.86 137.369 122.4C136.902 121.94 136.669 121.303 136.669 120.49C136.669 119.963 136.769 119.503 136.969 119.11C137.175 118.717 137.459 118.413 137.819 118.2C138.185 117.98 138.609 117.87 139.089 117.87C139.562 117.87 139.959 117.97 140.279 118.17C140.599 118.37 140.842 118.653 141.009 119.02C141.175 119.38 141.259 119.807 141.259 120.3V120.62H137.459V120.04H140.569L140.399 120.17C140.399 119.67 140.285 119.283 140.059 119.01C139.839 118.73 139.519 118.59 139.099 118.59C138.632 118.59 138.272 118.753 138.019 119.08C137.765 119.4 137.639 119.843 137.639 120.41V120.51C137.639 121.103 137.782 121.55 138.069 121.85C138.362 122.15 138.775 122.3 139.309 122.3C139.602 122.3 139.875 122.26 140.129 122.18C140.389 122.093 140.635 121.953 140.869 121.76L141.199 122.45C140.965 122.657 140.682 122.817 140.349 122.93C140.015 123.037 139.662 123.09 139.289 123.09ZM142.398 123V119.21C142.398 119.003 142.391 118.797 142.378 118.59C142.371 118.377 142.358 118.167 142.338 117.96H143.318L143.428 119.26H143.268C143.334 118.947 143.448 118.687 143.608 118.48C143.768 118.273 143.961 118.12 144.188 118.02C144.421 117.92 144.664 117.87 144.918 117.87C145.024 117.87 145.114 117.877 145.188 117.89C145.261 117.897 145.334 117.91 145.408 117.93L145.398 118.83C145.284 118.783 145.184 118.757 145.098 118.75C145.018 118.737 144.918 118.73 144.798 118.73C144.504 118.73 144.254 118.797 144.048 118.93C143.841 119.057 143.684 119.23 143.578 119.45C143.471 119.67 143.418 119.907 143.418 120.16V123H142.398Z" fill="white"/>
<defs>
<filter id="filter0_d_725_9340" x="0" y="0" width="127" height="56" filterUnits="userSpaceOnUse" color-interpolation-filters="sRGB">
<feFlood flood-opacity="0" result="BackgroundImageFix"/>
<feColorMatrix in="SourceAlpha" type="matrix" values="0 0 0 0 0 0 0 0 0 0 0 0 0 0 0 0 0 0 127 0" result="hardAlpha"/>
<feOffset dy="5"/>
<feGaussianBlur stdDeviation="5"/>
<feColorMatrix type="matrix" values="0 0 0 0 0.501961 0 0 0 0 0.501961 0 0 0 0 0.501961 0 0 0 0.15 0"/>
<feBlend mode="normal" in2="BackgroundImageFix" result="effect1_dropShadow_725_9340"/>
<feBlend mode="normal" in="SourceGraphic" in2="effect1_dropShadow_725_9340" result="shape"/>
</filter>
<filter id="filter1_d_725_9340" x="39" y="49" width="131" height="56" filterUnits="userSpaceOnUse" color-interpolation-filters="sRGB">
<feFlood flood-opacity="0" result="BackgroundImageFix"/>
<feColorMatrix in="SourceAlpha" type="matrix" values="0 0 0 0 0 0 0 0 0 0 0 0 0 0 0 0 0 0 127 0" result="hardAlpha"/>
<feOffset dy="5"/>
<feGaussianBlur stdDeviation="5"/>
<feColorMatrix type="matrix" values="0 0 0 0 0.501961 0 0 0 0 0.501961 0 0 0 0 0.501961 0 0 0 0.15 0"/>
<feBlend mode="normal" in2="BackgroundImageFix" result="effect1_dropShadow_725_9340"/>
<feBlend mode="normal" in="SourceGraphic" in2="effect1_dropShadow_725_9340" result="shape"/>
</filter>
</defs>
</svg>
