<svg width="430" height="430" viewBox="0 0 430 430" fill="none" xmlns="http://www.w3.org/2000/svg">
<circle opacity="0.35" cx="215" cy="215" r="175" stroke="url(#paint0_linear_31_311)" stroke-width="80"/>
<path d="M224.471 114.281L214.572 110.901C214.14 110.751 213.684 110.683 213.228 110.7C212.469 110.73 211.737 110.989 211.128 111.444C210.519 111.898 210.061 112.526 209.813 113.246L209.176 115.119C208.858 116.062 208.925 117.094 209.364 117.988C209.803 118.882 210.577 119.565 211.518 119.887L221.414 123.269C221.88 123.429 222.373 123.494 222.864 123.463C223.356 123.431 223.836 123.302 224.278 123.084C224.72 122.866 225.114 122.563 225.439 122.192C225.764 121.821 226.012 121.39 226.171 120.922L226.817 119.06C226.976 118.591 227.042 118.096 227.01 117.603C226.978 117.109 226.85 116.626 226.632 116.182C226.414 115.738 226.111 115.342 225.74 115.016C225.369 114.689 224.938 114.44 224.471 114.281V114.281ZM225.689 118.667L225.055 120.54C224.946 120.86 224.776 121.156 224.554 121.41C224.331 121.663 224.061 121.871 223.759 122.02C223.456 122.169 223.128 122.257 222.791 122.278C222.455 122.3 222.118 122.255 221.799 122.146L211.902 118.763C211.259 118.543 210.73 118.075 210.43 117.464C210.129 116.852 210.083 116.146 210.301 115.501L210.938 113.629C211.107 113.137 211.421 112.708 211.837 112.397C212.253 112.087 212.753 111.909 213.272 111.888C213.584 111.876 213.896 111.922 214.192 112.024L224.099 115.404C224.741 115.626 225.269 116.095 225.567 116.707C225.865 117.319 225.909 118.025 225.689 118.669L225.689 118.667Z" fill="#C2DCFF"/>
<path d="M145.981 178.483L221.34 196.624L244.977 174.008L173.194 158.811L145.981 178.483ZM242.529 174.707L220.982 195.323L148.765 177.934L173.46 160.072L242.529 174.707Z" fill="#C2DCFF"/>
<path d="M173.498 159.5L147.498 178L217.001 194.5L243.501 174.5L173.498 159.5Z" fill="white"/>
<path d="M213.798 141.377L220.017 121.445L212.329 119.06L206.488 139.033C204.774 138.63 203.014 138.454 201.255 138.509C197.027 138.665 193.761 140.342 191.808 143.358C187.8 149.55 189.182 161.206 195.916 177.997L196.556 179.593L202.117 160.365L201.713 160.133C200.959 159.7 200.382 159.013 200.085 158.195C199.787 157.376 199.788 156.478 200.087 155.66C200.386 154.842 200.964 154.157 201.719 153.725C202.474 153.294 203.356 153.144 204.211 153.302C205.065 153.461 205.836 153.917 206.387 154.591C206.938 155.264 207.234 156.112 207.222 156.983C207.211 157.854 206.892 158.693 206.322 159.351C205.753 160.009 204.97 160.443 204.112 160.578L203.748 160.635L197.828 180.046L199.122 179.308C203.614 176.659 207.905 173.68 211.958 170.395C220.501 163.388 224.63 157.166 224.23 151.921C223.888 147.554 220.382 144.007 213.798 141.377ZM199.833 177.507L204.656 161.687C205.738 161.429 206.698 160.807 207.377 159.925C208.057 159.043 208.415 157.954 208.391 156.839C208.367 155.725 207.963 154.652 207.247 153.8C206.53 152.947 205.544 152.367 204.453 152.155C203.362 151.942 202.231 152.112 201.249 152.634C200.267 153.156 199.493 154 199.057 155.025C198.62 156.05 198.546 157.194 198.848 158.267C199.151 159.34 199.81 160.277 200.717 160.921L196.368 175.956C193.186 167.752 191.334 160.801 190.87 155.275C190.456 150.416 191.104 146.632 192.797 144.017C194.554 141.299 197.413 139.849 201.293 139.706C203.121 139.648 204.949 139.859 206.716 140.332L207.289 140.503L213.12 120.562L218.529 122.238L212.341 142.096L212.861 142.292C219.314 144.763 222.741 148.036 223.045 152.021C223.809 162.099 205.019 174.322 199.832 177.497L199.833 177.507Z" fill="#C2DCFF"/>
<path d="M221.363 121.995L211.464 118.615C210.999 118.456 210.506 118.39 210.015 118.422C209.524 118.453 209.044 118.582 208.602 118.799C208.161 119.017 207.767 119.32 207.442 119.691C207.117 120.061 206.868 120.493 206.71 120.96L206.073 122.833C205.753 123.777 205.82 124.81 206.259 125.704C206.698 126.599 207.473 127.282 208.414 127.604L218.311 130.984C218.777 131.143 219.27 131.209 219.761 131.177C220.252 131.146 220.732 131.017 221.174 130.8C221.616 130.582 222.01 130.279 222.335 129.908C222.66 129.537 222.909 129.106 223.068 128.639L223.702 126.766C224.021 125.822 223.954 124.79 223.516 123.896C223.077 123.002 222.303 122.318 221.363 121.995V121.995ZM222.582 126.382L221.947 128.255C221.839 128.575 221.668 128.87 221.446 129.124C221.224 129.378 220.954 129.585 220.651 129.734C220.349 129.883 220.02 129.971 219.684 129.993C219.348 130.014 219.01 129.969 218.692 129.86L208.793 126.48C208.15 126.259 207.62 125.792 207.32 125.18C207.02 124.569 206.974 123.863 207.192 123.217L207.828 121.344C207.936 121.024 208.106 120.728 208.328 120.475C208.551 120.221 208.82 120.013 209.123 119.864C209.425 119.715 209.754 119.627 210.09 119.606C210.426 119.584 210.763 119.629 211.082 119.739L220.979 123.119C221.622 123.339 222.153 123.806 222.453 124.418C222.754 125.029 222.8 125.736 222.582 126.382V126.382Z" fill="#C2DCFF"/>
<path d="M223.839 114.129L213.942 110.749C213.477 110.589 212.984 110.523 212.493 110.555C212.001 110.587 211.521 110.715 211.08 110.933C210.638 111.15 210.243 111.453 209.918 111.824C209.593 112.195 209.345 112.626 209.186 113.093L208.551 114.967C208.231 115.909 208.297 116.94 208.733 117.834C209.17 118.728 209.941 119.412 210.88 119.737L220.778 123.117C221.21 123.266 221.666 123.333 222.122 123.316C222.88 123.285 223.611 123.026 224.219 122.573C224.828 122.119 225.286 121.491 225.533 120.773L226.17 118.899C226.49 117.955 226.423 116.923 225.984 116.028C225.545 115.134 224.77 114.45 223.828 114.129L223.839 114.129ZM225.06 118.515L224.423 120.388C224.315 120.708 224.145 121.004 223.923 121.258C223.701 121.512 223.431 121.719 223.129 121.868C222.827 122.017 222.498 122.105 222.162 122.127C221.826 122.148 221.488 122.103 221.17 121.993L211.273 118.613C210.629 118.393 210.099 117.926 209.799 117.314C209.499 116.702 209.453 115.996 209.672 115.351L210.306 113.477C210.415 113.157 210.585 112.862 210.807 112.608C211.03 112.354 211.3 112.147 211.602 111.998C211.905 111.849 212.233 111.761 212.57 111.739C212.906 111.718 213.243 111.763 213.562 111.872L223.459 115.252C224.102 115.473 224.631 115.94 224.932 116.552C225.232 117.164 225.278 117.869 225.06 118.515Z" fill="#C2DCFF"/>
<path d="M174.59 165.375L160.801 175.769C160.274 176.166 160.82 177.044 161.354 176.642L175.145 166.25C175.673 165.842 175.128 164.973 174.59 165.375Z" fill="#B4D2D0"/>
<path d="M177.943 167.2L167.656 176.339C167.156 176.789 167.913 177.482 168.411 177.043L178.699 167.904C179.199 167.462 178.437 166.761 177.943 167.2Z" fill="#B4D2D0"/>
<path d="M222.577 172.568C218.287 176.637 214.105 180.816 210.03 185.103C209.57 185.586 210.326 186.29 210.786 185.807C214.859 181.521 219.042 177.342 223.333 173.271C223.817 172.813 223.058 172.112 222.577 172.568Z" fill="#B4D2D0"/>
<path d="M223.977 175.363C219.808 179.042 215.819 182.903 212.012 186.944C211.554 187.43 212.31 188.133 212.768 187.65C216.582 183.609 220.571 179.747 224.733 176.067C225.233 175.625 224.471 174.926 223.977 175.363Z" fill="#B4D2D0"/>
<path d="M214.655 95.3862C214.306 98.87 213.828 103.662 213.33 108.641C213.263 109.291 214.269 109.541 214.335 108.88L215.66 95.6232C215.724 94.969 214.73 94.7229 214.655 95.3862Z" fill="#C2DCFF"/>
<path d="M231.777 100.887L225.357 110.658C224.99 111.217 225.903 111.7 226.266 111.147C228.406 107.89 230.547 104.633 232.688 101.376C233.055 100.816 232.148 100.334 231.777 100.887Z" fill="#C2DCFF"/>
<path d="M209.754 113.296L209.118 115.171C208.556 116.825 209.438 118.623 211.088 119.187L220.986 122.568C222.636 123.132 224.429 122.247 224.99 120.593L225.627 118.719C226.188 117.064 225.306 115.267 223.657 114.703L213.759 111.321C212.109 110.758 210.316 111.642 209.754 113.296Z" fill="white"/>
<path d="M273.078 145.892C273.478 141.524 281.568 131 285.564 131C289.559 131 297.051 138.942 297.051 138.942C299.049 139.935 305.441 147.679 307.039 148.871C308.638 150.062 319.692 160.619 325.019 165.252C328.848 169.388 335.507 178.357 337.505 181.137C340.002 184.612 339.503 186.597 335.008 192.554C330.513 198.511 325.519 200 323.521 200C321.923 200 314.531 194.374 311.035 191.561L274.576 154.331C273.91 153.338 272.678 150.26 273.078 145.892Z" fill="#4B5FFA"/>
<path d="M179.138 206.457C177.93 209.245 163.876 227.866 157 236.827C159.516 251.764 166.56 275.164 167.063 278.152C167.486 280.667 178.635 278.318 183.163 278.65C192.89 280.807 216.168 286.217 231.464 290.599C250.583 296.075 261.651 294.084 269.702 290.599C276.142 287.811 278.087 280.633 278.255 277.393C278.979 277.165 279.652 276.919 280.267 276.658C285.902 274.268 286.305 264.609 285.802 260.079C289.824 258.418 293.371 255.159 294.355 251.266C295.563 246.486 293.181 241.972 291.839 240.313C301.902 238.321 298.883 227.368 297.374 221.891C296.166 217.51 288.15 213.759 284.292 212.431C259.639 204.631 209.829 188.732 207.816 187.537C205.301 186.043 195.238 188.035 191.213 189.031C187.188 190.027 180.647 202.971 179.138 206.457Z" fill="#B28B67"/>
<path d="M194 221.496L207.5 248.995C211.833 249.162 220.6 245.095 221 227.496C220.353 225.554 219.356 223.874 218.289 222.496C221.693 220.163 228.6 213.996 229 207.997C236.5 209.997 252.9 214.196 258.5 214.996C264.1 215.796 281.167 217.663 289 218.496C291.5 218.496 296.7 217.196 297.5 211.996C298.5 205.497 301.5 198.997 303.5 196.497C305.1 194.497 309.167 191.664 311 190.497L276 155.498L274.5 151.999C274.167 152.498 270.7 155.998 259.5 165.998C245.5 178.498 224 184.497 217 186.497C211.4 188.097 206.333 191.497 204.5 192.997L194 221.496Z" fill="#967557"/>
<rect x="124" y="227.432" width="36" height="77" rx="17" transform="rotate(-13.5452 124 227.432)" fill="#C4C4C4"/>
<path d="M118.818 276.542C111.918 278.997 104.795 280.764 97.5497 281.817C94.9503 282.199 95.8743 286.17 98.4484 285.793C105.695 284.733 112.82 282.961 119.721 280.503C122.163 279.648 121.285 275.666 118.818 276.542Z" fill="#455980"/>
<path d="M125.789 256.767C117.809 254.945 109.643 254.077 101.46 254.18C99.1297 254.211 98.9571 257.841 101.298 257.81C109.167 257.689 117.024 258.502 124.702 260.234C126.992 260.748 128.069 257.281 125.789 256.767Z" fill="#455980"/>
<path d="M321.385 109.861C316.926 117.64 313.044 125.736 309.768 134.086C308.91 136.275 312.373 137.344 313.226 135.175C316.391 127.117 320.145 119.305 324.456 111.801C325.619 109.769 322.552 107.829 321.385 109.861Z" fill="#455980"/>
<path d="M336.226 122.909C330.726 129.131 324.972 135.108 318.965 140.841C317.274 142.455 319.747 145.112 321.442 143.493C327.446 137.761 333.2 131.785 338.703 125.567C340.242 123.825 337.785 121.142 336.226 122.909Z" fill="#455980"/>
<defs>
<linearGradient id="paint0_linear_31_311" x1="487.5" y1="-159" x2="182" y2="269" gradientUnits="userSpaceOnUse">
<stop stop-color="#C2DCFF"/>
<stop offset="1" stop-color="#C2DCFF" stop-opacity="0"/>
</linearGradient>
</defs>
</svg>
