<svg width="112" height="112" viewBox="0 0 112 112" fill="none" xmlns="http://www.w3.org/2000/svg">
<path d="M56 112C86.9279 112 112 86.9279 112 56C112 25.0721 86.9279 0 56 0C25.0721 0 0 25.0721 0 56C0 86.9279 25.0721 112 56 112Z" fill="url(#paint0_linear_13_221)"/>
<path d="M56.0015 111.072C86.4168 111.072 111.073 86.4154 111.073 56.0001C111.073 25.5847 86.4168 0.928223 56.0015 0.928223C25.5862 0.928223 0.929688 25.5847 0.929688 56.0001C0.929688 86.4154 25.5862 111.072 56.0015 111.072Z" fill="#4B5FFA"/>
<path d="M56.0017 99.7787C80.1801 99.7787 99.7807 80.1782 99.7807 55.9997C99.7807 31.8212 80.1801 12.2207 56.0017 12.2207C31.8232 12.2207 12.2227 31.8212 12.2227 55.9997C12.2227 80.1782 31.8232 99.7787 56.0017 99.7787Z" fill="white"/>
<path opacity="0.3" d="M57.2408 19.9556H54.7656V58.6296H57.2408V19.9556Z" fill="#535461"/>
<path d="M93.5902 54.4531H58.6289V57.547H93.5902V54.4531Z" fill="#17294D"/>
<path d="M55.955 54.4002L33.957 42.8804L32.5217 45.6212L54.5197 57.1411L55.955 54.4002Z" fill="#17294D"/>
<path d="M56.0003 60.6411C58.5633 60.6411 60.6411 58.5633 60.6411 56.0003C60.6411 53.4372 58.5633 51.3594 56.0003 51.3594C53.4372 51.3594 51.3594 53.4372 51.3594 56.0003C51.3594 58.5633 53.4372 60.6411 56.0003 60.6411Z" fill="#17294D"/>
<g opacity="0.1">
<path opacity="0.1" d="M15.6182 61.2594C15.6182 37.0804 35.2182 17.4804 59.3972 17.4804C66.1836 17.4744 72.8783 19.0486 78.9508 22.0785C85.0234 25.1083 90.307 29.5104 94.3833 34.9363C86.9331 21.3973 72.5464 12.2207 55.9939 12.2207C31.8149 12.2207 12.2149 31.8207 12.2149 55.9997C12.2007 65.4983 15.2899 74.7415 21.0125 82.3228C17.4636 75.8702 15.6077 68.6235 15.6182 61.2594V61.2594Z" fill="#17294D"/>
</g>
<defs>
<linearGradient id="paint0_linear_13_221" x1="56" y1="112" x2="56" y2="0" gradientUnits="userSpaceOnUse">
<stop stop-color="#808080" stop-opacity="0.25"/>
<stop offset="0.54" stop-color="#808080" stop-opacity="0.12"/>
<stop offset="1" stop-color="#808080" stop-opacity="0.1"/>
</linearGradient>
</defs>
</svg>
