<svg width="267" height="121" viewBox="0 0 267 121" fill="none" xmlns="http://www.w3.org/2000/svg">
<mask id="mask0_1607_55130" style="mask-type:alpha" maskUnits="userSpaceOnUse" x="5" y="5" width="257" height="111">
<path d="M5 10C5 7.23857 7.23858 5 10 5H257C259.761 5 262 7.23858 262 10V111C262 113.761 259.761 116 257 116H10C7.23858 116 5 113.761 5 111V10Z" fill="#4B5FFA"/>
</mask>
<g mask="url(#mask0_1607_55130)">
<path d="M224.674 39.8586C173.474 32.0632 169.055 73.3267 173.172 97.0524C193.006 163.566 284.675 153.825 294.175 146.622C303.675 139.42 288.674 49.6029 224.674 39.8586Z" fill="white" fill-opacity="0.25"/>
<path d="M194.674 -35.5536C143.474 -43.349 139.055 -2.08554 143.172 21.6402C163.006 88.1534 254.675 78.4123 264.175 71.21C273.675 64.0077 258.674 -25.8093 194.674 -35.5536Z" fill="#00F0FF" fill-opacity="0.23"/>
<path d="M-8.40088 85.1195C-36.1213 92.8571 -75.2119 117.94 -72.9022 131.3C-61.7756 168.753 37.6732 181.821 56.5992 134.264C71.0992 97.8292 34.0974 73.2569 -8.40088 85.1195Z" fill="#CF0F0F" fill-opacity="0.25"/>
<path d="M245.599 91.0507C217.879 98.7883 178.788 123.872 181.098 137.231C192.224 174.684 291.673 187.752 310.599 140.196C325.099 103.76 288.097 79.1882 245.599 91.0507Z" fill="#D992DB" fill-opacity="0.25"/>
</g>
</svg>
