<svg width="24" height="30" viewBox="0 0 24 30" fill="none" xmlns="http://www.w3.org/2000/svg">
<path d="M20.0454 15.9662C20.0119 12.2832 23.0968 10.4914 23.2379 10.408C21.4908 7.89056 18.7828 7.5466 17.8312 7.51918C15.5568 7.28264 13.3506 8.86416 12.192 8.86416C11.0102 8.86416 9.22609 7.54203 7.30318 7.58089C4.82873 7.6186 2.51393 9.03442 1.24423 11.233C-1.37582 15.7159 0.578208 22.3037 3.08861 25.9272C4.34424 27.703 5.81167 29.6833 7.73217 29.6136C9.61114 29.5382 10.313 28.4309 12.5805 28.4309C14.8271 28.4309 15.4862 29.6136 17.4449 29.5691C19.4616 29.5382 20.7311 27.7864 21.943 25.9958C23.3941 23.9629 23.9768 21.9586 24 21.8557C23.9537 21.8397 20.0847 20.3793 20.0454 15.9662ZM16.3453 5.13547C17.3558 3.88648 18.0473 2.18725 17.8554 0.462891C16.3926 0.526883 14.5634 1.46277 13.51 2.68434C12.578 3.76078 11.7455 5.52513 11.9605 7.18436C13.6037 7.30549 15.2907 6.36503 16.3453 5.13547Z" fill="#17294D"/>
</svg>
