<svg width="18" height="19" viewBox="0 0 18 19" fill="none" xmlns="http://www.w3.org/2000/svg">
<path d="M12.75 2.45117H5.25C3.17893 2.45117 1.5 4.1301 1.5 6.20117V13.7012C1.5 15.7722 3.17893 17.4512 5.25 17.4512H12.75C14.8211 17.4512 16.5 15.7722 16.5 13.7012V6.20117C16.5 4.1301 14.8211 2.45117 12.75 2.45117Z" fill="#4B5FFA"/>
<path d="M11.9998 9.47841C12.0923 10.1026 11.9857 10.7401 11.6951 11.3002C11.4045 11.8603 10.9446 12.3145 10.381 12.5982C9.81736 12.8819 9.17862 12.9806 8.55562 12.8804C7.93262 12.7801 7.3571 12.486 6.91091 12.0398C6.46472 11.5936 6.17058 11.0181 6.07033 10.3951C5.97008 9.77207 6.06883 9.13333 6.35253 8.56969C6.63622 8.00605 7.09042 7.54622 7.65052 7.25559C8.21062 6.96497 8.8481 6.85835 9.47228 6.95091C10.109 7.04532 10.6984 7.34201 11.1536 7.79714C11.6087 8.25227 11.9054 8.84172 11.9998 9.47841Z" fill="#C2DCFF"/>
<path d="M13.125 5.82617H13.1325" stroke="#C2DCFF" stroke-width="2" stroke-linecap="round" stroke-linejoin="round"/>
</svg>
