<svg width="17" height="18" viewBox="0 0 17 18" fill="none" xmlns="http://www.w3.org/2000/svg">
<g clip-path="url(#clip0_725_12717)">
<path fill-rule="evenodd" clip-rule="evenodd" d="M16.0039 1.2832H0.996094C0.630859 1.2832 0.332031 1.58203 0.332031 1.94727V16.9551C0.332031 17.3203 0.630859 17.6191 0.996094 17.6191H16.0039C16.3691 17.6191 16.668 17.3203 16.668 16.9551V1.94727C16.668 1.58203 16.3691 1.2832 16.0039 1.2832Z" fill="#4B5FFA"/>
<path fill-rule="evenodd" clip-rule="evenodd" d="M5.51172 5.06885C5.51172 5.85275 4.87619 6.48828 4.09229 6.48828C3.30838 6.48828 2.67285 5.85275 2.67285 5.06885C2.67285 4.28494 3.30838 3.64941 4.09229 3.64941C4.87619 3.64941 5.51172 4.28494 5.51172 5.06885Z" fill="#F5FBFF"/>
<path fill-rule="evenodd" clip-rule="evenodd" d="M2.87207 7.4834H5.3125V15.2529H2.87207V7.4834Z" fill="#F5FBFF"/>
<path fill-rule="evenodd" clip-rule="evenodd" d="M6.77344 7.4834V15.2529H9.21387V10.7684C9.21387 10.0334 9.81516 9.43201 10.5503 9.43201C11.2853 9.43201 11.8867 10.0334 11.8867 10.7684V15.2529H14.3271V10.2144C14.3271 8.62099 13.0235 7.31738 11.4302 7.31738C10.4712 7.31738 9.61736 7.78975 9.08936 8.51308V7.4834H6.77344Z" fill="#F5FBFF"/>
<path d="M12.6836 17.2871H0.996094C0.812958 17.2871 0.664062 17.1382 0.664062 16.9551V1.94727C0.664062 1.76413 0.812958 1.61523 0.996094 1.61523H1.66016C1.84355 1.61523 1.99219 1.4666 1.99219 1.2832C1.99219 1.09981 1.84355 0.951172 1.66016 0.951172H0.996094C0.446815 0.951172 0 1.39799 0 1.94727V16.9551C0 17.5044 0.446815 17.9512 0.996094 17.9512H12.6836C12.8669 17.9512 13.0156 17.8025 13.0156 17.6191C13.0156 17.4357 12.867 17.2871 12.6836 17.2871Z" fill="#17294D"/>
<path d="M16.0039 0.951172H4.31641C4.13301 0.951172 3.98438 1.09981 3.98438 1.2832C3.98438 1.4666 4.13301 1.61523 4.31641 1.61523H16.0039C16.187 1.61523 16.3359 1.76413 16.3359 1.94727V16.9551C16.3359 17.1382 16.187 17.2871 16.0039 17.2871H15.3398C15.1564 17.2871 15.0078 17.4357 15.0078 17.6191C15.0078 17.8025 15.1564 17.9512 15.3398 17.9512H16.0039C16.5532 17.9512 17 17.5042 17 16.9551V1.94727C17 1.39799 16.5532 0.951172 16.0039 0.951172Z" fill="#17294D"/>
<path d="M2.98841 1.61523C3.17168 1.61523 3.32044 1.4666 3.32044 1.2832C3.32044 1.09981 3.17168 0.951172 2.98841 0.951172H2.98815C2.80476 0.951172 2.65625 1.09981 2.65625 1.2832C2.65625 1.4666 2.80502 1.61523 2.98841 1.61523Z" fill="#17294D"/>
<path d="M14.0118 17.2871H14.0116C13.8282 17.2871 13.6797 17.4357 13.6797 17.6191C13.6797 17.8025 13.8285 17.9512 14.0118 17.9512C14.1952 17.9512 14.3439 17.8025 14.3439 17.6191C14.3439 17.4357 14.1952 17.2871 14.0118 17.2871Z" fill="#17294D"/>
</g>
<defs>
<clipPath id="clip0_725_12717">
<rect width="17" height="17" fill="white" transform="translate(0 0.951172)"/>
</clipPath>
</defs>
</svg>
