<svg width="18" height="19" viewBox="0 0 18 19" fill="none" xmlns="http://www.w3.org/2000/svg">
<path d="M17.25 3.20139C16.5318 3.708 15.7366 4.09547 14.895 4.34889C14.4433 3.82952 13.843 3.46141 13.1753 3.29433C12.5076 3.12726 11.8046 3.16929 11.1616 3.41473C10.5185 3.66017 9.96633 4.09719 9.57974 4.66668C9.19314 5.23616 8.99077 5.91064 9 6.59889V7.34889C7.68198 7.38307 6.37596 7.09075 5.19826 6.49797C4.02056 5.9052 3.00774 5.03037 2.25 3.95139C2.25 3.95139 -0.75 10.7014 6 13.7014C4.4554 14.7499 2.61537 15.2756 0.75 15.2014C7.5 18.9514 15.75 15.2014 15.75 6.57639C15.7493 6.36748 15.7292 6.15909 15.69 5.95389C16.4555 5.19901 16.9956 4.24592 17.25 3.20139V3.20139Z" fill="#4B5FFA"/>
</svg>
