<svg width="19" height="21" viewBox="0 0 19 21" fill="none" xmlns="http://www.w3.org/2000/svg">
<g clip-path="url(#clip0_725_12706)">
<path d="M16.2316 3.85758C14.4455 1.98445 12.0705 0.952315 9.54011 0.951172C4.32585 0.951172 0.0824835 5.3968 0.080396 10.8611C0.0797884 12.6078 0.515271 14.3128 1.34301 15.8157L0.000976562 20.9512L5.01568 19.5731C6.39733 20.3628 7.95297 20.7789 9.53604 20.7796H9.54006H9.54011C14.7535 20.7796 18.9975 16.3332 18.9997 10.8691C19.0006 8.22087 18.0175 5.73085 16.2316 3.85758ZM9.54011 19.1058H9.53704C8.12597 19.105 6.74222 18.708 5.53526 17.9574L5.24802 17.7789L2.27219 18.5966L3.06669 15.557L2.87955 15.2454C2.09244 13.9338 1.67692 12.4181 1.67751 10.8617C1.67924 6.31998 5.20616 2.62506 9.54309 2.62506C11.6433 2.62597 13.6172 3.48389 15.1017 5.04078C16.5862 6.59766 17.4031 8.66732 17.4025 10.8684C17.4007 15.4103 13.8736 19.1058 9.54011 19.1058Z" fill="#C8CAD4"/>
<path d="M0.43457 20.3814L1.7153 15.4806C0.92517 14.0463 0.509659 12.419 0.510157 10.7524C0.512229 5.53784 4.56179 1.29541 9.53744 1.29541C11.9524 1.29655 14.2189 2.28149 15.9231 4.0691C17.6276 5.85671 18.5657 8.23282 18.5647 10.7598C18.5626 15.9745 14.5128 20.2173 9.5378 20.2173C9.53744 20.2173 9.53805 20.2173 9.5378 20.2173H9.53378C8.02302 20.2168 6.53856 19.8194 5.22011 19.0663L0.43457 20.3814Z" fill="#4B5FFA"/>
<path fill-rule="evenodd" clip-rule="evenodd" d="M7.20154 6.65393C7.02653 6.24615 6.84226 6.23798 6.67576 6.23085C6.53957 6.22473 6.38366 6.2251 6.228 6.2251C6.07222 6.2251 5.81906 6.28646 5.60498 6.53148C5.39078 6.77651 4.78711 7.36885 4.78711 8.57355C4.78711 9.77839 5.62446 10.9425 5.74117 11.106C5.85801 11.2693 7.35757 13.8206 9.73245 14.8021C11.7062 15.6177 12.1078 15.4555 12.5362 15.4147C12.9646 15.3739 13.9186 14.8225 14.1133 14.2507C14.308 13.679 14.308 13.1889 14.2496 13.0865C14.1912 12.9845 14.0354 12.9232 13.8017 12.8008C13.5681 12.6783 12.4194 12.0859 12.2052 12.0042C11.991 11.9226 11.8352 11.8818 11.6794 12.127C11.5236 12.3718 11.0761 12.9232 10.9398 13.0865C10.8035 13.2501 10.6672 13.2705 10.4335 13.1481C10.1998 13.0253 9.44728 12.767 8.55457 11.9328C7.85998 11.2838 7.39104 10.4823 7.25472 10.2372C7.11841 9.99226 7.24011 9.85961 7.35732 9.73754C7.46223 9.62784 7.591 9.4517 7.70784 9.30871C7.82443 9.16573 7.86338 9.06369 7.94127 8.90042C8.01916 8.7369 7.98022 8.59393 7.9218 8.47148C7.86338 8.34903 7.40929 7.13811 7.20154 6.65393Z" fill="white"/>
<path d="M16.1527 3.82667C14.3871 1.97504 12.0394 0.954772 9.53805 0.953613C4.38362 0.953613 0.188971 5.3482 0.186899 10.7498C0.186291 12.4764 0.616773 14.1619 1.43501 15.6476L0.108398 20.724L5.06554 19.3618C6.43134 20.1424 7.96911 20.5537 9.53403 20.5544H9.538H9.53805C14.6916 20.5544 18.8869 16.159 18.8891 10.7577C18.8899 8.13987 17.9181 5.67843 16.1527 3.82667ZM9.53805 18.8998H9.53501C8.14012 18.899 6.77225 18.5066 5.57915 17.7646L5.2952 17.5882L2.35353 18.3965L3.13891 15.3918L2.95391 15.0838C2.17584 13.7873 1.76508 12.2889 1.76569 10.7504C1.76739 6.26082 5.25382 2.60832 9.54097 2.60832C11.6171 2.60922 13.5683 3.45729 15.0358 4.9963C16.5032 6.53532 17.3108 8.5812 17.3102 10.7571C17.3083 15.2468 13.8218 18.8998 9.53805 18.8998Z" fill="white"/>
</g>
<defs>
<clipPath id="clip0_725_12706">
<rect width="19" height="20" fill="white" transform="translate(0 0.951172)"/>
</clipPath>
</defs>
</svg>
