<svg width="14" height="14" viewBox="0 0 14 14" fill="none" xmlns="http://www.w3.org/2000/svg">
<path d="M10.5 4.66699C10.5 3.73873 10.1313 2.8485 9.47487 2.19212C8.8185 1.53574 7.92826 1.16699 7 1.16699C6.07174 1.16699 5.1815 1.53574 4.52513 2.19212C3.86875 2.8485 3.5 3.73873 3.5 4.66699C3.5 8.75032 1.75 9.91699 1.75 9.91699H12.25C12.25 9.91699 10.5 8.75032 10.5 4.66699Z" stroke="black" stroke-linecap="round" stroke-linejoin="round"/>
<path d="M8.00954 12.25C7.90699 12.4268 7.75979 12.5735 7.58268 12.6756C7.40557 12.7776 7.20477 12.8313 7.00038 12.8313C6.79599 12.8313 6.59519 12.7776 6.41808 12.6756C6.24097 12.5735 6.09377 12.4268 5.99121 12.25" stroke="black" stroke-linecap="round" stroke-linejoin="round"/>
</svg>
