<svg width="66" height="57" viewBox="0 0 66 57" fill="none" xmlns="http://www.w3.org/2000/svg">
<rect width="66" height="57" fill="#FA554B"/>
<path d="M43.1914 33.5772L50.3142 28L57.1914 33.5772V42H43.1914V33.5772Z" fill="#E1C490"/>
<path d="M50.1914 28H54.5431L61.1914 34V42H56.9606V34L50.1914 28Z" fill="#363499"/>
<rect x="49.1914" y="36" width="3" height="6" fill="#363499"/>
<path d="M14.1378 25.5982C14.0948 26.6734 13.869 27.5155 13.7615 27.8022L29.0818 29.7912C28.9026 29.5045 28.6518 28.7483 29.0818 28.0172C29.6194 27.1034 29.4043 23.7705 29.0818 23.3943C28.7593 23.018 28.1142 21.2978 28.0067 20.599C27.9207 20.0399 27.5497 18.5889 27.3749 17.9333C26.789 16.0106 25.3602 15.1659 22.5774 15.0084C19.7283 14.8471 18.0082 17.0511 17.6319 17.7499C17.2556 18.4488 17.2233 19.7174 15.8042 21.1365C14.0303 22.9105 14.1915 24.2544 14.1378 25.5982Z" fill="#4B5FFA"/>
<rect x="19.5217" y="26.1895" width="3.27166" height="4.28736" transform="rotate(16.8792 19.5217 26.1895)" fill="#D9967F"/>
<path d="M16.8793 21.6744C16.2342 22.6635 17.3273 23.52 17.9544 23.8246C18.0978 24.4338 18.449 25.7705 18.707 26.2436C19.0296 26.8349 20.8035 28.3938 22.2549 28.6626C23.7063 28.9314 26.1253 26.1898 26.6091 25.061C26.9961 24.1579 27.3079 21.2085 27.4154 19.8467C27.3079 19.8467 26.9424 19.922 26.3403 20.223C25.7382 20.5241 24.1543 20.3484 23.4375 20.223C21.8248 19.9541 21.6098 20.223 20.8035 20.223C19.9972 20.223 19.5671 21.513 19.2446 21.0829C18.922 20.6529 17.6856 20.438 16.8793 21.6744Z" fill="#F2A88E"/>
<path d="M17.4705 21.6738C17.7392 21.6917 18.2768 21.9641 18.2768 22.9102" stroke="#CD5D5A" stroke-width="0.2"/>
<path d="M22.6311 25.168H23.1686C23.1507 25.383 23.1775 25.6518 23.5449 25.6518C23.8137 25.6518 23.975 25.6518 24.0287 25.383C24.0717 25.168 24.2438 25.2755 24.405 25.2755M21.771 26.4581C21.8606 26.5477 22.072 26.7269 22.201 26.7269C22.3623 26.7269 22.7924 26.4581 23.1686 26.7269C23.5449 26.9957 23.2762 26.7269 23.5449 26.7269C23.76 26.7269 24.2079 26.9419 24.405 27.0494L24.7813 26.7269" stroke="#CD5D5A" stroke-width="0.2"/>
<path d="M22.8999 27.2109C23.0791 27.3543 23.502 27.555 23.76 27.2109" stroke="#CD5D5A" stroke-width="0.2"/>
<ellipse cx="21.9322" cy="22.9106" rx="0.322533" ry="0.4838" fill="#CD5D5A"/>
<ellipse cx="25.48" cy="23.2328" rx="0.322533" ry="0.4838" fill="#CD5D5A"/>
<path d="M20.7495 21.6744C21.3587 21.2981 22.674 20.7713 23.061 21.6744M25.1037 21.8358C25.4621 21.4595 26.3078 20.9649 26.8239 21.997" stroke="#CD5D5A" stroke-width="0.2"/>
<path d="M17.3093 31.1889L17.7393 29.5225L22.2548 29.7375V30.9739C22.8461 31.0455 24.3943 31.3286 25.8564 31.8877C27.3186 32.4468 28.6517 33.6258 29.1355 34.1454L36.5 56.8303H0C2.88488 49.4299 8.89116 34.2852 9.83726 32.9091C10.7834 31.5329 15.2128 31.1889 17.3093 31.1889Z" fill="#4B5FFA"/>
<path d="M27.1464 48.6593C25.8563 48.7883 25.4621 47.2079 25.4263 46.4016L29.3504 34.3603V32.9627C29.5475 32.0309 30.1675 30.1567 31.0706 30.1137C31.9737 30.0707 32.737 30.6333 33.0058 30.92L33.3283 34.0916C32.7729 34.432 31.6404 35.1237 31.5544 35.1667C31.4684 35.2097 31.3394 34.9337 31.2856 34.7904C30.7122 38.5354 29.5869 46.1973 29.673 46.8854C29.7805 47.7455 28.7591 48.498 27.1464 48.6593Z" fill="#F2A88E"/>
<path d="M30.6206 30.252L31.2245 30.0251L31.6621 31.2457L31.0916 31.5059L30.6206 30.252Z" fill="#4B5FFA"/>
<path d="M32.4144 30.9736C31.8231 31.1707 30.6297 31.651 30.5867 31.995C30.5437 32.339 30.5688 32.8192 30.5867 33.0163L31.7695 32.425" stroke="#CD5D5A" stroke-width="0.2"/>
<path d="M31.9283 33.733L32.4729 33.4464L34.5221 38.8036L33.9182 39.0304L31.9283 33.733Z" fill="#4B5FFA"/>
<path d="M31.2856 34.1452L32.5758 33.3926" stroke="#CD5D5A" stroke-width="0.2"/>
<g style="mix-blend-mode:multiply">
<circle cx="29.2612" cy="25.563" r="4.60677" transform="rotate(-20.5877 29.2612 25.563)" fill="#EBF0FF"/>
<circle cx="29.2612" cy="25.563" r="4.60677" transform="rotate(-20.5877 29.2612 25.563)" stroke="#4B5FFA"/>
</g>
</svg>
