<svg width="65" height="14" viewBox="0 0 65 14" fill="none" xmlns="http://www.w3.org/2000/svg">
<path d="M6.99996 1.1665L8.80246 4.81817L12.8333 5.40734L9.91663 8.24817L10.605 12.2615L6.99996 10.3657L3.39496 12.2615L4.08329 8.24817L1.16663 5.40734L5.19746 4.81817L6.99996 1.1665Z" fill="#FF8A00"/>
<path d="M20 1.1665L21.8025 4.81817L25.8333 5.40734L22.9166 8.24817L23.605 12.2615L20 10.3657L16.395 12.2615L17.0833 8.24817L14.1666 5.40734L18.1975 4.81817L20 1.1665Z" fill="#FF8A00"/>
<path d="M33 1.1665L34.8025 4.81817L38.8333 5.40734L35.9166 8.24817L36.605 12.2615L33 10.3657L29.395 12.2615L30.0833 8.24817L27.1666 5.40734L31.1975 4.81817L33 1.1665Z" fill="#FF8A00"/>
<path d="M46 1.1665L47.8025 4.81817L51.8333 5.40734L48.9166 8.24817L49.605 12.2615L46 10.3657L42.395 12.2615L43.0833 8.24817L40.1666 5.40734L44.1975 4.81817L46 1.1665Z" fill="#FF8A00"/>
<path d="M58 1.1665L59.8025 4.81817L63.8333 5.40734L60.9166 8.24817L61.605 12.2615L58 10.3657L54.395 12.2615L55.0833 8.24817L52.1666 5.40734L56.1975 4.81817L58 1.1665Z" fill="#FF8A00"/>
</svg>
