<svg width="59" height="57" viewBox="0 0 59 57" fill="none" xmlns="http://www.w3.org/2000/svg">
<g clip-path="url(#clip0_3177_3819)">
<g opacity="0.5">
<path opacity="0.5" d="M36.0945 0.00105339L5.00854 14.1484L24.6006 57.0014L55.6866 42.854L36.0945 0.00105339Z" fill="url(#paint0_linear_3177_3819)"/>
</g>
<path d="M35.8444 0.495779L5.54932 14.2832L24.7084 56.1891L55.0035 42.4017L35.8444 0.495779Z" fill="white"/>
<path d="M27.7436 2.84482L12.7146 9.68457L14.3752 13.3167L29.4042 6.47698L27.7436 2.84482Z" fill="url(#paint1_linear_3177_3819)"/>
<path d="M18.6058 2.71472C17.4458 3.24284 16.9445 4.63166 17.4865 5.81694C18.0285 7.00223 19.4085 7.53501 20.5685 7.00688C21.7285 6.47876 22.2298 5.08994 21.6878 3.90466C21.1458 2.71937 19.7658 2.1866 18.6058 2.71472ZM20.1532 6.09896C19.9091 6.21711 19.6353 6.25999 19.3666 6.22213C19.098 6.18427 18.8468 6.06739 18.6451 5.88641C18.4433 5.70543 18.3002 5.46856 18.2341 5.20607C18.1679 4.94357 18.1816 4.66735 18.2736 4.41269C18.3655 4.15802 18.5314 3.93647 18.7501 3.77632C18.9688 3.61617 19.2304 3.52469 19.5014 3.51357C19.7725 3.50245 20.0407 3.57219 20.2719 3.71388C20.503 3.85557 20.6866 4.06279 20.7992 4.30906C20.8746 4.46895 20.9177 4.6421 20.9261 4.81862C20.9345 4.99514 20.9079 5.17157 20.8479 5.33784C20.7879 5.50411 20.6957 5.65697 20.5765 5.78767C20.4573 5.91838 20.3134 6.02438 20.1532 6.09963V6.09896Z" fill="url(#paint2_linear_3177_3819)"/>
<path d="M27.5854 2.91958L12.873 9.61523L14.4606 13.0876L29.1729 6.39197L27.5854 2.91958Z" fill="#4B5FFA"/>
<path d="M18.6785 2.87319C18.2716 3.05828 17.929 3.35957 17.6937 3.73898C17.4585 4.11838 17.3414 4.55885 17.3571 5.00469C17.3728 5.45052 17.5207 5.8817 17.782 6.24368C18.0434 6.60566 18.4064 6.88219 18.8253 7.0383C19.2442 7.19441 19.7 7.22309 20.1352 7.1207C20.5704 7.01832 20.9654 6.78947 21.2702 6.46311C21.5751 6.13674 21.7761 5.72751 21.8478 5.28718C21.9195 4.84684 21.8587 4.39518 21.6731 3.9893C21.4243 3.44512 20.9691 3.02183 20.4075 2.81253C19.8459 2.60322 19.2239 2.62505 18.6785 2.87319ZM20.1578 6.10911C19.9232 6.21584 19.6621 6.25075 19.4075 6.20945C19.153 6.16814 18.9165 6.05246 18.7278 5.87704C18.5392 5.70162 18.4069 5.47432 18.3477 5.2239C18.2885 4.97348 18.3051 4.71117 18.3953 4.47014C18.4855 4.22911 18.6453 4.02018 18.8546 3.86977C19.0638 3.71935 19.313 3.63421 19.5707 3.62511C19.8285 3.616 20.0831 3.68334 20.3025 3.81861C20.5218 3.95388 20.6961 4.151 20.8031 4.38506C20.9466 4.69898 20.9592 5.05689 20.8382 5.38008C20.7171 5.70326 20.4724 5.96526 20.1578 6.10844V6.10911Z" fill="#4B5FFA"/>
<path d="M16.5621 17.4709L10.0757 20.4229L13.0344 26.8944L19.5208 23.9424L16.5621 17.4709Z" fill="url(#paint3_linear_3177_3819)"/>
<path d="M22.4473 30.2853L15.9609 33.2373L18.9197 39.7089L25.4061 36.7569L22.4473 30.2853Z" fill="url(#paint4_linear_3177_3819)"/>
<path d="M16.4307 17.8159L10.4192 20.5518L13.1613 26.5495L19.1728 23.8136L16.4307 17.8159Z" fill="#69F0AE"/>
<path d="M22.24 30.521L16.2285 33.2568L18.9706 39.2545L24.9821 36.5187L22.24 30.521Z" fill="#4B5FFA"/>
<path d="M29.4733 14.1172L21.2334 17.8672L21.4957 18.4409L29.7356 14.6909L29.4733 14.1172Z" fill="#C8CAD4"/>
<path d="M35.2321 12.5367L21.6267 18.7285L21.889 19.3022L35.4944 13.1103L35.2321 12.5367Z" fill="#C8CAD4"/>
<path d="M34.6663 13.8322L22.0193 19.5879L22.2816 20.1616L34.9286 14.4059L34.6663 13.8322Z" fill="#C8CAD4"/>
<path d="M35.2831 26.8242L27.0432 30.5742L27.3055 31.1479L35.5454 27.3979L35.2831 26.8242Z" fill="#C8CAD4"/>
<path d="M41.0412 25.2417L27.4358 31.4336L27.6981 32.0073L41.3035 25.8154L41.0412 25.2417Z" fill="#C8CAD4"/>
<path d="M40.4762 26.5392L27.8291 32.2949L28.0914 32.8686L40.7385 27.1129L40.4762 26.5392Z" fill="#C8CAD4"/>
<path d="M13.2705 22.4456L14.8185 22.9471L15.3278 19.9746L16.0812 20.1801L15.2338 23.8551L12.8992 22.8341L13.2705 22.4456Z" fill="url(#paint5_linear_3177_3819)"/>
<path d="M13.4674 22.4059L14.8134 22.8416L15.256 20.2568L15.9107 20.4358L15.174 23.6311L13.144 22.7438L13.4674 22.4059Z" fill="white"/>
<path d="M19.3131 35.1921L20.6591 35.6277L21.1017 33.043L21.7564 33.2219L21.0197 36.4173L18.9897 35.53L19.3131 35.1921Z" fill="white"/>
<path d="M45.1528 35.4906L25.9314 44.2383L28.8539 50.6305L48.0753 41.8828L45.1528 35.4906Z" fill="#C8CAD4"/>
<path d="M42.3679 40.5854C41.6292 40.3752 40.8732 40.4152 40.6379 41.2579C40.5585 41.5419 40.5492 41.9829 40.2439 42.1292C39.7945 42.3447 39.2525 41.9137 38.8625 41.7381C38.1359 41.4109 37.3899 41.6337 36.9692 42.3214C36.7559 42.67 36.6645 43.0711 36.5919 43.4681C36.5605 43.6404 36.5565 43.8533 36.4839 44.0156C36.3445 44.3262 35.9085 44.2982 35.6225 44.2863C35.5599 44.2863 35.4959 44.279 35.4319 44.2723C35.658 43.9615 35.7709 43.583 35.7519 43.1994C35.7332 42.5695 35.3232 41.8805 34.6065 41.9576C33.9645 42.0241 33.5125 42.6427 33.5845 43.2686C33.6459 43.8007 33.9932 44.2131 34.4385 44.4659C34.2199 44.5623 33.9865 44.6375 33.7799 44.7372C33.6833 44.7839 33.5896 44.836 33.4992 44.8935C32.8745 44.5929 32.0539 44.5364 31.4918 44.843C31.2198 44.9913 31.4185 45.4323 31.6918 45.2826C32.1199 45.0492 32.5919 45.1077 33.0392 45.256L33.0765 45.2693C33.0323 45.3258 32.9933 45.3862 32.9599 45.4496C32.7072 45.9391 32.9599 46.7134 33.5745 46.7666C34.4412 46.8404 34.4819 45.6977 34.0112 45.2427C33.9912 45.2235 33.9712 45.2048 33.9499 45.1869C34.1445 45.0931 34.3552 45.0226 34.5412 44.9434C34.7032 44.875 34.8575 44.7893 35.0012 44.688L35.0345 44.6967C35.6965 44.8463 36.7299 44.8929 36.9679 44.0927C37.1719 43.3983 37.1912 41.9237 38.2912 42.06C38.7399 42.1153 39.1079 42.4591 39.5345 42.5835C39.9165 42.6972 40.3585 42.7019 40.6719 42.4212C40.9305 42.1897 40.9885 41.8479 41.0679 41.5286C41.1085 41.3636 41.1485 41.1668 41.2832 41.049C41.5265 40.8369 41.9285 40.9619 42.1999 41.0391C42.4965 41.1229 42.6685 40.6706 42.3679 40.5854ZM33.7679 46.2119C33.6219 46.3562 33.4672 46.2418 33.3892 46.0908C33.2945 45.9072 33.3352 45.7263 33.4559 45.5647C33.4756 45.5383 33.4967 45.513 33.5192 45.4888C33.8079 45.6751 34.0439 45.9418 33.7705 46.2119H33.7679ZM34.2799 42.6201C34.5799 42.3421 34.9979 42.4033 35.1765 42.785C35.3552 43.1668 35.2765 43.7056 35.0259 44.0422C34.9926 44.0863 34.9558 44.1277 34.9159 44.1659C34.7412 44.1076 34.5796 44.0156 34.4405 43.8952C34.0859 43.5759 33.8852 42.9859 34.2825 42.6181L34.2799 42.6201Z" fill="#4B5FFA"/>
<path d="M46.3653 14.7475L40.984 16.8407C39.972 16.7656 37.8427 16.4915 35.7293 15.4972C33.3767 14.3904 30.6813 14.393 28.396 15.5524C23.1293 15.6781 20.2307 15.0049 18.684 14.3677L19.092 13.5323L13.6373 11.4105L0 5.3125V30.3059L4.77267 32.4277L7.33267 26.3004L12.9547 28.8944L14.034 26.1581L17.7253 28.8911L17.9767 29.102L17.6307 29.4605C17.3134 29.7948 17.1366 30.2376 17.1366 30.698C17.1366 31.1583 17.3134 31.6012 17.6307 31.9355C17.7842 32.0974 17.9692 32.2264 18.1744 32.3145C18.3796 32.4027 18.6006 32.4481 18.824 32.4481C19.0474 32.4481 19.2684 32.4027 19.4736 32.3145C19.6788 32.2264 19.8638 32.0974 20.0173 31.9355L19.828 32.135C19.5108 32.4693 19.334 32.9122 19.334 33.3725C19.334 33.8329 19.5108 34.2757 19.828 34.61C19.9815 34.7719 20.1665 34.9009 20.3717 34.989C20.5769 35.0772 20.7979 35.1227 21.0213 35.1227C21.2447 35.1227 21.4658 35.0772 21.671 34.989C21.8761 34.9009 22.0611 34.7719 22.2147 34.61L23.308 33.4759L22.5573 34.2542C22.2401 34.5884 22.0633 35.0313 22.0633 35.4917C22.0633 35.952 22.2401 36.3949 22.5573 36.7292C22.7109 36.8911 22.8959 37.02 23.101 37.1082C23.3062 37.1963 23.5273 37.2418 23.7507 37.2418C23.9741 37.2418 24.1951 37.1963 24.4003 37.1082C24.6055 37.02 24.7905 36.8911 24.944 36.7292L26.0233 35.6097L25.5693 36.0806C25.3475 36.3142 25.2239 36.6236 25.2239 36.9453C25.2239 37.267 25.3475 37.5765 25.5693 37.81C25.6766 37.923 25.8058 38.0131 25.949 38.0746C26.0923 38.1362 26.2467 38.1679 26.4027 38.1679C26.5587 38.1679 26.713 38.1362 26.8563 38.0746C26.9996 38.0131 27.1288 37.923 27.236 37.81L27.956 37.0637C29.1927 37.965 30.1933 38.6228 30.6833 38.7931C32.7253 39.4995 32.7253 38.0847 32.7253 38.0847C35.4527 39.4988 36.8167 36.6706 36.8167 36.6706C40.226 38.0847 40.226 34.5488 40.226 34.5488C41.078 35.1381 41.6927 34.8681 42.122 34.3493C42.7067 33.6456 42.778 32.6525 42.3767 31.8557L45.6353 28.8512L47.0447 31.726L52.6667 29.1319L55.2267 34.7943L58.9967 33.1148V8.3828L46.3653 14.7475Z" fill="url(#paint6_linear_3177_3819)"/>
<path d="M45.4606 27.8342L39.526 33.0968L34.9106 24.5444L45.4606 21.9131V27.8342Z" fill="#BE7C5E"/>
<path d="M17.1052 14.0195C17.1052 14.0195 19.0098 16.6508 30.2925 15.993L36.8865 25.861L41.3052 30.821C41.9991 31.6005 42.0385 32.7825 41.3572 33.5727C40.9432 34.0523 40.3478 34.3043 39.5238 33.7556C39.5238 33.7556 39.5238 37.0447 36.2272 35.7291C36.2272 35.7291 34.9085 38.3604 32.2712 37.0447C32.2712 37.0447 32.2712 38.3604 30.2932 37.7025C28.3152 37.0447 17.7645 28.493 17.7645 28.493L13.1492 25.2039L17.1052 14.0195Z" fill="#FDA57D"/>
<path d="M40.8447 17.3085C40.8447 17.3085 37.9954 17.3085 35.178 16.0321C32.616 14.8728 29.6327 15.0204 27.2687 16.5423C25.342 17.7828 23.6727 19.8367 23.704 23.229C23.704 23.229 26.268 25.8603 28.9787 20.5977H30.9567C30.9567 20.5977 32.8614 27.1766 38.21 26.5174C43.5587 25.8583 44.804 25.2018 44.804 25.2018L40.8447 17.3085Z" fill="#BE7C5E"/>
<path d="M23.5315 30.2991L23.3175 30.0856C22.7393 29.5087 21.8018 29.5087 21.2235 30.0856L19.691 31.6146C19.1128 32.1916 19.1128 33.1269 19.691 33.7038L19.905 33.9174C20.4832 34.4943 21.4207 34.4943 21.999 33.9174L23.5315 32.3883C24.1097 31.8114 24.1097 30.8761 23.5315 30.2991Z" fill="#BE7C5E"/>
<path d="M21.408 27.8138L21.194 27.6003C20.6157 27.0233 19.6782 27.0233 19.1 27.6003L17.5675 29.1293C16.9892 29.7062 16.9892 30.6416 17.5675 31.2185L17.7815 31.432C18.3597 32.0089 19.2972 32.0089 19.8754 31.432L21.408 29.903C21.9862 29.3261 21.9862 28.3907 21.408 27.8138Z" fill="#BE7C5E"/>
<path d="M26.5 31.9427L26.286 31.7292C25.7078 31.1523 24.7703 31.1523 24.192 31.7292L22.33 33.587C21.7517 34.1639 21.7517 35.0992 22.33 35.6762L22.544 35.8897C23.1222 36.4666 24.0597 36.4666 24.638 35.8897L26.5 34.0319C27.0783 33.455 27.0783 32.5196 26.5 31.9427Z" fill="#BE7C5E"/>
<path d="M28.0605 34.2321L27.9111 34.083C27.5073 33.6801 26.8526 33.6801 26.4488 34.083L25.2736 35.2555C24.8698 35.6584 24.8698 36.3116 25.2736 36.7145L25.423 36.8636C25.8268 37.2664 26.4815 37.2664 26.8853 36.8636L28.0605 35.691C28.4643 35.2882 28.4643 34.635 28.0605 34.2321Z" fill="#BE7C5E"/>
<path d="M52.0537 29.15L46.1197 31.7813L40.1851 17.3084L45.4604 15.335L52.0537 29.15Z" fill="white"/>
<path d="M7.21655 25.8616L13.1506 28.4929L19.0852 14.02L13.8099 12.0459L7.21655 25.8616Z" fill="white"/>
<path d="M0.623047 6.125L13.8104 12.0454L5.23905 31.7815L0.623047 29.8081V6.125Z" fill="#17294D"/>
<path d="M58.6485 9.41504L45.4612 15.3361L54.0332 35.0716L58.6485 33.0981V9.41504Z" fill="#4B5FFA"/>
</g>
<defs>
<linearGradient id="paint0_linear_3177_3819" x1="40.1439" y1="49.9276" x2="20.626" y2="7.04087" gradientUnits="userSpaceOnUse">
<stop stop-color="#808080" stop-opacity="0.25"/>
<stop offset="0.54" stop-color="#808080" stop-opacity="0.12"/>
<stop offset="1" stop-color="#808080" stop-opacity="0.1"/>
</linearGradient>
<linearGradient id="paint1_linear_3177_3819" x1="9483.37" y1="-3629.76" x2="9384.08" y2="-3847.93" gradientUnits="userSpaceOnUse">
<stop stop-color="#808080" stop-opacity="0.25"/>
<stop offset="0.54" stop-color="#808080" stop-opacity="0.12"/>
<stop offset="1" stop-color="#808080" stop-opacity="0.1"/>
</linearGradient>
<linearGradient id="paint2_linear_3177_3819" x1="2802.52" y1="-721.15" x2="2664.35" y2="-1024.74" gradientUnits="userSpaceOnUse">
<stop stop-color="#808080" stop-opacity="0.25"/>
<stop offset="0.54" stop-color="#808080" stop-opacity="0.12"/>
<stop offset="1" stop-color="#808080" stop-opacity="0.1"/>
</linearGradient>
<linearGradient id="paint3_linear_3177_3819" x1="3841.12" y1="861.553" x2="3525.94" y2="169.005" gradientUnits="userSpaceOnUse">
<stop stop-color="#808080" stop-opacity="0.25"/>
<stop offset="0.54" stop-color="#808080" stop-opacity="0.12"/>
<stop offset="1" stop-color="#808080" stop-opacity="0.1"/>
</linearGradient>
<linearGradient id="paint4_linear_3177_3819" x1="4481.17" y1="2241.16" x2="4165.95" y2="1548.55" gradientUnits="userSpaceOnUse">
<stop stop-color="#808080" stop-opacity="0.25"/>
<stop offset="0.54" stop-color="#808080" stop-opacity="0.12"/>
<stop offset="1" stop-color="#808080" stop-opacity="0.1"/>
</linearGradient>
<linearGradient id="paint5_linear_3177_3819" x1="1762.92" y1="516.406" x2="1678.52" y2="330.944" gradientUnits="userSpaceOnUse">
<stop stop-color="#808080" stop-opacity="0.25"/>
<stop offset="0.54" stop-color="#808080" stop-opacity="0.12"/>
<stop offset="1" stop-color="#808080" stop-opacity="0.1"/>
</linearGradient>
<linearGradient id="paint6_linear_3177_3819" x1="35375.6" y1="20451.3" x2="35375.6" y2="3399.4" gradientUnits="userSpaceOnUse">
<stop stop-color="#808080" stop-opacity="0.25"/>
<stop offset="0.54" stop-color="#808080" stop-opacity="0.12"/>
<stop offset="1" stop-color="#808080" stop-opacity="0.1"/>
</linearGradient>
<clipPath id="clip0_3177_3819">
<rect width="59" height="57" fill="white"/>
</clipPath>
</defs>
</svg>
