<svg width="37" height="36" viewBox="0 0 37 36" fill="none" xmlns="http://www.w3.org/2000/svg">
<rect x="0.794922" y="0.0976562" width="35.3011" height="35.3011" rx="17.6506" fill="#EBF0FF"/>
<g clip-path="url(#clip0_725_19600)">
<path d="M10.3555 15.5424C9.9493 15.5424 9.62003 15.8717 9.62003 16.2779C9.62003 16.684 9.9493 17.0133 10.3555 17.0133V15.5424ZM26.5351 17.0133C26.9413 17.0133 27.2706 16.684 27.2706 16.2779C27.2706 15.8717 26.9413 15.5424 26.5351 15.5424V17.0133ZM11.8263 12.6007H25.0643V11.1298H11.8263V12.6007ZM25.0643 12.6007C25.4704 12.6007 25.7997 12.9299 25.7997 13.3361H27.2706C27.2706 12.1176 26.2828 11.1298 25.0643 11.1298V12.6007ZM25.7997 13.3361V22.1614H27.2706V13.3361H25.7997ZM25.7997 22.1614C25.7997 22.5676 25.4704 22.8968 25.0643 22.8968V24.3677C26.2828 24.3677 27.2706 23.3799 27.2706 22.1614H25.7997ZM25.0643 22.8968H11.8263V24.3677H25.0643V22.8968ZM11.8263 22.8968C11.4202 22.8968 11.0909 22.5676 11.0909 22.1614H9.62003C9.62003 23.3799 10.6078 24.3677 11.8263 24.3677V22.8968ZM11.0909 22.1614V13.3361H9.62003V22.1614H11.0909ZM11.0909 13.3361C11.0909 12.9299 11.4202 12.6007 11.8263 12.6007V11.1298C10.6078 11.1298 9.62003 12.1176 9.62003 13.3361H11.0909ZM10.3555 17.0133H26.5351V15.5424H10.3555V17.0133Z" fill="#4B5FFA"/>
</g>
<defs>
<clipPath id="clip0_725_19600">
<rect width="17.6506" height="17.6506" fill="white" transform="translate(9.61914 8.92383)"/>
</clipPath>
</defs>
</svg>
