<svg width="37" height="36" viewBox="0 0 37 36" fill="none" xmlns="http://www.w3.org/2000/svg">
<rect x="0.738281" y="0.0976562" width="35.3011" height="35.3011" rx="17.6506" fill="#EBF0FF"/>
<path d="M13.7061 12.0313C13.4189 11.7441 12.9533 11.7441 12.6661 12.0313C12.3788 12.3185 12.3788 12.7842 12.6661 13.0714L13.7061 12.0313ZM23.0652 23.4705C23.3524 23.7577 23.818 23.7577 24.1052 23.4705C24.3925 23.1833 24.3925 22.7176 24.1052 22.4304L23.0652 23.4705ZM25.0046 17.7509C25.0046 21.4064 22.0412 24.3698 18.3856 24.3698V25.8407C22.8535 25.8407 26.4755 22.2188 26.4755 17.7509H25.0046ZM18.3856 24.3698C14.7301 24.3698 11.7667 21.4064 11.7667 17.7509H10.2958C10.2958 22.2188 13.9178 25.8407 18.3856 25.8407V24.3698ZM11.7667 17.7509C11.7667 14.0953 14.7301 11.1319 18.3856 11.1319V9.66104C13.9178 9.66104 10.2958 13.283 10.2958 17.7509H11.7667ZM18.3856 11.1319C22.0412 11.1319 25.0046 14.0953 25.0046 17.7509H26.4755C26.4755 13.283 22.8535 9.66104 18.3856 9.66104V11.1319ZM12.6661 13.0714L23.0652 23.4705L24.1052 22.4304L13.7061 12.0313L12.6661 13.0714Z" fill="#4B5FFA"/>
</svg>
