<svg width="37" height="36" viewBox="0 0 37 36" fill="none" xmlns="http://www.w3.org/2000/svg">
<rect x="0.851562" y="0.0976562" width="35.3011" height="35.3011" rx="17.6506" fill="#EBF0FF"/>
<path d="M18.5028 18.4842L18.0811 19.0867C18.3343 19.2639 18.6714 19.2639 18.9246 19.0867L18.5028 18.4842ZM12.6193 12.6007H24.3864V11.1298H12.6193V12.6007ZM24.3864 12.6007C24.7892 12.6007 25.1218 12.9333 25.1218 13.3361H26.5927C26.5927 12.121 25.6015 11.1298 24.3864 11.1298V12.6007ZM25.1218 13.3361V22.1614H26.5927V13.3361H25.1218ZM25.1218 22.1614C25.1218 22.5642 24.7892 22.8968 24.3864 22.8968V24.3677C25.6015 24.3677 26.5927 23.3765 26.5927 22.1614H25.1218ZM24.3864 22.8968H12.6193V24.3677H24.3864V22.8968ZM12.6193 22.8968C12.2165 22.8968 11.8839 22.5642 11.8839 22.1614H10.413C10.413 23.3765 11.4042 24.3677 12.6193 24.3677V22.8968ZM11.8839 22.1614V13.3361H10.413V22.1614H11.8839ZM11.8839 13.3361C11.8839 12.9333 12.2165 12.6007 12.6193 12.6007V11.1298C11.4042 11.1298 10.413 12.121 10.413 13.3361H11.8839ZM25.4355 12.7336L18.0811 17.8817L18.9246 19.0867L26.279 13.9386L25.4355 12.7336ZM18.9246 17.8817L11.5702 12.7336L10.7267 13.9386L18.0811 19.0867L18.9246 17.8817Z" fill="#4B5FFA"/>
</svg>
