<svg width="291" height="188" viewBox="0 0 291 188" fill="none" xmlns="http://www.w3.org/2000/svg">
<path d="M291 185.874H0V187.999H291V185.874Z" fill="#85848B"/>
<path d="M230.547 148.355C230.547 149.99 221.012 154.755 209.686 154.755C198.36 154.755 189.535 149.99 189.535 148.355C189.535 146.72 198.715 147.247 210.052 147.247C221.389 147.247 230.547 146.718 230.547 148.355Z" fill="#504F60"/>
<path opacity="0.2" d="M230.547 148.356C230.547 149.991 221.012 154.756 209.686 154.756C198.36 154.756 189.535 149.991 189.535 148.356" fill="black"/>
<path d="M116.487 118.361C118.326 118.597 120.233 118.746 121.994 118.176C122.271 118.09 122.576 117.899 122.548 117.622C122.528 117.521 122.486 117.426 122.423 117.345C121.76 116.35 121.202 115.289 120.76 114.178C120.742 114.12 120.706 114.069 120.657 114.034C120.6 114.013 120.537 114.013 120.48 114.034C119.668 114.247 118.966 114.771 118.159 114.995C117.748 115.108 117.319 115.14 116.895 115.089C116.529 115.048 116.03 114.746 115.697 114.785C115.886 115.995 116.346 117.126 116.487 118.361Z" fill="#6C63FF"/>
<path d="M151.251 115.295C152.462 114.464 153.718 113.591 154.434 112.308C154.485 112.231 154.514 112.142 154.52 112.05C154.507 111.96 154.472 111.874 154.417 111.801C153.736 110.719 152.858 109.773 151.83 109.011C151.294 109.39 150.809 109.837 150.389 110.341C150.084 110.662 149.241 111.172 149.232 111.663C149.232 111.94 149.554 112.261 149.704 112.494C149.906 112.793 150.097 113.098 150.28 113.408C150.386 113.56 151.348 115.234 151.251 115.295Z" fill="#6C63FF"/>
<path d="M123.694 122.071C123.715 122.357 123.637 122.641 123.472 122.875C123.343 123.005 123.182 123.1 123.006 123.152C120.436 124.071 117.461 122.924 114.897 123.83C114.37 124.016 113.871 124.285 113.341 124.462C112.71 124.652 112.059 124.767 111.4 124.806C110.494 124.891 109.582 124.947 108.672 124.972C107.981 125.021 107.287 124.96 106.615 124.792C106.279 124.706 105.965 124.55 105.693 124.335C105.421 124.12 105.198 123.85 105.037 123.542C104.898 123.267 104.87 122.948 104.96 122.653C105 122.552 105.057 122.458 105.129 122.376C105.303 122.181 105.507 122.016 105.733 121.886L106.679 121.276C107.122 120.963 107.604 120.708 108.112 120.517C108.486 120.395 108.883 120.342 109.263 120.24C110.591 119.852 111.606 118.799 112.548 117.788L113.835 116.417C113.955 116.266 114.107 116.144 114.281 116.059C114.459 116 114.649 115.982 114.836 116.007C116.085 116.096 117.292 116.5 118.343 117.181C118.611 117.383 118.902 117.554 119.208 117.691C119.962 117.985 120.93 117.763 121.626 117.392C121.955 117.215 121.883 117.115 122.022 116.799C122.161 116.483 122.499 116.281 122.793 116.569C122.881 116.669 122.944 116.789 122.976 116.918C123.253 117.832 123.148 118.816 123.148 119.774C123.14 119.924 123.158 120.074 123.203 120.218C123.274 120.362 123.358 120.5 123.455 120.628C123.475 120.662 123.493 120.697 123.508 120.733C123.678 121.157 123.741 121.617 123.694 122.071Z" fill="#514E7F"/>
<path d="M123.694 122.07C123.715 122.356 123.637 122.64 123.472 122.874C123.343 123.004 123.182 123.099 123.006 123.151C120.436 124.071 117.461 122.924 114.897 123.83C114.37 124.015 113.871 124.284 113.341 124.461C112.71 124.651 112.059 124.766 111.4 124.805C110.494 124.891 109.582 124.946 108.672 124.971C107.981 125.02 107.287 124.959 106.615 124.791C106.279 124.705 105.965 124.549 105.693 124.334C105.421 124.119 105.198 123.849 105.037 123.541C104.898 123.266 104.87 122.948 104.96 122.652C105 122.551 105.057 122.457 105.129 122.375C105.279 122.688 105.387 123.104 105.481 123.253C105.608 123.475 105.782 123.667 105.989 123.817C106.197 123.966 106.434 124.07 106.684 124.12C107.06 124.143 107.436 124.096 107.793 123.979C110.122 123.403 112.598 123.395 114.836 122.522C115.604 122.22 116.336 121.818 117.142 121.635C117.949 121.453 118.806 121.502 119.638 121.433C120.952 121.328 122.224 120.932 123.519 120.724C123.686 121.152 123.746 121.614 123.694 122.07Z" fill="#464353"/>
<path d="M157.14 115.125C157.018 116.101 156.4 116.94 155.721 117.652C155.041 118.364 154.273 119.004 153.733 119.824C153.067 120.841 152.768 122.101 151.903 122.96C151.571 123.273 151.198 123.538 150.794 123.75C150.341 124.017 149.863 124.237 149.366 124.406C148.074 124.819 146.682 124.725 145.332 124.625C144.894 124.621 144.46 124.538 144.051 124.379C143.865 124.284 143.687 124.175 143.519 124.052C143.18 123.844 142.895 123.559 142.687 123.221C142.585 123.037 142.556 122.821 142.606 122.617C142.684 122.392 142.816 122.19 142.992 122.029C143.296 121.714 143.622 121.42 143.968 121.151C144.442 120.845 144.87 120.472 145.238 120.043C145.463 119.704 145.629 119.329 145.728 118.935C145.925 118.244 146.045 117.533 146.086 116.815C146.084 116.339 146.134 115.863 146.233 115.397C146.438 114.666 146.982 114.012 146.921 113.255C146.896 113.147 146.906 113.034 146.948 112.931C147.013 112.851 147.103 112.795 147.203 112.773C147.627 112.605 148.074 112.501 148.529 112.466C148.757 112.45 148.985 112.485 149.198 112.569C149.411 112.652 149.603 112.781 149.76 112.948C149.948 113.175 150.073 113.502 150.35 113.591C150.488 113.628 150.632 113.634 150.772 113.607C151.454 113.538 152.175 113.452 152.712 113.012C152.961 112.789 153.161 112.517 153.299 112.213C153.438 111.91 153.511 111.58 153.516 111.247C153.516 110.995 153.403 110.732 153.794 110.693C154.088 110.654 154.32 110.97 154.47 111.164C155.011 111.887 155.565 112.643 155.768 113.524C155.846 113.494 155.93 113.478 156.014 113.477C156.187 113.475 156.358 113.516 156.512 113.594C156.666 113.673 156.799 113.788 156.899 113.929C157.12 114.286 157.205 114.711 157.14 115.125Z" fill="#514E7F"/>
<path d="M157.139 115.127C157.017 116.102 156.399 116.941 155.719 117.653C155.04 118.365 154.272 119.005 153.731 119.825C153.066 120.842 152.767 122.103 151.901 122.961C151.569 123.274 151.196 123.539 150.792 123.751C150.34 124.018 149.862 124.238 149.365 124.408C148.073 124.82 146.681 124.726 145.331 124.626C144.892 124.622 144.458 124.539 144.05 124.38C143.864 124.285 143.686 124.176 143.517 124.053C143.179 123.845 142.894 123.56 142.686 123.222C142.945 123.097 143.229 123.029 143.517 123.022C144.116 123.056 144.554 123.621 145.128 123.795C145.946 124.042 146.761 123.466 147.59 123.269C148.131 123.141 148.699 123.175 149.234 122.992C149.68 122.82 150.092 122.57 150.451 122.255C150.944 121.903 151.382 121.481 151.752 121.003C152.059 120.524 152.315 120.014 152.514 119.482C152.952 118.461 153.467 117.476 154.056 116.534C154.143 116.385 154.248 116.247 154.369 116.124C154.499 116.005 154.646 115.922 154.793 115.816C155.348 115.398 155.578 114.708 155.772 114.032C155.825 113.827 155.898 113.627 155.991 113.437C156.164 113.435 156.335 113.475 156.489 113.554C156.643 113.633 156.775 113.747 156.875 113.888C157.114 114.254 157.208 114.695 157.139 115.127Z" fill="#464353"/>
<path d="M99.0014 28.7501C99.6915 29.2668 100.259 29.9289 100.665 30.6894C101.053 31.4485 103.29 37.3385 103.16 38.1945C103.889 37.4604 106.764 37.3413 107.502 36.6071C107.81 36.2996 109.47 34.7647 109.72 34.4073C109.97 34.05 111.822 33.2992 112.024 32.9224C112.781 31.5676 106.656 26.434 107.441 25.0959C107.484 25.0344 107.507 24.9605 107.505 24.8853C107.487 24.8221 107.451 24.7654 107.402 24.7218C106.9 24.2093 106.235 23.8907 105.63 23.5112C105.026 23.1316 104.444 22.6025 104.28 21.9043C103.704 22.1694 103.175 22.5269 102.714 22.9626C101.59 23.9249 100.486 24.9065 99.4006 25.9076C98.9764 26.301 98.1557 26.8246 97.9589 27.387C97.726 27.991 98.5966 28.4204 99.0014 28.7501Z" fill="#A1616A"/>
<path d="M108.917 26.5698C107.978 27.2008 107.1 27.9187 106.295 28.7142C105.535 29.4649 104.814 30.3349 104.631 31.3849C104.553 31.7977 104.564 32.216 104.501 32.6343C104.223 34.449 102.654 35.7788 101.961 37.4771C101.76 38.0012 101.613 38.5442 101.52 39.0978C101.325 40.1472 101.219 41.2111 101.201 42.2783C101.185 43.3117 102.199 44.0237 102.571 44.9878C102.943 45.9519 103.042 46.9437 103.231 47.9328C103.586 49.8 104.237 51.6008 104.894 53.3906C106.261 57.1639 110.692 67.5947 112.059 71.3708C116.248 70.3208 127.399 67.9077 131.109 65.6941C132.345 64.9572 122.528 56.6431 123.85 56.0696C123.926 56.0578 123.998 56.0287 124.06 55.9844C124.122 55.9401 124.174 55.882 124.21 55.8146C124.246 55.7471 124.266 55.6722 124.268 55.5958C124.27 55.5194 124.254 55.4435 124.222 55.3742C122.899 49.595 118.763 44.8465 116.886 39.2197C116.234 37.2665 115.064 35.5987 114.177 33.7425C113.373 32.0609 112.943 30.2019 111.981 28.6033C111.8 28.274 111.562 27.9787 111.28 27.7306C111.04 27.5468 110.78 27.3898 110.506 27.2624C109.957 26.9965 109.447 26.8386 108.917 26.5698Z" fill="#514E7F"/>
<path d="M99.2231 28.0913C102.844 28.0913 105.78 25.1578 105.78 21.5392C105.78 17.9205 102.844 14.9871 99.2231 14.9871C95.6017 14.9871 92.666 17.9205 92.666 21.5392C92.666 25.1578 95.6017 28.0913 99.2231 28.0913Z" fill="#A1616A"/>
<path d="M105.893 24.6191C106.219 24.318 106.63 24.1228 107.07 24.0595C107.51 23.9962 107.959 24.0677 108.357 24.2645C108.801 24.4945 109.189 24.9599 109.089 25.4475L112.342 25.4974C112.859 25.4832 113.377 25.5307 113.883 25.6387C114.393 25.7496 114.848 26.0347 115.169 26.4449C115.208 26.4975 115.253 26.5612 115.319 26.5695C115.373 26.5704 115.426 26.5528 115.469 26.5197C115.969 26.269 116.533 26.1725 117.088 26.2426C118.846 26.3562 120.471 27.2345 121.849 28.3316C122.097 28.5022 122.29 28.7421 122.403 29.0214C122.517 29.3899 122.381 29.8525 122.68 30.1157C122.68 33.1632 123.728 36.0112 124.427 38.9812C124.552 39.5103 125.059 39.9785 125.411 40.3941C125.846 40.8548 126.201 41.3848 126.462 41.9622C127.055 43.5025 126.237 45.3144 126.814 46.8603C127.058 47.5141 127.529 48.0516 127.923 48.6196C128.442 49.2754 128.77 50.0614 128.871 50.8913C128.896 51.2626 128.849 51.6366 128.871 51.9995C128.909 52.4987 129.002 52.9921 129.149 53.4706C129.385 54.3646 129.633 55.2576 129.892 56.1496C130.313 57.5903 130.862 59.1445 132.154 59.9119C129.035 60.4411 125.747 60.9591 122.775 59.8759C122.36 59.7346 121.966 59.538 121.605 59.2913C120.532 58.5267 120.013 57.219 119.55 55.9834C119.034 54.5982 118.51 53.188 118.405 51.7142C118.406 51.2454 118.34 50.7789 118.208 50.3289C117.906 49.5255 117.099 49.0407 116.367 48.5946C115.541 48.1421 114.792 47.5603 114.149 46.8714C113.83 46.5244 113.586 46.1158 113.432 45.6707C113.277 45.2256 113.216 44.7536 113.251 44.2838C113.306 43.8267 113.487 43.3862 113.503 42.9263C113.52 42.4664 113.315 41.94 112.874 41.8181C110.603 41.131 109.519 38.4437 109.014 36.1276C108.797 34.9305 108.699 33.7147 108.723 32.4983L108.693 30.1351C108.379 29.8502 108.127 29.5046 107.952 29.1193C107.777 28.734 107.682 28.317 107.673 27.8938C107.703 27.6469 107.698 27.397 107.659 27.1513C107.549 26.8511 107.37 26.5807 107.137 26.3618C106.636 25.8476 106.216 25.26 105.893 24.6191Z" fill="#3D24AC"/>
<path d="M98.9116 32.1091C98.8368 32.8405 99.0031 33.5913 98.8396 34.3089C98.7758 34.5859 98.6649 34.863 98.5845 35.1206C98.3387 36.1534 98.445 37.2386 98.8867 38.2041C99.3277 39.1601 99.8558 40.0736 100.464 40.933C100.67 41.2264 100.839 41.5436 100.969 41.8777C101.074 42.2286 101.139 42.5901 101.163 42.9554C101.324 44.4226 101.581 45.8774 101.934 47.3106C102.244 48.5518 105.771 59.1626 106.592 60.1461C106.74 60.3638 106.966 60.5173 107.224 60.5755C107.409 60.5825 107.594 60.5445 107.762 60.4647L109.425 59.8275C109.567 59.7842 109.698 59.7126 109.81 59.6169C109.966 59.4349 110.051 59.2027 110.049 58.9631C110.168 57.6111 106.633 46.9255 106.184 45.6483C104.825 41.7919 103.018 38.0739 102.133 34.0817C101.887 32.9735 101.756 31.2669 100.944 30.3831C100.608 30.0174 100.722 30.1726 100.32 30.3637C100.117 30.4518 99.9205 30.5546 99.7323 30.6713C99.497 30.8347 99.3012 31.0487 99.1592 31.2974C99.0172 31.5462 98.9326 31.8235 98.9116 32.1091Z" fill="#3D24AC"/>
<path d="M103.958 39.4271C104.404 41.7848 104.864 44.1369 105.322 46.4945L111.832 44.7907C111.884 44.1092 111.521 43.4775 111.277 42.8514C110.684 41.3636 110.67 39.7069 110.19 38.1776C109.827 37.014 109.195 35.9446 108.854 34.7727C108.657 34.0912 108.557 33.3875 108.363 32.6977C108.155 32.0202 107.899 31.3583 107.598 30.7168C107.233 29.7865 106.756 28.9037 106.178 28.0876C105.347 28.3979 104.46 28.7581 103.985 29.5089C103.742 29.9319 103.603 30.4068 103.581 30.8941C103.467 32.3541 103.996 33.8225 103.822 35.2742C103.642 36.6567 103.688 38.0593 103.958 39.4271Z" fill="#4B5FFA"/>
<path d="M111.942 70.7864C112.308 72.1717 111.778 73.6289 111.345 75.0003C110.694 77.0659 110.25 79.1912 110.02 81.3446C109.992 81.8926 109.882 82.4334 109.693 82.9487C109.488 83.4114 109.139 83.802 108.9 84.2425C108.246 85.4006 108.262 86.8135 108.404 88.1378C108.498 89.0105 108.639 89.8804 108.814 90.7392C109.028 91.7892 109.291 92.8863 108.983 93.9114C109.499 93.7978 109.848 94.4655 109.815 94.9891C109.782 95.5127 109.613 96.0973 109.865 96.5489C110.503 96.7816 110.508 97.657 110.489 98.3358C110.499 99.5127 110.648 100.684 110.932 101.827C111.897 106.462 112.921 111.085 114.004 115.695C116.347 116.421 119.084 117.178 121.318 116.172C121.734 115.986 122.15 115.69 122.244 115.241C122.269 114.999 122.238 114.755 122.156 114.526L121.096 110.675C120.839 109.744 120.581 108.783 120.717 107.827C120.819 107.115 121.13 106.348 120.78 105.719C120.661 105.503 120.473 105.334 120.334 105.129C119.78 104.317 120.071 103.231 120.115 102.248C120.132 102.027 120.117 101.805 120.071 101.588C119.995 101.335 119.889 101.093 119.755 100.865C118.879 99.1672 118.459 97.2716 118.535 95.3631C118.568 95.1195 118.534 94.8716 118.438 94.6455C118.37 94.5522 118.31 94.4541 118.257 94.3519C118.216 94.174 118.237 93.9874 118.316 93.8227C117.998 93.5818 117.711 93.3027 117.462 92.9916C117.615 92.8961 117.746 92.7669 117.842 92.6138C117.938 92.4607 117.999 92.2877 118.019 92.1078C118.038 91.9279 118.017 91.746 117.956 91.5756C117.895 91.4052 117.796 91.2509 117.667 91.1243C117.78 91.1016 117.884 91.0479 117.969 90.9694C118.053 90.8908 118.114 90.7904 118.145 90.6793C118.176 90.5683 118.175 90.4508 118.143 90.3401C118.111 90.2294 118.049 90.1297 117.964 90.0521C117.828 89.9579 117.647 89.9164 117.55 89.7751C117.401 89.5701 117.523 89.2847 117.645 89.0659L118.291 87.8995C118.773 87.0324 118.881 85.9602 119.4 85.1291C120.143 83.9184 120.628 82.5692 121.108 81.2338L122.973 76.0891L124.229 77.1779C124.648 77.4972 124.998 77.8965 125.261 78.3525C125.439 78.8032 125.552 79.2772 125.596 79.7599C126.057 82.5525 127.814 84.9739 128.466 87.725C128.61 88.3372 128.707 88.98 129.059 89.5036C129.185 89.6643 129.298 89.8348 129.397 90.0134C129.489 90.2857 129.537 90.571 129.539 90.8583C129.597 91.4211 129.776 91.9647 130.063 92.4523C130.35 92.9399 130.738 93.36 131.202 93.6842C131.821 94.1081 132.589 94.399 132.924 95.0694C132.991 95.2771 133.084 95.4753 133.201 95.6595C133.501 96.0197 134.147 96.0612 134.274 96.5128C134.346 96.7649 134.213 97.0669 134.355 97.2886C134.435 97.3911 134.541 97.4705 134.663 97.5185L136.467 98.4189C138.486 99.4273 139.517 101.743 141.006 103.431C141.52 103.98 141.976 104.582 142.365 105.226C143.008 106.376 143.305 107.819 144.391 108.55C144.684 108.702 144.949 108.899 145.179 109.135C145.52 109.584 145.395 110.213 145.425 110.778C145.456 111.343 145.889 112.016 146.426 111.845C146.238 112.529 146.238 113.252 146.426 113.936C148.788 113.815 151.04 112.904 152.82 111.349C153.347 110.889 153.854 110.301 153.86 109.603C153.868 109.483 153.841 109.362 153.782 109.257C153.675 109.121 153.535 109.014 153.374 108.949C151.686 108.035 151.179 105.916 150.325 104.195C149.579 102.677 148.475 101.369 147.552 99.9593C145.545 96.9256 144.175 93.2548 141.139 91.2517C140.471 90.8112 139.695 90.4206 139.359 89.692C139.173 89.2847 139.151 88.8193 139.004 88.3982C138.857 87.9771 138.505 87.567 138.056 87.567C138.306 86.9575 138.256 86.2151 138.272 85.5557C138.289 85.2631 138.256 84.9697 138.173 84.6886C138.057 84.3861 137.907 84.0979 137.726 83.8297C136.934 82.4896 136.538 80.9527 136.584 79.397C136.606 78.5963 136.747 77.7707 136.506 77.0061C136.384 76.621 136.171 76.2692 136.024 75.8979C135.802 75.2252 135.686 74.5226 135.677 73.8145L135.511 71.1521C135.486 70.2655 135.371 69.3836 135.167 68.5202C134.613 66.4534 134.058 57.7958 132.159 56.8206C130.26 55.8454 126.996 62.5083 124.859 62.6385C123.913 62.6779 122.979 62.8581 122.086 63.1732C120.664 63.7052 119.472 64.697 118.31 65.6666L114.379 68.9662C113.547 69.6505 112.859 70.3044 111.942 70.7864Z" fill="#464353"/>
<path d="M93.07 14.2647C93.935 13.0845 95.4211 12.4583 96.885 12.4057C98.3489 12.3531 99.7906 12.813 101.102 13.464C101.489 13.684 101.903 13.8534 102.333 13.9682C103.026 14.1095 103.797 13.9211 104.424 14.2453C105.255 14.6858 105.416 15.8078 105.344 16.7387C105.272 17.6696 105.097 18.7029 105.594 19.5091C105.77 19.7391 105.93 19.9806 106.073 20.2322C106.287 20.7115 106.162 21.2656 106.034 21.7726C105.71 21.4956 105.527 21.0772 105.239 20.7558C104.95 20.4345 104.448 20.2184 104.091 20.4594C103.733 20.7004 103.739 21.1382 103.719 21.5316C103.7 21.925 103.6 22.396 103.229 22.5234C103.073 22.5587 102.911 22.5467 102.763 22.4889C102.615 22.4311 102.487 22.3302 102.397 22.1993C101.762 21.4235 102.017 20.1851 101.388 19.4039C101.03 18.9606 100.434 18.7445 100.104 18.2791C99.8433 17.9134 99.7768 17.4479 99.5494 17.0545C99.3221 16.6611 98.7925 16.373 98.4404 16.6445C98.3202 16.7592 98.22 16.8931 98.1437 17.0407C97.9242 17.3549 97.6049 17.586 97.2377 17.6966C96.8704 17.8072 96.4766 17.7909 96.1198 17.6502C95.8471 17.4829 95.5522 17.3551 95.2436 17.2706C95.0417 17.2605 94.841 17.3071 94.6641 17.405C94.4872 17.5029 94.3413 17.6483 94.2428 17.8247C94.0438 18.1772 93.9477 18.5784 93.9655 18.9828C93.9655 19.5369 94.0653 20.127 93.7493 20.5702C93.6291 20.7371 93.4786 20.8799 93.3056 20.9913C92.8426 21.2878 92.1966 21.4873 91.7697 21.1493C91.6249 21.0146 91.5173 20.845 91.4571 20.6567C91.3969 20.4685 91.3861 20.2679 91.4259 20.0743C91.509 19.6887 91.6183 19.3092 91.753 18.9384C91.997 18.0796 91.6782 17.1127 91.9443 16.3037C92.2231 15.5752 92.602 14.8889 93.07 14.2647Z" fill="#464353"/>
<path d="M96.5833 33.8098C96.5416 34.0117 96.5629 34.2215 96.6443 34.411C96.7267 34.54 96.8389 34.6473 96.9714 34.724C97.9038 35.3044 98.9642 35.6478 100.06 35.7242C100.209 35.7267 100.355 35.7647 100.487 35.835C100.748 36.0067 100.764 36.3891 100.667 36.6938C100.538 36.9813 100.471 37.2929 100.47 37.6081C100.551 38.1871 101.238 38.4392 101.818 38.5251C102.63 38.6276 103.52 38.5749 104.163 38.068C104.599 37.6708 104.931 37.1735 105.131 36.619C106.722 32.9648 107.28 28.9255 108.891 25.2823C109.013 25.0444 109.094 24.7879 109.132 24.5232C109.149 24.3907 109.13 24.2561 109.077 24.1333C109.025 24.0106 108.94 23.9041 108.832 23.8251C108.533 23.6394 108.067 23.7447 107.865 23.4538C107.765 23.307 107.776 23.1075 107.687 22.9524C107.502 22.6227 107.014 22.6753 106.681 22.4842C106.42 22.3456 106.24 22.0603 105.949 22.0049C105.806 21.9968 105.663 22.0222 105.532 22.0789C105.4 22.1357 105.284 22.2222 105.192 22.3318C104.247 23.2128 103.75 24.4623 103.223 25.6425C102.419 27.4516 101.477 29.1965 100.407 30.862C100.531 30.6681 99.8077 29.1997 99.5249 29.136C99.0286 29.0363 98.3937 29.9062 98.1248 30.2304C97.2809 31.2528 96.7461 32.4945 96.5833 33.8098Z" fill="#4B5FFA"/>
<path opacity="0.1" d="M106.658 22.7427C106.459 22.746 106.263 22.794 106.085 22.8832C105.907 22.9724 105.751 23.1005 105.629 23.258C105.333 23.6431 105.274 24.1528 105.199 24.6432C104.947 26.1968 104.392 27.6858 103.566 29.0261" fill="black"/>
<path opacity="0.1" d="M108.071 23.8494C107.796 23.8555 107.527 23.933 107.291 24.0744C107.056 24.2158 106.861 24.4161 106.726 24.6556C106.542 25.0913 106.428 25.5531 106.388 26.0242C106.15 27.0685 105.691 28.05 105.043 28.9027" fill="black"/>
<path d="M173.963 78.0094V74.5685C173.962 72.0355 172.955 69.6065 171.162 67.8157C169.369 66.0248 166.938 65.0188 164.403 65.0188H28.4132C25.8783 65.0188 23.4472 66.0248 21.6545 67.8157C19.8618 69.6065 18.8543 72.0355 18.8535 74.5685V80.9129L173.963 78.0094Z" fill="#17294D"/>
<path d="M66.2436 60.9864C66.2436 60.9864 65.8554 85.0505 70.1251 92.9684C74.3948 100.886 76.2247 135.331 76.2247 135.331C76.2247 135.331 120.985 139.958 152.176 129.791C183.367 119.623 249.736 115.465 249.736 115.465L238.551 40.1387C238.551 40.1387 183.297 36.5981 151.865 51.5779C120.433 66.5577 66.2436 60.9864 66.2436 60.9864Z" fill="#8DD070"/>
<path opacity="0.1" d="M66.2436 60.9864C66.2436 60.9864 65.8554 85.0505 70.1251 92.9684C74.3948 100.886 76.2247 135.331 76.2247 135.331C76.2247 135.331 120.985 139.958 152.176 129.791C183.367 119.623 249.736 115.465 249.736 115.465L238.551 40.1387C238.551 40.1387 183.297 36.5981 151.865 51.5779C120.433 66.5577 66.2436 60.9864 66.2436 60.9864Z" fill="black"/>
<path d="M76.1485 69.776C76.1485 69.776 74.7484 89.6318 78.2612 95.9761C81.774 102.32 81.9376 130.643 81.9376 130.643C81.9376 130.643 122.22 132.51 150.874 122.764C179.528 113.017 239.742 106.695 239.742 106.695L232.899 45.094C232.899 45.094 183.077 44.5815 153.999 58.3008C124.92 72.02 76.1485 69.776 76.1485 69.776Z" fill="#70D085"/>
<path opacity="0.1" d="M153.557 111.486C159.289 110.773 162.694 100.237 161.163 87.9534C159.632 75.67 153.744 66.2906 148.013 67.004C142.281 67.7174 138.876 78.2533 140.407 90.5367C141.938 102.82 147.826 112.2 153.557 111.486Z" fill="black"/>
<path opacity="0.2" d="M208.26 3.44385C208.26 3.44385 154.581 17.0191 129.267 40.9142C103.954 64.8093 50.666 76.1238 50.666 76.1238C50.666 76.1238 57.6861 99.1435 64.1794 105.371C70.6726 111.599 82.9883 143.825 82.9883 143.825C82.9883 143.825 127.008 134.5 153.569 115.251C180.13 96.0018 242.032 71.6911 242.032 71.6911L208.26 3.44385Z" fill="black"/>
<path d="M49.8594 72.6772C49.8594 72.6772 56.8767 95.6997 63.3644 101.928C69.8521 108.156 82.1733 140.379 82.1733 140.379C82.1733 140.379 126.198 131.056 152.762 111.807C179.326 92.558 241.223 68.2556 241.223 68.2556L207.45 0C207.45 0 153.774 13.5752 128.461 37.4703C103.148 61.3655 49.8594 72.6772 49.8594 72.6772Z" fill="#8DD070"/>
<path opacity="0.1" d="M49.8594 72.6772C49.8594 72.6772 56.8767 95.6997 63.3644 101.928C69.8521 108.156 82.1733 140.379 82.1733 140.379C82.1733 140.379 126.198 131.056 152.762 111.807C179.326 92.558 241.223 68.2556 241.223 68.2556L207.45 0C207.45 0 153.774 13.5752 128.461 37.4703C103.148 61.3655 49.8594 72.6772 49.8594 72.6772Z" fill="#3A7039"/>
<path d="M61.9785 78.008C61.9785 78.008 66.7445 97.3374 72.0373 102.297C77.3301 107.256 86.1772 134.157 86.1772 134.157C86.1772 134.157 125.087 123.579 149.366 105.516C173.645 87.4525 229.018 62.9977 229.018 62.9977L203.591 6.44727C203.591 6.44727 156.017 21.2332 132.553 43.2084C109.089 65.1836 61.9785 78.008 61.9785 78.008Z" fill="#70D085"/>
<path opacity="0.1" d="M148.467 93.9672C153.702 91.5308 153.708 80.459 148.478 69.2377C143.249 58.0164 134.765 50.8948 129.529 53.3312C124.293 55.7676 124.288 66.8393 129.517 78.0607C134.747 89.282 143.231 96.4036 148.467 93.9672Z" fill="black"/>
<path opacity="0.1" d="M177.633 81.3888V176.969C177.633 178.055 177.419 179.13 177.004 180.133C176.588 181.135 175.978 182.047 175.21 182.814C174.442 183.582 173.53 184.19 172.526 184.605C171.522 185.02 170.447 185.234 169.36 185.234H27.129C24.936 185.233 22.8331 184.362 21.2827 182.812C19.7323 181.262 18.8613 179.161 18.8613 176.969V71.7532C22.937 73.2658 22.937 73.2658 27.129 73.1384H169.36C171.552 73.1384 173.653 74.0071 175.204 75.5539C176.755 77.1007 177.629 79.1991 177.633 81.3888Z" fill="black"/>
<path d="M177.633 82.603V178.184C177.633 180.376 176.761 182.478 175.209 184.027C173.658 185.577 171.554 186.448 169.36 186.448H27.129C24.936 186.447 22.8331 185.576 21.2827 184.026C19.7323 182.477 18.8613 180.375 18.8613 178.184V72.9646C22.937 74.4745 22.937 74.4745 27.129 74.3498H169.36C171.552 74.3498 173.654 75.2189 175.205 76.7663C176.757 78.3136 177.63 80.4129 177.633 82.603Z" fill="#455980"/>
<path opacity="0.1" d="M177.227 117.94V148.507H147.561C143.54 148.452 139.702 146.818 136.878 143.958C134.054 141.098 132.471 137.241 132.471 133.223C132.471 129.205 134.054 125.349 136.878 122.489C139.702 119.628 143.54 117.994 147.561 117.94H177.227Z" fill="black"/>
<path d="M177.635 117.127V147.699H147.969C143.948 147.645 140.111 146.011 137.286 143.15C134.462 140.29 132.879 136.434 132.879 132.415C132.879 128.397 134.462 124.541 137.286 121.681C140.111 118.82 143.948 117.186 147.969 117.132L177.635 117.127Z" fill="#17294D"/>
<path opacity="0.1" d="M149.391 139.184C152.685 139.184 155.355 136.516 155.355 133.225C155.355 129.933 152.685 127.265 149.391 127.265C146.098 127.265 143.428 129.933 143.428 133.225C143.428 136.516 146.098 139.184 149.391 139.184Z" fill="black"/>
<path d="M149.796 138.376C153.089 138.376 155.759 135.708 155.759 132.417C155.759 129.126 153.089 126.458 149.796 126.458C146.502 126.458 143.832 129.126 143.832 132.417C143.832 135.708 146.502 138.376 149.796 138.376Z" fill="#4B5FFA"/>
<path d="M229.13 116.862C229.366 119.414 227.433 121.89 227.996 124.389C228.118 124.924 228.348 125.428 228.431 125.969C228.664 127.454 227.78 128.858 226.934 130.099L219.67 140.749C219.379 141.217 219.031 141.647 218.633 142.029C217.247 143.265 215.162 143.137 213.338 143.506C212.055 143.766 210.844 144.301 209.789 145.074C209.745 145.111 209.716 145.164 209.71 145.222C209.704 145.28 209.72 145.338 209.755 145.384C210.057 145.794 210.456 146.122 210.917 146.339C211.378 146.555 211.886 146.653 212.395 146.622C212.586 146.874 212.395 147.243 212.118 147.423C211.727 147.7 211.192 147.766 211.114 148.426C211.086 148.656 211.133 148.889 211.247 149.091C211.54 149.539 211.995 149.855 212.517 149.975C215.032 150.742 217.749 149.393 219.631 147.556C221.514 145.719 222.864 143.4 224.71 141.53C225.734 140.497 226.895 139.61 227.949 138.607C230.05 136.607 231.683 134.175 233.261 131.739C233.735 131.005 234.212 130.252 234.412 129.401C234.611 128.551 234.517 127.692 234.741 126.869C235.035 125.789 235.826 124.93 236.483 124.024C237.772 122.251 238.631 120.081 238.462 117.898C238.293 115.715 236.937 113.557 234.875 112.815C234.235 112.558 233.53 112.515 232.864 112.693C232.019 112.953 231.395 113.651 230.818 114.319L229.432 115.912C229.086 116.261 228.813 116.676 228.628 117.131C228.539 117.359 228.518 117.609 228.567 117.849C228.616 118.089 228.734 118.31 228.905 118.486" fill="#FBBEBE"/>
<path opacity="0.05" d="M229.13 116.862C229.366 119.414 227.433 121.89 227.996 124.389C228.118 124.924 228.348 125.428 228.431 125.969C228.664 127.454 227.78 128.858 226.934 130.099L219.67 140.749C219.379 141.217 219.031 141.647 218.633 142.029C217.247 143.265 215.162 143.137 213.338 143.506C212.055 143.766 210.844 144.301 209.789 145.074C209.745 145.111 209.716 145.164 209.71 145.222C209.704 145.28 209.72 145.338 209.755 145.384C210.057 145.794 210.456 146.122 210.917 146.339C211.378 146.555 211.886 146.653 212.395 146.622C212.586 146.874 212.395 147.243 212.118 147.423C211.727 147.7 211.192 147.766 211.114 148.426C211.086 148.656 211.133 148.889 211.247 149.091C211.54 149.539 211.995 149.855 212.517 149.975C215.032 150.742 217.749 149.393 219.631 147.556C221.514 145.719 222.864 143.4 224.71 141.53C225.734 140.497 226.895 139.61 227.949 138.607C230.05 136.607 231.683 134.175 233.261 131.739C233.735 131.005 234.212 130.252 234.412 129.401C234.611 128.551 234.517 127.692 234.741 126.869C235.035 125.789 235.826 124.93 236.483 124.024C237.772 122.251 238.631 120.081 238.462 117.898C238.293 115.715 236.937 113.557 234.875 112.815C234.235 112.558 233.53 112.515 232.864 112.693C232.019 112.953 231.395 113.651 230.818 114.319L229.432 115.912C229.086 116.261 228.813 116.676 228.628 117.131C228.539 117.359 228.518 117.609 228.567 117.849C228.616 118.089 228.734 118.31 228.905 118.486" fill="black"/>
<path d="M234.626 182.55C233.04 183.517 231.063 183.575 229.219 183.351C228.922 183.315 228.57 183.292 228.387 183.522C228.11 183.855 228.437 184.354 228.775 184.611C229.863 185.427 231.141 185.952 232.488 186.138C233.691 186.308 234.905 186.389 236.12 186.379C239.447 186.437 242.774 186.492 246.048 186.016C246.242 186.001 246.431 185.946 246.603 185.855C246.814 185.707 246.961 185.484 247.013 185.232C247.238 184.378 246.805 183.464 246.151 182.871C245.497 182.278 244.657 181.949 243.836 181.63L240.952 180.508C240.276 180.245 239.192 179.547 238.457 179.602C237.076 179.702 235.771 181.88 234.626 182.55Z" fill="#3F3D56"/>
<path opacity="0.05" d="M234.626 182.55C233.04 183.517 231.063 183.575 229.219 183.351C228.922 183.315 228.57 183.292 228.387 183.522C228.11 183.855 228.437 184.354 228.775 184.611C229.863 185.427 231.141 185.952 232.488 186.138C233.691 186.308 234.905 186.389 236.12 186.379C239.447 186.437 242.774 186.492 246.048 186.016C246.242 186.001 246.431 185.946 246.603 185.855C246.814 185.707 246.961 185.484 247.013 185.232C247.238 184.378 246.805 183.464 246.151 182.871C245.497 182.278 244.657 181.949 243.836 181.63L240.952 180.508C240.276 180.245 239.192 179.547 238.457 179.602C237.076 179.702 235.771 181.88 234.626 182.55Z" fill="black"/>
<path d="M236.647 144.301C235.447 145.897 234.205 147.739 234.501 149.714C234.662 150.778 235.258 151.717 235.696 152.701C236.29 154.036 236.6 155.471 236.905 156.901C237.354 158.99 237.806 161.084 238.081 163.206C238.394 165.603 236.922 172.537 236.786 174.95C236.753 175.532 236.683 176.161 236.279 176.579C236.121 176.746 235.91 176.879 235.838 177.095C235.796 177.303 235.83 177.519 235.935 177.704C236.611 179.228 237.995 180.364 239.539 181.012C241.083 181.66 244.807 182.78 246.49 182.838C246.712 182.862 246.936 182.833 247.144 182.752C247.368 182.616 247.544 182.413 247.649 182.173C248.855 179.868 247.696 171.673 247.713 169.071C247.729 166.902 248.242 164.747 248.148 162.58C248.07 160.84 247.593 159.139 247.435 157.405C247.158 154.563 247.679 151.706 248.203 148.897C248.603 146.742 249.005 144.586 249.518 142.459C249.831 141.159 250.194 139.849 250.904 138.721C251.458 137.826 252.237 137.078 252.883 136.228C254.676 133.879 255.473 130.919 255.101 127.988C255.063 127.711 250.943 129.033 250.579 129.191C249.097 129.818 247.734 130.694 246.548 131.781C245.594 132.69 244.843 133.903 244.008 134.92C242.827 136.359 241.661 137.808 240.51 139.267C239.195 140.935 237.908 142.613 236.647 144.301Z" fill="#464353"/>
<path opacity="0.05" d="M236.647 144.205C235.447 145.8 234.205 147.645 234.501 149.618C234.662 150.685 235.258 151.624 235.696 152.607C236.29 153.94 236.6 155.378 236.905 156.805C237.354 158.896 237.806 160.991 238.081 163.11C238.394 165.509 236.922 172.441 236.786 174.854C236.753 175.436 236.683 176.067 236.279 176.486C236.121 176.649 235.91 176.782 235.838 176.998C235.795 177.207 235.83 177.423 235.935 177.608C236.611 179.134 237.995 180.267 239.539 180.932C241.083 181.597 244.807 182.176 246.49 182.232C246.712 182.256 246.936 182.227 247.144 182.146C247.369 182.011 247.545 181.81 247.649 181.57C248.855 179.265 247.696 171.596 247.713 168.992C247.729 166.82 248.242 164.667 248.148 162.498C248.07 160.758 247.593 159.057 247.435 157.325C247.158 154.48 247.679 151.624 248.203 148.815C248.603 146.662 249.005 144.507 249.518 142.376C249.831 141.077 250.194 139.766 250.904 138.639C251.458 137.744 252.237 136.996 252.883 136.145C254.677 133.797 255.474 130.837 255.101 127.906C255.063 127.629 250.943 128.95 250.579 129.108C249.098 129.737 247.735 130.614 246.548 131.701C245.594 132.607 244.843 133.821 244.009 134.838C242.827 136.276 241.661 137.726 240.51 139.187C239.195 140.842 237.908 142.515 236.647 144.205Z" fill="black"/>
<path d="M223.289 109.155C227.006 109.155 230.018 106.145 230.018 102.431C230.018 98.7177 227.006 95.7073 223.289 95.7073C219.573 95.7073 216.561 98.7177 216.561 102.431C216.561 106.145 219.573 109.155 223.289 109.155Z" fill="#FBBEBE"/>
<path d="M229.349 102.15C229.971 103.14 230.786 103.996 231.745 104.665C232.705 105.335 233.79 105.804 234.936 106.045L234.428 107.887C233.552 111.051 232.568 114.398 230.122 116.592C230.4 115.52 230.045 114.376 229.44 113.445C228.836 112.514 227.988 111.782 227.156 111.059L223.283 107.707C223.171 107.616 223.077 107.505 223.005 107.38C222.91 107.144 222.91 106.88 223.005 106.643C223.499 105.108 224.907 104.15 226.055 103.114C226.631 102.578 227.145 101.979 227.588 101.33C228.362 100.227 228.841 101.335 229.349 102.15Z" fill="#FBBEBE"/>
<path d="M214.425 95.6719L214.273 94.4086C215.335 94.6856 216.344 93.7825 217.023 92.8488C217.703 91.9152 218.332 90.8153 219.366 90.4247C220.622 89.9537 221.953 90.7017 223.153 91.3334C224.497 92.0786 225.972 92.5583 227.498 92.7463C227.741 92.7544 227.983 92.7935 228.216 92.8627C228.998 93.1397 229.369 94.1205 229.483 95.0098C229.597 95.8991 229.566 96.8438 229.952 97.6362C230.229 98.2373 230.745 98.6834 231.061 99.2763C231.892 100.867 231.088 103.041 231.956 104.601L229.799 102.626C229.602 102.446 229.325 102.257 229.106 102.41C228.934 102.532 228.92 102.795 228.851 103.005C228.643 103.62 227.872 103.803 227.315 103.559C226.758 103.316 226.35 102.786 225.929 102.304C224.975 101.18 223.838 100.191 222.507 99.7112C221.924 99.4933 221.301 99.4018 220.68 99.4429C220.058 99.484 219.453 99.6567 218.903 99.9495C217.897 100.517 217.159 101.842 215.925 101.889C214.234 101.953 213.53 98.8053 212.748 97.5614C213.034 97.3462 213.235 97.0374 213.317 96.6889C213.398 96.3404 213.353 95.9745 213.192 95.6553C213.305 95.6082 214.4 95.478 214.425 95.6719Z" fill="#464353"/>
<path d="M131.196 56.3635C130.655 56.844 130.156 57.3685 129.702 57.9315C129.245 58.5024 129.002 59.2147 129.014 59.9456C129.017 60.1576 129.084 60.3637 129.208 60.5357C129.272 60.6181 129.359 60.6787 129.458 60.709C129.558 60.7392 129.664 60.7378 129.763 60.7047C129.874 60.648 129.969 60.5641 130.04 60.4609C130.333 60.1091 130.644 59.7725 130.972 59.4525C131.091 59.3334 131.249 59.2087 131.41 59.253C131.482 59.2786 131.546 59.3214 131.598 59.3777C131.785 59.5388 131.92 59.7505 131.989 59.9872C132.086 60.4111 131.839 60.835 131.559 61.1674C131.279 61.4999 130.949 61.8185 130.836 62.2368C130.793 62.3473 130.793 62.4699 130.836 62.5803C130.889 62.6603 130.964 62.7236 131.052 62.7632C131.449 62.9816 131.889 63.1102 132.341 63.1399C132.794 63.1696 133.247 63.0996 133.669 62.935C134.224 62.7105 134.717 62.3255 135.288 62.126C135.536 62.0584 135.775 61.9655 136.004 61.8489C136.167 61.7403 136.307 61.6004 136.416 61.4373C136.525 61.2742 136.601 61.0911 136.639 60.8987C136.711 60.5141 136.725 60.121 136.68 59.7323C136.611 58.2273 136.289 56.7447 135.726 55.3467C135.694 55.2565 135.639 55.1764 135.566 55.114C135.482 55.0632 135.386 55.0372 135.288 55.0392C134.579 54.9644 133.414 54.6015 132.729 54.8646C132.49 54.9959 132.283 55.1796 132.125 55.4021C131.997 55.5434 131.196 56.1778 131.196 56.3635Z" fill="#A1616A"/>
<path d="M130.972 55.7366C130.972 55.0606 130.141 53.4288 131.463 53.3208C131.463 52.5977 130.44 52.1489 130.631 51.3815C130.692 51.1266 130.909 50.9188 130.934 50.6584C131.017 49.9187 129.68 49.5169 129.902 48.8077C129.985 48.5307 130.279 48.37 130.343 48.0957C130.493 47.4557 129.348 47.1704 129.325 46.5138C129.325 46.2921 129.45 46.0844 129.439 45.8627C129.439 45.5857 129.198 45.3751 129.065 45.1341C128.718 44.5163 128.887 43.5605 128.255 43.2419C128.674 43.2779 128.81 42.6573 128.638 42.2778C128.466 41.8982 128.114 41.5685 128.111 41.1474C128.132 40.9948 128.132 40.8401 128.111 40.6875C127.995 40.283 127.332 40.2498 127.221 39.8564C127.207 39.7054 127.202 39.5536 127.207 39.402C127.163 39.089 126.841 38.8895 126.539 38.8008C126.225 38.7476 125.923 38.6397 125.646 38.4822C125.452 38.3354 125.228 38.0916 125.02 38.2052C124.942 38.2523 124.903 38.341 124.845 38.4074C124.596 38.6983 124.119 38.5709 123.805 38.3576C122.879 37.7287 122.419 36.6011 122.222 35.5012C122.025 34.4014 122.031 33.2655 121.784 32.1767C121.709 31.8374 121.609 31.504 121.485 31.1793C121.379 30.9023 121.041 30.4673 121.019 30.1875C120.969 29.5503 122.289 29.9853 122.791 30.049C123.278 30.0965 123.76 30.1893 124.23 30.326C124.731 30.5154 125.223 30.7309 125.702 30.9716C127.704 31.8553 130.121 31.9634 131.729 33.4483C132.259 33.9359 132.705 34.5759 133.393 34.7975C133.708 34.858 134.019 34.9385 134.324 35.0386C135.087 35.396 135.206 36.4072 135.622 37.1386C135.753 37.3317 135.867 37.5356 135.963 37.7481C136.043 37.9986 136.081 38.2608 136.074 38.5238L136.132 40.4437C136.226 43.6602 136.321 46.885 135.977 50.0821C135.866 51.1377 135.7 52.2237 136.013 53.2377C136.096 53.5147 136.212 53.7751 136.29 54.0549C136.359 54.383 136.394 54.7172 136.395 55.0523L136.44 56.2962C136.455 56.393 136.433 56.4919 136.379 56.5733C136.332 56.6109 136.278 56.6376 136.22 56.6515C136.162 56.6654 136.102 56.6662 136.043 56.6536C134.311 56.4985 132.558 55.5233 130.922 56.1134" fill="#3D24AC"/>
<path d="M210.051 151.316C221.376 151.316 230.556 149.99 230.556 148.354C230.556 146.719 221.376 145.393 210.051 145.393C198.726 145.393 189.545 146.719 189.545 148.354C189.545 149.99 198.726 151.316 210.051 151.316Z" fill="#504F60"/>
<path d="M227.692 148.5C227.331 146.957 227.107 145.602 227.107 145.602C227.107 145.602 227.19 143.923 226.436 142.663V142.242V139.139C226.651 138.575 226.913 138.031 227.221 137.512C227.775 136.537 227.221 132.963 227.221 132.963C227.221 132.963 225.149 127.924 225.651 124.727C226.153 121.53 221.398 110.531 221.398 110.531C221.428 109.47 221.577 108.416 221.845 107.389C221.895 107.173 221.916 106.952 221.906 106.73C221.906 106.702 221.906 106.677 221.906 106.65C221.906 106.622 221.906 106.666 221.906 106.675C221.834 104.566 220.164 100.616 220.164 100.616L220.389 93.0855C220.389 93.0855 221.454 88.6528 219.718 82.6825C219.111 80.6019 218.723 78.9368 218.476 77.6513C218.448 77.5073 218.421 77.3743 218.398 77.233C221.972 76.6789 224.703 76.2356 224.703 76.2356C224.703 76.2356 222.629 67.5669 221.229 66.0487C219.829 64.5305 218.709 59.7625 218.709 59.7625C218.709 59.7625 217.98 53.6426 219.158 51.8529C220.336 50.0632 220.503 46.9769 220.503 46.9769C220.503 46.9769 223.189 45.0376 223.528 44.1593C223.866 43.2811 224.423 41.3418 224.423 40.314C224.423 39.2861 224.088 38.3747 224.198 37.8206C224.309 37.2665 223.414 35.2191 223.863 34.2439C223.979 33.9443 224.039 33.626 224.04 33.3047C224.042 33.2955 224.042 33.2862 224.04 33.277C224.045 32.4236 223.966 31.5719 223.805 30.7338C223.028 30.078 222.121 29.5937 221.143 29.3125L221.085 29.0798L220.932 28.4703C220.847 28.4141 220.759 28.3623 220.669 28.3151V28.0935L220.644 27.2125L221.066 25.2344C221.897 21.7935 217.298 21.281 217.298 21.281C217.019 20.7532 216.555 20.3467 215.995 20.1395C215.071 19.8154 215.842 25.3147 216.272 25.6804C216.596 25.9575 217.6 27.6696 218.085 28.5174L218.163 28.6559C218.087 28.7241 218.016 28.7982 217.952 28.8776L218.127 30.0716L218.154 30.2545C217.85 30.6327 217.602 31.0537 217.42 31.5039C217.42 31.5039 218.251 32.4237 218.093 33.4433C217.935 34.4628 218.351 35.7566 218.371 35.8258C218.321 35.7677 217.73 35.1305 217.14 35.2856C216.549 35.4407 214.899 35.9367 214.899 35.9367C214.899 35.9367 213.668 36.1528 213.79 36.4243C213.912 36.6958 212.959 37.8871 212.959 37.8871L209.648 34.7509C209.615 34.6567 209.579 34.5625 209.551 34.4739C209.416 34.0217 209.323 33.558 209.274 33.0886C209.635 33.003 209.989 32.8909 210.333 32.7534C210.681 32.6341 210.995 32.4326 211.248 32.1661C211.583 31.7699 211.647 31.2324 211.783 30.7393C212.044 29.7752 212.615 28.9191 213.011 28.0021C213.683 26.4525 213.899 24.7441 213.635 23.0762C213.584 22.5623 213.41 22.0681 213.128 21.6356C212.587 20.8931 211.606 20.5911 210.893 19.9983C210.181 19.4054 209.72 18.4994 208.889 18.0589C208.137 17.6572 207.225 17.7043 206.377 17.8428C204.72 18.1159 203.128 18.6946 201.683 19.5494C201.2 19.8265 200.668 20.1672 200.113 20.0647C199.637 19.9789 199.282 19.5993 198.982 19.2336C198.986 19.2185 198.99 19.2036 198.996 19.1893C198.983 19.1758 198.971 19.1609 198.96 19.145C198.609 19.923 198.433 20.7684 198.444 21.6217C198.444 21.7547 198.444 21.8988 198.461 22.0179V22.1564C198.461 22.1952 198.461 22.234 198.461 22.27C198.461 22.3291 198.452 22.3878 198.436 22.4446C198.366 22.614 198.26 22.7662 198.126 22.8906C198.024 23.0061 197.931 23.1293 197.848 23.2591C197.848 23.2147 197.876 23.1704 197.893 23.1233C197.681 23.4318 197.562 23.7941 197.549 24.1678C197.533 24.4398 197.623 24.7075 197.798 24.9158C197.964 25.0769 198.145 25.2216 198.339 25.348C198.273 25.7137 198.24 26.0846 198.239 26.4562C198.245 27.5578 198.536 28.6393 199.083 29.5959C199.63 30.5524 200.415 31.3518 201.361 31.9167C201.4 32.0082 201.436 32.1024 201.472 32.1938C201.896 33.302 202.215 34.6041 202.074 35.7954C202.074 35.8812 202.049 35.9699 202.035 36.0558C202.021 36.1417 201.952 36.1472 201.916 36.1943C201.916 36.1943 196.445 36.2497 195.159 35.0861C193.872 33.9225 191.91 37.9314 191.91 37.9314C191.91 37.9314 189.949 38.3109 189.556 37.9314C189.162 37.5518 186.869 37.8787 186.869 37.8787C185.93 37.0439 184.707 36.5981 183.45 36.632C182.689 36.0538 181.849 35.5874 180.955 35.2468L180.894 35.2246C180.5 35.081 180.078 35.028 179.66 35.0695C179.66 35.0695 176.971 32.8531 176.186 31.6563C175.402 30.4595 171.667 26.0406 171.651 26.0212V25.8079L171.609 25.1651C171.498 25.1825 171.386 25.1918 171.273 25.1929C171.254 25.1291 171.226 25.0543 171.199 24.9684C170.983 24.3415 170.718 23.7328 170.406 23.1483C170.406 23.1483 170.406 22.3365 170.641 22.1315C170.877 21.9265 170.544 18.9483 170.544 18.9483C170.544 18.9483 168.121 13.2882 165.95 17.5132C165.95 17.5132 161.847 20.2476 165.29 23.4336C165.29 23.4336 166.677 24.0985 166.86 24.6249C166.987 24.9657 167.453 25.9215 167.766 26.5642L167.908 26.8413L167.869 26.8745L167.919 27.4064L167.941 27.6115C167.292 27.9799 166.851 28.3456 166.959 28.6199C167.15 29.0892 167.282 29.5807 167.35 30.0827C167.35 30.0827 172.114 36.0447 172.729 38.5907C172.729 38.5907 185.502 46.1762 189.703 46.7165L188.96 50.4981C188.851 51.5243 188.796 52.5553 188.793 53.5872C188.849 54.3989 188.289 58.0836 188.289 58.0836C188.289 58.0836 187.559 63.5026 186.944 64.2617C186.328 65.0208 186.439 68.2706 186.439 68.2706C186.294 69.8263 186.016 71.3668 185.608 72.8751C184.992 74.9335 185.438 77.4823 185.438 77.4823C185.438 77.4823 183.312 82.3583 188.408 79.0532C188.408 79.0532 190.903 78.898 193.792 78.7983C193.792 78.8925 193.792 78.9895 193.792 79.0753C193.792 79.4466 193.792 79.8483 193.773 80.2694C193.734 83.062 193.717 86.9185 193.845 89.8219C194.069 94.9694 195.639 105.156 195.639 105.156V110.284C195.537 110.765 195.487 111.256 195.489 111.747C195.456 113.552 195.936 115.328 196.875 116.87L197.269 120.283C197.269 120.283 198.189 122.533 198.206 123.885C198.202 123.994 198.189 124.102 198.167 124.209C198.131 124.381 198.116 124.557 198.123 124.732C198.07 126.284 199.004 129.996 199.004 129.996C199.004 129.996 199.06 133.734 199.62 133.952C200.1 134.138 198.979 136.105 198.647 136.67C198.638 136.636 198.631 136.6 198.627 136.565L198.558 136.676C198.442 136.978 198.383 137.299 198.383 137.623C198.352 137.878 198.393 138.137 198.503 138.37C198.613 138.602 198.787 138.799 199.004 138.936C200.069 139.588 200.64 140.128 199.736 140.344C199.404 140.395 199.074 140.465 198.749 140.552C198.749 140.51 198.716 140.466 198.702 140.427C198.575 140.477 198.468 140.569 198.401 140.688C198.334 140.807 198.31 140.946 198.333 141.081C198.342 141.52 198.455 141.951 198.663 142.339C199.559 144.344 200.18 145.109 200.18 145.109L200.61 145.062C200.546 145.226 200.462 145.381 200.36 145.525C200.197 145.757 199.98 145.947 199.728 146.079C199.493 146.219 199.232 146.309 198.96 146.342C198.656 146.352 198.358 146.425 198.085 146.558C197.812 146.691 197.57 146.88 197.374 147.112C196.82 147.835 196.465 148.819 197.568 149.683L201.575 151.068C201.575 151.068 208.467 151.963 208.101 150.417C207.735 148.871 207.513 147.519 207.513 147.519C207.543 146.575 207.353 145.638 206.959 144.779C206.887 144.639 206.805 144.504 206.715 144.375L206.959 144.35C206.959 144.35 207.463 140.934 208.134 140.286C208.29 140.136 208.326 140.009 208.29 139.931C208.359 139.745 208.182 139.637 207.957 139.574L207.907 139.709C207.687 139.662 207.464 139.637 207.239 139.635C207.239 139.635 207.014 137.848 207.743 137.197C207.802 137.122 207.845 137.037 207.87 136.945C207.894 136.854 207.899 136.758 207.885 136.665C207.89 136.42 207.864 136.175 207.807 135.936C207.8 135.951 207.792 135.966 207.782 135.98C207.416 134.357 206.174 131.778 206.174 131.778C206.174 131.778 206.119 130.154 206.568 129.503C207.017 128.852 206.51 120.671 206.51 120.671C206.51 120.671 206.679 116.717 206.174 114.875C205.67 113.033 206.79 110.863 206.79 110.863C206.79 110.863 206.79 110.822 206.79 110.747V110.719L206.726 110.096C206.724 110.109 206.724 110.122 206.726 110.135C206.612 109.088 206.399 107.19 206.241 106.314C206.016 105.068 206.299 99.1112 206.299 99.1112L207.305 96.5624L209.099 100.954L211.004 106.805C211.004 106.805 211.947 108.04 211.969 109.298C211.969 109.359 211.969 109.42 211.969 109.481C211.953 109.611 211.946 109.741 211.947 109.872C211.913 110.611 212.116 111.342 212.526 111.958C212.526 111.958 213.031 114.728 213.815 115.424C214.6 116.119 214.6 117.482 214.6 117.482C214.6 117.482 215.551 121.494 215.986 122.192C216.363 122.785 216.383 124.408 216.38 124.915C216.38 125.007 216.38 125.059 216.38 125.059C216.38 125.059 216.513 126.494 216.507 127.697C216.507 127.846 216.507 127.99 216.507 128.126C216.509 128.116 216.509 128.106 216.507 128.096C216.507 128.424 216.468 128.752 216.391 129.071L216.374 129.126C216.374 129.057 216.374 128.991 216.394 128.924C216.199 129.741 216.106 130.578 216.117 131.417C216.092 132.858 216.311 134.565 217.184 135.573C218.698 137.307 219.649 137.091 219.649 137.091C219.649 137.091 218.922 139.258 218.024 139.693C217.99 139.709 217.958 139.729 217.93 139.754C217.93 139.709 217.913 139.668 217.908 139.626C217.807 139.734 217.731 139.862 217.683 140.001C217.636 140.141 217.618 140.289 217.63 140.435C217.567 141.388 218.168 142.929 218.739 143.646C218.951 143.854 219.211 144.006 219.496 144.09C219.451 144.121 219.404 144.15 219.355 144.175C219.255 144.23 219.152 144.279 219.047 144.322C218.901 144.384 218.747 144.424 218.59 144.441C218.286 144.449 217.987 144.522 217.713 144.655C217.44 144.788 217.198 144.978 217.004 145.212C216.449 145.932 216.094 146.915 217.198 147.78L221.204 149.165C221.204 149.165 228.052 150.043 227.692 148.5Z" fill="url(#paint0_linear_1607_54618)"/>
<path d="M201.378 151.06L197.497 149.675C196.426 148.811 196.767 147.827 197.308 147.104C197.494 146.873 197.727 146.685 197.992 146.552C198.257 146.42 198.548 146.345 198.844 146.334C199.107 146.3 199.359 146.211 199.584 146.071C199.83 145.937 200.041 145.747 200.2 145.517C200.483 145.067 200.636 144.548 200.641 144.018C200.641 144.018 204.899 142.771 206.064 144.018C206.271 144.243 206.445 144.498 206.579 144.774C206.966 145.635 207.156 146.571 207.134 147.514C207.134 147.514 207.35 148.866 207.702 150.412C208.054 151.958 201.378 151.06 201.378 151.06Z" fill="#2D293D"/>
<path d="M220.353 149.147L216.471 147.762C215.401 146.897 215.742 145.914 216.283 145.194C216.467 144.962 216.7 144.773 216.965 144.64C217.229 144.507 217.52 144.433 217.816 144.423C217.969 144.408 218.119 144.367 218.259 144.304C218.362 144.261 218.462 144.212 218.559 144.157C219.643 143.562 219.615 142.099 219.615 142.099C219.615 142.099 223.871 140.852 225.038 142.099C225.195 142.268 225.331 142.454 225.446 142.653C226.175 143.914 226.095 145.595 226.095 145.595C226.095 145.595 226.311 146.95 226.649 148.493C226.987 150.036 220.353 149.147 220.353 149.147Z" fill="#2D293D"/>
<path opacity="0.1" d="M206.064 144.014C206.272 144.24 206.446 144.495 206.58 144.771L200.203 145.51C200.486 145.061 200.639 144.542 200.644 144.012C200.644 144.012 204.9 142.768 206.064 144.014Z" fill="black"/>
<path opacity="0.1" d="M225.452 142.659V143.853C224.459 145.485 219.66 145.127 218.266 144.31C218.368 144.267 218.468 144.218 218.565 144.163C219.649 143.568 219.621 142.105 219.621 142.105C219.621 142.105 223.877 140.858 225.044 142.105C225.201 142.274 225.337 142.46 225.452 142.659Z" fill="black"/>
<path d="M226.209 137.512C225.913 138.033 225.659 138.576 225.452 139.138V143.419C224.366 145.206 218.729 144.61 217.966 143.635C217.204 142.66 216.408 140.122 217.265 139.681C218.122 139.241 218.837 137.08 218.837 137.08C218.837 137.08 217.914 137.296 216.45 135.562C214.986 133.827 215.421 129.982 215.693 129.062C215.965 128.143 215.693 125.053 215.693 125.053C215.693 125.053 215.748 122.884 215.316 122.181C214.883 121.477 213.96 117.471 213.96 117.471C213.96 117.471 213.96 116.116 213.201 115.412C212.441 114.709 211.953 111.944 211.953 111.944C211.509 111.253 211.318 110.429 211.412 109.614C211.573 108.259 210.489 106.796 210.489 106.796L208.645 100.942L206.91 96.5539L205.934 99.0999C205.934 99.0999 205.656 105.059 205.881 106.303C206.106 107.547 206.436 110.855 206.436 110.855C206.436 110.855 205.351 113.021 205.839 114.864C206.327 116.706 206.15 120.665 206.15 120.665C206.15 120.665 206.638 128.843 206.203 129.495C205.767 130.146 205.823 131.772 205.823 131.772C205.823 131.772 208.041 136.537 207.342 137.188C206.643 137.839 206.854 139.626 206.854 139.626C206.854 139.626 208.371 139.626 207.722 140.277C207.073 140.928 206.582 144.341 206.582 144.341L200.025 145.109C200.025 145.109 199.427 144.352 198.559 142.338C197.691 140.324 198.72 140.551 199.593 140.333C200.466 140.114 199.914 139.576 198.883 138.925C197.852 138.274 198.451 136.811 198.451 136.811C198.451 136.811 200.023 134.157 199.479 133.941C198.936 133.725 198.883 129.985 198.883 129.985C198.883 129.985 197.799 125.552 198.071 124.35C198.342 123.147 197.203 120.288 197.203 120.288L196.823 116.875C195.663 114.938 195.24 112.649 195.631 110.425V105.162C195.631 105.162 194.112 94.9775 193.895 89.83C193.757 86.5331 193.796 82.0339 193.84 79.2275C193.868 77.6538 193.895 76.6094 193.895 76.6094L217.318 74.1714C217.318 74.1714 217.296 75.2519 217.742 77.6483C217.983 78.9338 218.357 80.5988 218.945 82.6794C220.625 88.6387 219.597 93.0797 219.597 93.0797L219.378 100.613C219.378 100.613 221.438 105.649 221.005 107.384C220.744 108.413 220.597 109.469 220.567 110.531C220.567 110.531 225.175 121.529 224.687 124.727C224.199 127.924 226.204 132.963 226.204 132.963C226.204 132.963 226.753 136.537 226.209 137.512Z" fill="#464353"/>
<path opacity="0.05" d="M212.816 109.287L219.947 108.336C219.947 108.336 215.908 112.456 212.816 109.287Z" fill="black"/>
<path opacity="0.1" d="M218.917 101.374C218.917 101.374 219.161 103.895 217.617 104.842C217.617 104.842 220.381 104.41 218.917 101.374Z" fill="black"/>
<path opacity="0.1" d="M218.478 93.3567C218.478 93.3567 212.517 98.2604 210.349 97.8531C208.181 97.4459 218.478 93.3567 218.478 93.3567Z" fill="black"/>
<path opacity="0.1" d="M203.979 111.586C203.979 111.586 199.451 112.614 199.315 114.431C199.179 116.248 203.979 111.586 203.979 111.586Z" fill="black"/>
<path opacity="0.05" d="M204.973 134.183C204.973 134.183 198.577 135.374 200.393 136.186C202.209 136.997 205.192 137.648 205.192 137.648C205.192 137.648 207.258 137.757 204.973 134.183Z" fill="black"/>
<g opacity="0.05">
<path opacity="0.05" d="M199.1 137.476C198.939 137.376 198.803 137.24 198.702 137.08C198.601 136.92 198.537 136.739 198.515 136.551L198.449 136.664C198.449 136.664 197.853 138.127 198.884 138.775C199 138.85 199.114 138.925 199.217 138.997C199.408 138.961 199.613 138.933 199.81 138.884C200.683 138.667 200.132 138.127 199.1 137.476Z" fill="black"/>
<path opacity="0.05" d="M207.34 137.042C207.518 136.881 207.512 136.465 207.404 135.933C207.127 136.352 207.047 137.006 207.041 137.501C207.108 137.329 207.21 137.173 207.34 137.042Z" fill="black"/>
<path opacity="0.05" d="M206.356 110.087C206.121 110.728 205.975 111.398 205.924 112.079C206.047 111.609 206.214 111.151 206.42 110.711L206.356 110.087Z" fill="black"/>
<path opacity="0.05" d="M221.008 107.244C221.05 107.049 221.07 106.85 221.066 106.651C220.986 107.055 220.93 107.429 220.889 107.759C220.925 107.59 220.964 107.429 221.008 107.244Z" fill="black"/>
<path opacity="0.05" d="M206.203 129.35C206.292 129.217 206.342 128.768 206.364 128.145C206.163 128.627 206.057 129.144 206.051 129.666C206.089 129.555 206.14 129.449 206.203 129.35Z" fill="black"/>
<path opacity="0.05" d="M207.534 139.567C207.197 140.654 206.948 141.766 206.788 142.892L200.231 143.648C200.231 143.648 199.632 142.892 198.764 140.878C198.694 140.722 198.632 140.563 198.578 140.401C198.185 140.581 198.024 140.989 198.545 142.177C199.413 144.183 200.015 144.948 200.015 144.948L206.572 144.188C206.572 144.188 207.06 140.775 207.708 140.124C208.041 139.811 207.836 139.648 207.534 139.567Z" fill="black"/>
<path opacity="0.05" d="M198.885 129.837C198.885 129.837 198.938 133.574 199.481 133.791C199.758 133.173 199.938 132.585 199.695 132.488C199.14 132.272 199.098 128.532 199.098 128.532C199.098 128.532 198.014 124.1 198.286 122.897C198.558 121.695 197.418 118.836 197.418 118.836L197.038 115.422C195.878 113.486 195.455 111.196 195.846 108.973V103.709C195.846 103.709 194.327 93.5248 194.111 88.3773C193.972 85.0805 194.011 80.5813 194.055 77.7748C194.055 77.2678 194.072 76.819 194.08 76.4395L193.894 76.4588C193.894 76.4588 193.864 77.5005 193.839 79.0769C193.795 81.8834 193.753 86.3826 193.894 89.6767C194.111 94.8242 195.627 105.011 195.627 105.011V110.275C195.238 112.498 195.662 114.786 196.822 116.722L197.199 120.135C197.199 120.135 198.339 123.005 198.067 124.199C197.795 125.393 198.885 129.837 198.885 129.837Z" fill="black"/>
<path opacity="0.05" d="M218.188 142.187C217.656 141.416 217.301 140.537 217.149 139.613C216.481 140.217 217.249 142.561 217.98 143.492C218.737 144.467 224.377 145.063 225.466 143.273V142.242C223.989 143.691 218.904 143.109 218.188 142.187Z" fill="black"/>
<path opacity="0.05" d="M226.426 136.065C226.128 136.585 225.874 137.129 225.666 137.691V138.459C225.791 138.182 225.965 137.811 226.221 137.373C226.392 136.946 226.473 136.489 226.459 136.029C226.459 136.029 226.434 136.054 226.426 136.065Z" fill="black"/>
<path opacity="0.05" d="M218.522 136.921C218.728 136.504 218.907 136.073 219.057 135.633C219.057 135.633 218.134 135.849 216.67 134.114C215.605 132.854 215.544 130.471 215.696 128.914C215.419 129.837 214.989 133.682 216.453 135.417C217.41 136.55 218.134 136.849 218.522 136.921Z" fill="black"/>
<path opacity="0.05" d="M215.692 124.905C215.787 125.972 215.823 127.044 215.8 128.116C215.827 127.947 215.864 127.779 215.911 127.615C216.188 126.692 215.911 123.606 215.911 123.606C215.911 123.606 215.966 121.436 215.531 120.733C215.095 120.029 214.189 116.017 214.189 116.017C214.189 116.017 214.189 114.663 213.429 113.959C212.67 113.255 212.182 110.49 212.182 110.49C211.733 109.801 211.538 108.978 211.627 108.16C211.791 106.806 210.707 105.343 210.707 105.343L208.863 99.4917L207.127 95.1033L206.149 97.6521C206.149 97.6521 206.149 97.9735 206.115 98.4832L206.908 96.4137L208.644 100.794L210.488 106.645C210.488 106.645 211.572 108.108 211.408 109.463C211.318 110.28 211.514 111.103 211.963 111.792C211.963 111.792 212.45 114.563 213.21 115.261C213.97 115.959 213.967 117.32 213.967 117.32C213.967 117.32 214.89 121.328 215.323 122.029C215.755 122.73 215.692 124.905 215.692 124.905Z" fill="black"/>
</g>
<path d="M220.245 25.2254L219.837 27.2035L219.862 28.0845L219.879 28.7328L217.616 28.9655L217.364 28.4973C216.895 27.6495 215.922 25.9263 215.609 25.6604C215.19 25.3113 214.444 19.8092 215.332 20.1361C215.878 20.3468 216.326 20.7526 216.59 21.2747C216.59 21.2747 221.046 21.7845 220.245 25.2254Z" fill="#FFCDD3"/>
<path opacity="0.1" d="M219.88 28.7329L217.618 28.9657L217.365 28.4975C217.67 28.1513 218.085 27.9212 218.539 27.8465C218.994 27.7717 219.461 27.8569 219.861 28.0874L219.88 28.7329Z" fill="black"/>
<path d="M220.451 29.804L217.467 30.4938L217.404 30.0506L217.234 28.8565C217.234 28.8565 218.415 27.2829 220.123 28.4631L220.273 29.0698L220.451 29.804Z" fill="#6C63FF"/>
<path d="M172.124 25.4399L168.938 27.1465L168.661 26.5481C168.359 25.9137 167.907 24.9579 167.782 24.6088C167.593 24.0824 166.265 23.4175 166.265 23.4175C162.938 20.2343 166.903 17.497 166.903 17.497C169.005 13.2721 171.339 18.9321 171.339 18.9321C171.339 18.9321 171.666 21.9159 171.436 22.1154C171.206 22.3149 171.206 23.1321 171.206 23.1321C171.51 23.7177 171.766 24.3263 171.974 24.9523C172.071 25.2543 172.124 25.4399 172.124 25.4399Z" fill="#FFCDD3"/>
<path opacity="0.1" d="M172.127 25.44L168.941 27.1466L168.664 26.5482C169.113 26.1714 170.707 24.8859 171.231 24.9386C171.482 24.9698 171.734 24.9763 171.986 24.958C172.074 25.2544 172.127 25.44 172.127 25.44Z" fill="black"/>
<path d="M172.449 26.4012L168.87 28.1632L168.798 27.3958L168.748 26.8638C168.748 26.8638 170.822 25.088 171.435 25.1572C171.744 25.2021 172.059 25.2021 172.369 25.1572L172.411 25.8L172.449 26.4012Z" fill="#6C63FF"/>
<path d="M211.57 38.3665C211.57 38.3665 195.966 40.1257 198.883 39.1782C200.912 38.5161 201.719 37.2389 201.888 35.7983C202.027 34.5987 201.716 33.3049 201.309 32.1967C200.942 31.2136 200.478 30.2697 199.923 29.3791C199.923 29.3791 211.844 22.8242 209.463 28.7835C209.096 29.6848 208.867 30.6367 208.786 31.6066C208.715 32.5704 208.819 33.5391 209.094 34.4657C209.544 35.9691 210.401 37.319 211.57 38.3665Z" fill="#FFCDD3"/>
<path opacity="0.1" d="M209.456 28.7732C209.089 29.6746 208.86 30.6265 208.779 31.5963C207.656 32.541 206.425 32.4773 204.842 32.4773C203.628 32.4773 202.28 32.771 201.31 32.1864C200.943 31.2033 200.479 30.2594 199.924 29.3689C199.924 29.3689 211.843 22.814 209.456 28.7732Z" fill="black"/>
<path d="M204.631 32.8924C208.195 32.8924 211.083 30.0061 211.083 26.4456C211.083 22.8851 208.195 19.9988 204.631 19.9988C201.068 19.9988 198.18 22.8851 198.18 26.4456C198.18 30.0061 201.068 32.8924 204.631 32.8924Z" fill="#FFCDD3"/>
<path opacity="0.1" d="M211.57 38.3653C211.57 38.3653 195.966 40.1245 198.883 39.177C200.912 38.5149 201.719 37.2377 201.888 35.7971C202.665 34.966 204.226 34.3481 205.215 34.0268C206.13 33.7193 207.118 33.7028 208.043 33.9797C208.407 34.0892 208.753 34.2496 209.072 34.4562C209.527 35.9651 210.391 37.3184 211.57 38.3653Z" fill="black"/>
<path opacity="0.1" d="M220.451 29.803L217.468 30.4929L217.404 30.0496C217.724 29.6112 218.171 29.2818 218.684 29.1063C219.198 28.9308 219.753 28.9177 220.274 29.0689L220.451 29.803Z" fill="black"/>
<path opacity="0.1" d="M172.448 26.4016L168.869 28.1636L168.797 27.3962C169.956 26.7733 171.161 26.2389 172.401 25.7976L172.448 26.4016Z" fill="black"/>
<path opacity="0.1" d="M217.74 77.6542C211.693 78.6183 203.098 79.8484 201.734 79.4328C200.6 79.0893 196.985 79.1253 193.838 79.2333C193.866 77.6597 193.893 76.6152 193.893 76.6152L217.316 74.1772C217.316 74.1772 217.294 75.2577 217.74 77.6542Z" fill="black"/>
<path d="M223.769 76.234C223.769 76.234 203.871 79.6471 201.736 79.0044C199.601 78.3617 188.636 79.057 188.636 79.057C183.701 82.3622 185.761 77.4862 185.761 77.4862C185.761 77.4862 185.328 74.9401 185.924 72.8817C186.324 71.3704 186.598 69.8284 186.742 68.2717C186.742 68.2717 186.634 65.0192 187.23 64.2601C187.826 63.501 188.533 58.0847 188.533 58.0847C188.533 58.0847 189.074 54.4 189.021 53.5883C188.968 52.7766 189.182 50.4992 189.182 50.4992L189.889 46.7065C185.821 46.1663 173.459 38.5808 173.459 38.5808C172.863 36.0347 168.255 30.0755 168.255 30.0755C168.188 29.5744 168.06 29.0832 167.875 28.6127C167.55 27.7455 172.43 26.0112 172.43 26.0112C172.43 26.0112 176.062 30.444 176.822 31.6463C177.582 32.8487 180.182 35.0595 180.182 35.0595C180.586 35.018 180.994 35.0711 181.374 35.2147L181.438 35.2341C182.31 35.5759 183.127 36.0426 183.864 36.6193C185.087 36.5903 186.273 37.0374 187.172 37.866C187.172 37.866 189.39 37.5391 189.775 37.9186C190.161 38.2982 192.051 37.9186 192.051 37.9186C192.051 37.9186 193.948 33.9098 195.195 35.0734C196.443 36.237 201.736 36.1816 201.736 36.1816C202.44 35.2451 204.156 34.5747 205.229 34.2422C206.145 33.936 207.132 33.9196 208.057 34.1951C208.456 34.3141 208.832 34.5016 209.166 34.7492L212.385 37.8909C212.385 37.8909 213.306 36.6969 213.198 36.4281C213.089 36.1594 214.282 35.9405 214.282 35.9405C214.282 35.9405 215.854 35.4529 216.45 35.2895C217.046 35.126 217.592 35.7715 217.642 35.8297C217.623 35.7604 217.215 34.4445 217.365 33.4471C217.514 32.4498 216.713 31.5078 216.713 31.5078C218.61 26.8479 222.893 30.7487 222.893 30.7487C222.893 30.7487 223.381 33.2947 222.949 34.2699C222.516 35.2451 223.381 37.3036 223.273 37.8466C223.165 38.3896 223.492 39.3094 223.492 40.34C223.492 41.3706 222.937 43.3182 222.624 44.1854C222.311 45.0525 219.696 47.0029 219.696 47.0029C219.696 47.0029 219.533 50.092 218.393 51.8789C217.254 53.6659 217.969 59.7775 217.969 59.7775C217.969 59.7775 219.053 64.5454 220.409 66.0636C221.765 67.5818 223.769 76.234 223.769 76.234Z" fill="#3F3D56"/>
<path opacity="0.1" d="M194.762 40.5851C194.762 40.5851 194.166 38.7982 193.623 38.6458C193.083 38.4475 192.558 38.2124 192.051 37.9421L192.4 37.2744C192.4 37.2744 194.435 37.8285 194.762 38.4297C195.09 39.0309 194.762 40.5851 194.762 40.5851Z" fill="black"/>
<path opacity="0.1" d="M183.865 36.6313C183.757 37.1854 178.93 37.6591 178.93 37.6591L181.37 35.2156L181.431 35.2377C182.305 35.5815 183.126 36.0509 183.865 36.6313Z" fill="black"/>
<path d="M169.903 29.6271C170.142 29.6271 170.336 29.4336 170.336 29.1949C170.336 28.9562 170.142 28.7627 169.903 28.7627C169.664 28.7627 169.471 28.9562 169.471 29.1949C169.471 29.4336 169.664 29.6271 169.903 29.6271Z" fill="#575988"/>
<path d="M170.456 30.495C170.695 30.495 170.888 30.3015 170.888 30.0628C170.888 29.8241 170.695 29.6306 170.456 29.6306C170.217 29.6306 170.023 29.8241 170.023 30.0628C170.023 30.3015 170.217 30.495 170.456 30.495Z" fill="#575988"/>
<path d="M170.999 31.295C171.238 31.295 171.431 31.1015 171.431 30.8629C171.431 30.6242 171.238 30.4307 170.999 30.4307C170.76 30.4307 170.566 30.6242 170.566 30.8629C170.566 31.1015 170.76 31.295 170.999 31.295Z" fill="#575988"/>
<path d="M171.567 32.1588C171.806 32.1588 172 31.9653 172 31.7266C172 31.4879 171.806 31.2944 171.567 31.2944C171.328 31.2944 171.135 31.4879 171.135 31.7266C171.135 31.9653 171.328 32.1588 171.567 32.1588Z" fill="#575988"/>
<path d="M222.676 32.0333C222.871 32.0333 223.028 31.8758 223.028 31.6814C223.028 31.4871 222.871 31.3296 222.676 31.3296C222.482 31.3296 222.324 31.4871 222.324 31.6814C222.324 31.8758 222.482 32.0333 222.676 32.0333Z" fill="#575988"/>
<path d="M222.733 32.8336C222.927 32.8336 223.085 32.676 223.085 32.4817C223.085 32.2874 222.927 32.1299 222.733 32.1299C222.538 32.1299 222.381 32.2874 222.381 32.4817C222.381 32.676 222.538 32.8336 222.733 32.8336Z" fill="#575988"/>
<path d="M222.78 33.6295C222.974 33.6295 223.132 33.4719 223.132 33.2776C223.132 33.0833 222.974 32.9258 222.78 32.9258C222.585 32.9258 222.428 33.0833 222.428 33.2776C222.428 33.4719 222.585 33.6295 222.78 33.6295Z" fill="#575988"/>
<path opacity="0.1" d="M194.781 55.2685C194.729 55.2048 206.953 70.6279 216.441 61.7153C216.449 61.7181 201.458 63.7488 194.781 55.2685Z" fill="black"/>
<path opacity="0.1" d="M187.77 63.2856C187.77 63.2856 195.083 63.4851 195.849 65.5879V67.7765C195.64 67.892 195.406 67.9526 195.168 67.9526C194.93 67.9526 194.696 67.892 194.487 67.7765C193.75 67.3776 189.328 65.1335 187.77 66.214V63.2856Z" fill="black"/>
<path d="M187.902 63.2856C187.902 63.2856 194.897 63.4768 195.629 65.4826V67.566C195.43 67.6766 195.206 67.7346 194.978 67.7346C194.75 67.7346 194.526 67.6766 194.326 67.566C193.622 67.1892 189.394 65.0476 187.902 66.0783V63.2856Z" fill="#3F3D56"/>
<path opacity="0.1" d="M191.76 47.4175C192.507 49.1458 193.459 50.7782 194.596 52.2796C195.832 53.9392 197.331 55.3867 199.032 56.5655C199.032 56.5655 191.882 48.4204 191.76 47.4175Z" fill="black"/>
<path opacity="0.1" d="M189.365 38.9248C189.365 38.9248 190.585 44.1887 193.729 45.9756L189.365 38.9248Z" fill="black"/>
<path opacity="0.1" d="M187.496 39.4567C187.465 39.3597 186.412 43.6124 191.549 45.9756C191.549 45.9756 189.367 45.2359 187.496 39.4567Z" fill="black"/>
<path opacity="0.1" d="M219.432 35.9269C219.351 35.9269 221.966 37.5891 222.678 38.3648C222.678 38.3648 220.976 35.816 219.432 35.9269Z" fill="black"/>
<path d="M202.885 32.2895C202.886 32.4301 202.916 32.569 202.974 32.6974C203.031 32.8258 203.115 32.9409 203.219 33.0355C203.323 33.13 203.446 33.2019 203.579 33.2466C203.713 33.2913 203.854 33.3078 203.994 33.2952C205.96 33.4171 208.009 33.5029 209.817 32.7411C210.156 32.6201 210.46 32.4186 210.704 32.1537C211.025 31.7576 211.089 31.2201 211.219 30.7269C211.475 29.7628 212.018 28.9068 212.409 27.9897C213.07 26.4404 213.292 24.739 213.049 23.0722C212.998 22.5613 212.829 22.0691 212.556 21.6343C212.035 20.8891 211.084 20.5871 210.393 19.9942C209.703 19.4013 209.259 18.4954 208.452 18.0549C207.726 17.6504 206.836 17.7003 206.018 17.8388C204.409 18.1118 202.868 18.6902 201.477 19.5426C201.008 19.8197 200.495 20.1605 199.957 20.0579C199.486 19.9693 199.142 19.5731 198.848 19.2019C198.47 20.0885 198.312 21.053 198.385 22.0139C198.406 22.1549 198.401 22.2984 198.372 22.4378C198.304 22.6063 198.201 22.7583 198.069 22.8838C197.584 23.4379 197.282 24.3383 197.762 24.909C197.969 25.1556 198.291 25.2913 198.494 25.5434C198.857 25.995 198.735 26.6516 198.726 27.2279C198.706 27.4291 198.757 27.631 198.871 27.7986C198.975 27.8963 199.104 27.9652 199.243 27.9987C199.383 28.0322 199.528 28.0291 199.666 27.9897C199.941 27.9071 200.229 27.8798 200.515 27.9094C200.815 28.0071 201.075 28.202 201.252 28.4635C202.148 29.6298 202.503 30.8987 202.885 32.2895Z" fill="#2D293D"/>
<g opacity="0.1">
<path opacity="0.1" d="M210.934 31.6613C210.69 31.9262 210.386 32.1277 210.047 32.2487C208.228 33.005 206.182 32.9191 204.224 32.8028C204.014 32.8049 203.806 32.7584 203.617 32.667C203.318 32.4925 203.204 32.1268 203.112 31.7943C202.73 30.4091 202.378 29.1375 201.468 27.9822C201.293 27.7157 201.033 27.5157 200.731 27.4142C200.446 27.3873 200.158 27.4146 199.882 27.4946C199.745 27.5343 199.599 27.5378 199.46 27.5048C199.32 27.4718 199.192 27.4034 199.087 27.3062C198.974 27.1386 198.923 26.9367 198.943 26.7355C198.943 26.1537 199.073 25.5026 198.71 25.051C198.507 24.7989 198.186 24.6632 197.978 24.4138C197.842 24.23 197.759 24.0129 197.737 23.7855C197.715 23.5582 197.755 23.3292 197.853 23.1228C197.506 23.6769 197.359 24.3723 197.761 24.8488C197.969 25.0954 198.291 25.2311 198.493 25.4832C198.857 25.9376 198.735 26.5914 198.726 27.1677C198.705 27.3686 198.755 27.5706 198.868 27.7384C198.973 27.8365 199.102 27.9058 199.242 27.9393C199.382 27.9728 199.528 27.9694 199.666 27.9295C199.941 27.8469 200.229 27.8196 200.515 27.8492C200.815 27.9469 201.075 28.1418 201.252 28.4033C202.159 29.5586 202.514 30.8274 202.896 32.2182C202.941 32.5604 203.112 32.8736 203.376 33.0964C203.566 33.188 203.775 33.2335 203.986 33.2294C205.952 33.3513 208 33.44 209.808 32.6753C210.148 32.5552 210.452 32.3535 210.695 32.088C210.818 31.9319 210.911 31.7556 210.973 31.5671C210.975 31.6032 210.956 31.6336 210.934 31.6613Z" fill="black"/>
<path opacity="0.1" d="M198.383 22.2676C198.471 22.1731 198.538 22.0619 198.58 21.9407C198.605 21.8005 198.605 21.657 198.58 21.5169C198.526 20.727 198.629 19.9342 198.882 19.1841L198.846 19.1426C198.467 20.0278 198.308 20.9918 198.383 21.9518C198.392 22.0569 198.392 22.1625 198.383 22.2676Z" fill="black"/>
</g>
<path opacity="0.1" d="M201.734 36.1955C201.734 36.1955 209.794 37.2649 210.518 36.0542L201.734 36.1955Z" fill="black"/>
<path opacity="0.1" d="M217.404 32.8623C217.404 32.8623 221.885 32.8623 222.869 34.5467L217.404 32.8623Z" fill="black"/>
<path d="M242.468 182.51C241.139 183.697 239.412 184.342 237.63 184.317C237.175 184.317 236.546 184.402 236.543 184.857C236.554 184.99 236.6 185.118 236.676 185.228C237.239 186.165 238.127 186.862 239.171 187.187C240.142 187.48 241.179 187.431 242.191 187.378L245.143 187.226C245.698 187.195 246.252 187.167 246.807 187.098C247.361 187.029 247.966 186.915 248.545 186.821C249.969 186.619 251.409 186.552 252.846 186.622C253.228 186.635 253.677 186.622 253.905 186.345C254.132 186.067 254.016 185.538 253.93 185.123C253.752 184.267 253.93 183.369 253.766 182.51C253.489 181.003 252.183 179.848 250.752 179.302C249.421 178.798 247.065 178.219 245.806 179.061C244.478 179.945 243.666 181.421 242.468 182.51Z" fill="#3F3D56"/>
<path d="M245.404 132.014C245.664 133.252 246.865 134.2 246.898 135.463C246.928 136.477 246.205 137.328 245.684 138.195C245.192 139.093 244.778 140.031 244.444 140.998C243.463 143.518 242.245 145.939 240.807 148.229C240.114 149.337 239.337 150.52 239.495 151.809C239.606 152.411 239.819 152.99 240.125 153.521L242.204 157.649C242.66 158.473 243.016 159.348 243.266 160.256C243.446 161.04 243.463 161.852 243.568 162.649C243.895 165.182 245.085 167.731 244.381 170.185C244.32 170.396 244.103 170.651 243.934 170.504C244.622 171.786 245.173 173.077 245.121 174.532C245.093 175.294 244.86 176.089 245.14 176.798C245.259 177.095 245.467 177.372 245.465 177.69C245.465 177.901 245.368 178.098 245.345 178.303C245.287 178.887 245.825 179.375 246.382 179.56C246.94 179.746 247.547 179.732 248.11 179.901C249.191 180.225 249.964 181.156 250.882 181.802C251.824 182.45 252.933 182.811 254.076 182.841C254.239 182.858 254.404 182.825 254.547 182.746C254.629 182.675 254.694 182.587 254.739 182.489C254.784 182.391 254.808 182.284 254.808 182.176C254.858 181.658 254.78 181.136 254.581 180.656C254.382 180.176 254.068 179.752 253.666 179.422C253.49 179.312 253.344 179.159 253.242 178.979C253.19 178.819 253.177 178.649 253.203 178.483C253.37 176.212 253.329 173.931 253.081 171.667C252.969 170.95 252.932 170.223 252.973 169.498C253.031 168.894 253.214 168.296 253.147 167.694C253.081 167.093 252.773 166.545 252.593 165.966C252.271 164.935 252.36 163.827 252.316 162.749C252.26 160.876 251.83 159.037 251.403 157.208C251.234 156.491 251.048 155.74 250.541 155.208C250.109 154.756 249.41 154.324 249.573 153.723C249.664 153.501 249.799 153.301 249.97 153.133C250.171 152.881 250.318 152.591 250.403 152.281C250.488 151.97 250.508 151.645 250.463 151.327C250.646 151.373 250.839 151.355 251.009 151.275C251.18 151.195 251.317 151.059 251.398 150.889C254.775 149.296 257.497 146.11 258.712 142.578C258.783 142.315 258.894 142.065 259.039 141.835C259.352 141.397 259.896 141.209 260.378 140.968C261.892 140.206 262.937 138.779 263.896 137.383C264.451 136.574 265.005 135.737 265.255 134.784C265.386 134.168 265.448 133.539 265.441 132.909L265.527 129.653C265.546 129.439 265.525 129.223 265.466 129.016C265.383 128.823 265.264 128.648 265.114 128.501C264.191 127.527 262.98 126.874 261.659 126.639C260.772 126.481 259.865 126.512 258.967 126.437C257.226 126.293 255.507 125.753 253.766 125.883C251.029 126.085 248.592 127.98 247.303 130.401C246.851 131.255 246.374 131.997 245.404 132.014Z" fill="#464353"/>
<path d="M230.209 110.85C230.246 111.352 230.178 111.857 230.01 112.332C229.796 112.786 229.261 113.141 228.793 112.955C228.934 112.636 228.56 112.274 228.21 112.312C228.038 112.352 227.879 112.433 227.745 112.547C227.611 112.662 227.507 112.808 227.442 112.972C227.211 113.437 227.133 113.964 227.221 114.476C227.331 115.113 227.7 115.726 227.603 116.366C227.525 116.897 227.135 117.427 227.343 117.92C227.477 118.145 227.647 118.348 227.844 118.521C228.118 118.858 228.252 119.287 228.219 119.72C228.185 120.153 227.987 120.557 227.664 120.848L232.91 120.953C232.718 121.829 233.112 122.724 233.561 123.502C234.819 125.642 236.556 127.462 238.636 128.819C240.716 130.176 243.083 131.033 245.55 131.323C245.416 131.401 245.302 131.507 245.215 131.635C245.128 131.762 245.07 131.907 245.046 132.06C245.022 132.212 245.032 132.368 245.075 132.516C245.119 132.664 245.195 132.801 245.297 132.916C245.724 133.34 246.448 133.287 246.983 133.013C247.518 132.739 247.937 132.285 248.425 131.933C249.286 131.323 250.337 131.04 251.389 131.135C252.046 131.198 252.684 131.412 253.343 131.445C255.284 131.548 256.948 130.151 258.816 129.581C260.178 129.162 261.722 129.162 262.864 128.312C263.358 127.946 263.763 127.345 263.618 126.752C263.499 126.411 263.31 126.099 263.064 125.835C262.407 124.984 262.019 123.962 261.547 122.995C260.614 121.081 259.328 119.359 257.757 117.92C256.572 116.884 255.316 115.933 253.998 115.072C253.679 114.837 253.339 114.632 252.983 114.459C252.523 114.257 252.013 114.16 251.597 113.905C250.981 113.517 250.626 112.833 250.152 112.282C249.113 111.068 247.516 110.512 246.235 109.559C245.375 108.919 244.615 108.076 243.59 107.769C243.091 107.616 242.561 107.605 242.062 107.456C240.928 107.112 240.102 106.107 238.99 105.699C238.111 105.378 237.141 105.461 236.217 105.347C235.177 105.219 234.183 104.841 233.32 104.245C233.042 104.019 232.731 103.837 232.397 103.707C230.991 103.281 230.877 105.896 230.733 106.802C230.548 108.148 230.209 109.486 230.209 110.85Z" fill="#4B5FFA"/>
<path d="M231.581 119.619C231.817 122.173 229.887 124.647 230.45 127.149C230.569 127.681 230.799 128.188 230.882 128.728C231.118 130.21 230.231 131.615 229.385 132.856L222.121 143.509C221.829 143.976 221.481 144.406 221.084 144.788C219.698 146.021 217.613 145.897 215.789 146.262C214.507 146.525 213.297 147.06 212.24 147.83C212.192 147.867 212.161 147.921 212.153 147.981C212.144 148.04 212.16 148.101 212.195 148.149C212.497 148.559 212.896 148.887 213.356 149.103C213.817 149.319 214.324 149.417 214.832 149.387C215.023 149.637 214.832 150.008 214.569 150.188C214.181 150.465 213.643 150.529 213.565 151.191C213.539 151.421 213.585 151.654 213.698 151.856C213.992 152.302 214.447 152.618 214.968 152.737C217.483 153.507 220.2 152.155 222.082 150.318C223.965 148.481 225.315 146.163 227.162 144.295C228.185 143.259 229.346 142.375 230.4 141.373C232.502 139.369 234.137 136.94 235.712 134.505C236.186 133.77 236.666 133.017 236.863 132.166C237.06 131.316 236.968 130.454 237.193 129.631C237.487 128.554 238.277 127.692 238.934 126.789C240.223 125.016 241.085 122.846 240.913 120.661C240.742 118.475 239.389 116.319 237.326 115.577C236.686 115.323 235.982 115.28 235.316 115.455C234.47 115.715 233.846 116.413 233.27 117.084L231.883 118.674C231.546 119.026 231.281 119.441 231.104 119.896C231.015 120.125 230.993 120.375 231.043 120.616C231.092 120.856 231.209 121.078 231.381 121.253" fill="#FBBEBE"/>
<path d="M235.261 109.143C234.308 109.198 233.257 109.293 232.583 109.974C232.301 110.287 232.072 110.645 231.907 111.032C231.252 112.365 230.615 113.758 230.567 115.243C230.529 116.429 230.872 117.59 231.053 118.762C231.202 119.737 230.823 120.732 230.75 121.718C231.934 121.355 233.498 120.862 234.571 120.25C235.303 119.831 236.01 119.355 236.808 119.089C237.948 118.709 239.858 119.366 240.942 119.892C241.001 119.133 240.429 117.809 240.49 117.047C240.499 116.726 240.556 116.409 240.659 116.105C240.822 115.784 241.014 115.479 241.233 115.194C241.646 114.523 241.836 113.739 241.776 112.955C241.715 112.17 241.408 111.424 240.898 110.825C239.936 109.744 238.43 109.34 236.994 109.162C236.09 109.058 235.178 109.026 234.269 109.068" fill="#4B5FFA"/>
<defs>
<linearGradient id="paint0_linear_1607_54618" x1="195.802" y1="151.318" x2="195.802" y2="15.9368" gradientUnits="userSpaceOnUse">
<stop stop-color="#808080" stop-opacity="0.25"/>
<stop offset="0.54" stop-color="#808080" stop-opacity="0.12"/>
<stop offset="1" stop-color="#808080" stop-opacity="0.1"/>
</linearGradient>
</defs>
</svg>
